<svg id="svg" version="1.1" xmlns="http://www.w3.org/2000/svg" xmlns:xlink="http://www.w3.org/1999/xlink" width="400" height="396.06299212598424" viewBox="0, 0, 400,396.06299212598424"><g id="svgg"><path id="path0" d="M206.145 4.786 C 204.727 4.955,202.408 5.293,200.991 5.537 C 198.385 5.986,195.772 6.398,191.080 7.100 C 185.524 7.932,180.783 8.918,177.403 9.946 C 147.178 19.137,125.912 37.973,113.215 66.799 C 112.159 69.197,110.977 71.873,110.590 72.745 C 106.859 81.138,99.800 99.955,95.685 112.477 C 90.513 128.216,85.789 144.884,81.668 161.943 C 78.934 173.261,78.988 173.029,78.255 176.611 C 77.585 179.890,77.089 182.202,76.471 184.936 C 76.274 185.808,75.918 187.502,75.681 188.702 C 75.443 189.901,75.103 191.596,74.926 192.468 C 74.748 193.340,74.408 195.079,74.169 196.333 C 73.931 197.587,73.540 199.638,73.300 200.892 C 72.375 205.725,71.709 209.547,70.154 218.930 C 69.346 223.809,68.966 226.206,68.566 228.940 C 68.343 230.466,67.981 232.874,67.761 234.291 C 66.125 244.864,63.729 264.596,62.224 279.881 C 60.520 297.193,59.147 316.648,58.266 335.976 L 57.850 345.094 60.144 347.223 C 79.163 364.876,105.247 379.377,130.823 386.514 C 135.320 387.769,137.922 388.453,139.148 388.701 C 139.911 388.855,141.249 389.144,142.121 389.342 C 142.993 389.540,144.688 389.867,145.887 390.068 C 147.086 390.269,149.584 390.692,151.437 391.008 C 163.655 393.091,183.965 394.065,183.927 392.567 C 183.909 391.827,183.737 390.952,182.393 384.737 C 181.049 378.524,178.526 365.785,177.603 360.555 C 176.219 352.709,176.023 351.557,175.586 348.662 C 175.355 347.136,175.015 344.906,174.831 343.707 C 172.464 328.303,171.045 315.700,169.585 297.126 C 168.910 288.551,168.916 250.449,169.592 244.202 C 169.863 241.695,170.267 237.770,170.489 235.481 C 171.309 227.039,172.770 218.090,174.859 208.722 C 180.702 182.519,190.404 162.295,205.033 145.824 C 208.290 142.157,208.310 142.856,204.856 139.642 C 203.276 138.171,200.555 135.621,198.811 133.976 C 197.066 132.331,194.480 129.905,193.062 128.586 C 176.009 112.707,171.552 108.553,169.813 106.917 C 168.691 105.862,167.685 104.610,167.579 104.135 C 167.472 103.659,166.817 101.754,166.124 99.901 C 165.431 98.048,164.599 95.728,164.275 94.747 C 163.951 93.766,163.535 92.607,163.350 92.170 C 163.165 91.734,162.799 90.753,162.537 89.990 C 162.275 89.227,161.918 88.246,161.744 87.810 C 161.570 87.374,161.213 86.392,160.951 85.629 C 160.689 84.866,160.333 83.885,160.159 83.449 C 159.985 83.013,159.628 82.032,159.366 81.269 C 158.726 79.406,158.378 78.519,157.730 77.106 C 156.745 74.956,156.716 47.038,157.698 46.107 C 158.842 45.023,159.575 44.467,164.519 40.928 C 167.027 39.134,170.951 36.315,173.241 34.663 C 177.892 31.308,178.003 31.287,182.755 32.866 C 183.954 33.264,185.738 33.814,186.720 34.086 C 187.701 34.359,188.949 34.719,189.495 34.886 C 190.040 35.053,191.288 35.408,192.270 35.674 C 193.251 35.940,194.463 36.318,194.964 36.513 C 195.465 36.708,196.202 36.868,196.601 36.868 C 197.001 36.868,198.018 37.716,198.862 38.751 C 199.706 39.787,201.236 41.524,202.263 42.611 C 204.404 44.879,204.337 44.755,206.541 50.545 C 208.117 54.686,208.429 55.485,209.283 57.582 C 209.483 58.072,210.328 60.258,211.162 62.438 L 212.677 66.402 221.512 75.520 C 235.835 90.303,240.889 94.599,246.977 97.165 C 249.703 98.313,253.052 99.756,254.420 100.370 C 255.788 100.984,256.988 101.487,257.086 101.487 C 257.184 101.487,258.433 102.022,259.861 102.676 C 261.289 103.330,262.538 103.865,262.636 103.865 C 262.734 103.865,263.983 104.400,265.411 105.055 C 266.839 105.709,268.088 106.244,268.186 106.244 C 268.284 106.244,269.484 106.748,270.852 107.363 C 272.221 107.979,273.964 108.727,274.727 109.026 C 275.491 109.324,276.700 109.891,277.415 110.285 C 279.138 111.233,296.135 111.392,296.135 110.459 C 296.135 110.162,295.339 108.238,294.367 106.185 C 287.980 92.702,284.698 67.827,283.921 27.012 L 283.647 12.597 280.822 11.099 C 277.879 9.538,274.328 8.197,271.952 7.747 C 263.487 6.147,259.356 5.637,251.338 5.200 C 241.582 4.669,209.573 4.375,206.145 4.786 M237.265 26.979 C 246.997 29.519,250.544 40.611,243.964 47.929 C 236.347 56.401,222.002 50.859,222.002 39.445 C 222.002 31.616,230.000 25.083,237.265 26.979 " stroke="none" fill="#040404" fill-rule="evenodd"></path><path id="path1" d="M0.000 198.216 L 0.000 396.432 200.000 396.432 L 400.000 396.432 400.000 198.216 L 400.000 0.000 200.000 0.000 L 0.000 0.000 0.000 198.216 M247.175 4.359 C 252.626 4.547,258.513 4.888,260.258 5.118 C 262.002 5.348,264.410 5.637,265.610 5.761 C 266.809 5.884,268.147 6.144,268.583 6.340 C 269.019 6.535,270.089 6.779,270.961 6.883 C 274.112 7.258,275.294 7.612,278.234 9.062 C 279.181 9.529,280.207 9.911,280.513 9.911 C 280.820 9.911,281.070 10.046,281.070 10.210 C 281.070 10.375,281.650 10.757,282.359 11.060 C 283.067 11.362,284.004 11.911,284.440 12.279 C 285.167 12.893,289.853 15.699,294.747 18.452 C 298.376 20.493,303.828 24.263,307.037 26.950 C 310.820 30.118,314.125 32.349,317.294 33.873 C 318.591 34.497,321.326 36.505,323.469 38.408 C 333.691 47.486,337.802 50.612,358.573 65.102 C 360.099 66.167,363.169 68.322,365.395 69.892 C 367.621 71.461,372.516 74.886,376.273 77.502 C 390.079 87.117,391.915 88.465,393.974 90.495 C 399.876 96.316,399.848 104.567,393.911 109.054 C 390.710 111.473,391.950 111.397,355.653 111.397 C 317.902 111.397,321.063 111.066,323.814 114.731 C 329.200 121.907,339.000 139.861,342.875 149.653 C 349.171 165.560,352.716 179.497,354.777 196.432 C 356.498 210.580,356.080 231.628,353.837 243.806 C 353.696 244.569,353.398 246.264,353.174 247.572 C 336.214 346.584,237.838 411.791,138.751 389.699 C 130.549 387.871,116.703 383.420,110.406 380.589 C 109.316 380.099,107.800 379.430,107.037 379.103 C 104.001 377.800,91.661 371.542,91.179 371.060 C 91.070 370.951,90.580 370.639,90.089 370.367 C 89.599 370.094,88.796 369.648,88.305 369.376 C 87.815 369.103,87.324 368.791,87.215 368.682 C 87.106 368.573,86.615 368.261,86.125 367.988 C 85.634 367.716,84.832 367.270,84.341 366.997 C 83.850 366.724,83.360 366.397,83.251 366.270 C 83.142 366.142,81.358 364.905,79.286 363.520 C 77.215 362.134,75.291 360.773,75.010 360.495 C 74.730 360.216,73.972 359.676,73.326 359.294 C 72.679 358.912,72.151 358.460,72.151 358.289 C 72.151 358.118,71.928 357.977,71.655 357.976 C 71.383 357.975,70.624 357.478,69.970 356.870 C 69.316 356.263,68.405 355.506,67.946 355.187 C 65.580 353.548,58.331 347.098,57.716 346.085 C 57.518 345.758,55.199 343.259,52.563 340.531 C 38.305 325.777,28.599 312.152,20.231 295.144 C -26.250 200.676,18.875 86.945,117.297 50.504 C 121.766 48.849,121.211 49.322,126.318 42.815 C 129.151 39.206,137.921 30.271,140.535 28.332 C 141.407 27.685,142.477 26.832,142.913 26.436 C 143.937 25.506,151.160 20.585,153.221 19.412 C 154.093 18.916,155.520 18.136,156.392 17.679 C 157.265 17.222,158.067 16.759,158.176 16.650 C 158.285 16.540,158.821 16.247,159.366 15.997 C 162.767 14.441,164.913 13.481,166.303 12.893 C 167.175 12.525,168.199 12.059,168.577 11.860 C 168.956 11.660,169.614 11.497,170.041 11.497 C 170.467 11.497,170.913 11.339,171.031 11.147 C 171.150 10.955,171.651 10.700,172.145 10.580 C 173.041 10.363,174.979 9.826,177.602 9.069 C 180.807 8.144,183.959 7.459,188.404 6.721 C 194.934 5.638,200.258 4.823,203.684 4.383 C 205.055 4.207,206.304 3.934,206.459 3.775 C 206.765 3.461,231.340 3.814,247.175 4.359 M229.336 28.726 C 218.049 35.277,222.559 51.848,235.415 51.064 C 247.578 50.323,250.646 33.757,239.583 28.556 C 237.033 27.358,231.536 27.449,229.336 28.726 M176.809 32.904 C 176.809 33.122,176.541 33.300,176.214 33.300 C 175.887 33.300,175.619 33.437,175.619 33.603 C 175.619 33.770,174.906 34.347,174.034 34.886 C 173.162 35.425,172.448 35.960,172.448 36.075 C 172.448 36.190,171.734 36.726,170.862 37.265 C 169.990 37.804,169.277 38.381,169.277 38.547 C 169.277 38.714,169.100 38.850,168.884 38.850 C 168.539 38.850,166.085 40.563,164.019 42.246 C 163.635 42.559,163.236 42.815,163.132 42.815 C 163.028 42.815,162.628 43.071,162.244 43.384 C 161.860 43.697,160.743 44.553,159.762 45.287 L 157.978 46.621 157.874 61.046 C 157.807 70.394,157.911 75.612,158.171 75.872 C 158.392 76.093,158.573 76.597,158.573 76.992 C 158.573 77.388,158.751 78.066,158.969 78.499 C 159.187 78.932,159.544 79.641,159.762 80.074 C 159.980 80.507,160.159 81.134,160.159 81.467 C 160.159 82.054,160.323 82.474,161.286 84.336 C 161.538 84.823,161.744 85.495,161.744 85.828 C 161.744 86.161,161.923 86.787,162.141 87.220 C 162.359 87.654,162.716 88.362,162.934 88.795 C 163.152 89.229,163.330 89.855,163.330 90.188 C 163.330 90.776,163.495 91.195,164.457 93.057 C 164.710 93.545,164.916 94.216,164.916 94.549 C 164.916 95.136,165.081 95.556,166.043 97.418 C 166.295 97.905,166.501 98.577,166.501 98.910 C 166.501 99.243,166.680 99.870,166.898 100.303 C 167.116 100.736,167.473 101.445,167.691 101.878 C 167.909 102.311,168.087 103.020,168.087 103.453 C 168.087 103.900,169.058 105.144,170.335 106.332 C 171.571 107.483,174.737 110.478,177.371 112.988 C 180.005 115.499,183.053 118.329,184.143 119.277 C 185.233 120.226,188.012 122.810,190.318 125.020 C 192.625 127.230,196.525 130.912,198.985 133.201 C 201.446 135.491,204.732 138.562,206.288 140.027 L 209.118 142.690 210.014 141.613 C 210.507 141.020,211.131 140.033,211.401 139.418 C 211.951 138.170,216.727 134.892,227.948 128.063 C 236.668 122.756,235.903 123.168,239.643 121.774 C 241.388 121.124,244.955 119.745,247.572 118.710 C 250.188 117.675,253.043 116.686,253.915 116.513 C 254.787 116.339,256.036 116.090,256.690 115.959 C 257.344 115.828,258.503 115.562,259.267 115.368 C 260.030 115.174,261.501 114.826,262.537 114.594 C 263.573 114.362,265.178 114.002,266.105 113.795 C 267.032 113.587,268.949 113.125,270.367 112.768 C 271.784 112.411,273.568 111.979,274.331 111.808 C 277.563 111.083,277.509 110.866,273.736 109.423 C 273.300 109.256,272.052 108.717,270.961 108.226 C 269.871 107.735,268.622 107.199,268.186 107.037 C 267.750 106.874,266.501 106.339,265.411 105.847 C 264.321 105.356,263.072 104.821,262.636 104.658 C 262.200 104.495,260.951 103.960,259.861 103.469 C 258.771 102.977,257.522 102.442,257.086 102.279 C 256.650 102.117,255.401 101.582,254.311 101.090 C 253.221 100.599,251.972 100.064,251.536 99.901 C 251.100 99.738,249.851 99.203,248.761 98.712 C 247.671 98.220,246.422 97.682,245.986 97.516 C 241.078 95.643,238.703 93.620,222.978 77.906 C 213.694 68.629,212.165 66.930,211.550 65.213 C 211.160 64.123,210.676 62.830,210.475 62.339 C 209.951 61.061,209.369 59.603,208.973 58.573 C 208.400 57.086,207.658 55.342,207.288 54.614 C 207.095 54.235,206.938 53.566,206.938 53.127 C 206.938 52.688,206.759 52.329,206.541 52.329 C 206.323 52.329,206.145 51.970,206.145 51.531 C 206.145 51.092,205.966 50.378,205.748 49.945 C 205.530 49.512,205.173 48.803,204.955 48.370 C 204.737 47.937,204.559 47.338,204.559 47.038 C 204.559 46.739,203.845 45.684,202.973 44.693 C 202.101 43.702,201.388 42.769,201.388 42.620 C 201.388 41.704,196.157 37.265,195.077 37.265 C 194.431 37.265,193.792 37.086,193.657 36.868 C 193.522 36.650,192.887 36.472,192.246 36.472 C 191.605 36.472,191.080 36.293,191.080 36.075 C 191.080 35.857,190.556 35.679,189.914 35.679 C 189.273 35.679,188.638 35.500,188.503 35.282 C 188.369 35.064,187.744 34.886,187.116 34.886 C 186.488 34.886,185.863 34.708,185.728 34.490 C 185.594 34.272,184.969 34.093,184.341 34.093 C 183.713 34.093,183.088 33.915,182.953 33.697 C 182.819 33.479,182.184 33.300,181.543 33.300 C 180.901 33.300,180.377 33.122,180.377 32.904 C 180.377 32.686,179.574 32.507,178.593 32.507 C 177.611 32.507,176.809 32.686,176.809 32.904 " stroke="none" fill="#f4f4f4" fill-rule="evenodd"></path><path id="path2" d="M120.317 49.957 C 119.881 50.149,117.116 51.230,114.172 52.360 C 57.852 73.964,17.600 123.152,5.196 185.530 C -5.423 238.928,12.820 298.487,52.370 339.541 L 57.483 344.849 57.483 342.158 C 57.483 339.291,58.410 321.663,59.080 311.794 C 60.490 291.039,62.767 267.458,64.994 250.545 C 66.311 240.549,66.912 236.182,67.394 233.102 C 67.616 231.685,67.966 229.366,68.173 227.948 C 68.380 226.531,68.743 224.212,68.980 222.795 C 69.217 221.378,69.581 219.148,69.790 217.839 C 69.999 216.531,70.341 214.480,70.550 213.280 C 70.759 212.081,71.130 209.941,71.374 208.523 C 71.939 205.242,72.442 202.508,72.942 200.000 C 73.159 198.910,73.516 197.037,73.736 195.837 C 73.956 194.638,74.322 192.765,74.549 191.675 C 74.776 190.585,75.124 188.890,75.322 187.909 C 75.664 186.215,76.006 184.635,76.908 180.575 C 77.840 176.381,78.153 174.924,78.487 173.241 C 78.681 172.260,79.041 170.654,79.286 169.673 C 79.531 168.692,79.822 167.354,79.932 166.700 C 80.043 166.046,80.287 165.154,80.476 164.718 C 80.664 164.281,80.909 163.389,81.019 162.735 C 81.129 162.081,81.409 160.788,81.641 159.861 C 81.872 158.935,82.248 157.418,82.476 156.492 C 82.704 155.565,83.053 154.182,83.251 153.419 C 83.449 152.656,83.722 151.497,83.858 150.842 C 83.993 150.188,84.255 149.296,84.440 148.860 C 84.625 148.424,84.888 147.532,85.024 146.878 C 85.160 146.224,85.365 145.243,85.480 144.698 C 85.595 144.153,85.841 143.350,86.026 142.914 C 86.211 142.478,86.474 141.586,86.610 140.932 C 86.745 140.278,86.951 139.296,87.066 138.751 C 87.181 138.206,87.419 137.403,87.596 136.967 C 87.773 136.531,88.137 135.372,88.405 134.390 C 88.673 133.409,89.030 132.161,89.197 131.615 C 89.365 131.070,89.721 129.822,89.989 128.840 C 90.257 127.859,90.615 126.700,90.783 126.264 C 90.951 125.828,91.314 124.668,91.589 123.687 C 92.043 122.067,93.121 118.668,96.056 109.613 C 102.981 88.245,113.791 62.250,119.742 52.655 C 121.693 49.510,121.730 49.334,120.317 49.957 M296.531 111.435 C 295.768 111.629,291.041 111.767,286.026 111.743 C 279.019 111.709,276.311 111.842,274.331 112.316 C 271.818 112.918,269.488 113.460,263.826 114.760 C 259.030 115.860,257.938 116.103,255.699 116.570 C 244.212 118.966,214.263 134.906,211.543 140.072 C 210.561 141.936,209.430 143.123,208.818 142.929 C 208.395 142.794,206.402 144.868,201.973 150.050 C 173.888 182.904,163.503 245.993,173.054 325.727 C 176.049 350.727,183.972 393.524,185.524 393.085 C 185.854 392.992,188.087 392.809,190.486 392.678 C 209.258 391.652,232.266 386.154,248.959 378.704 C 275.436 366.889,296.084 351.312,315.320 328.642 C 325.538 316.599,336.437 298.128,342.904 281.889 C 361.469 235.275,359.081 181.148,336.518 137.166 C 332.110 128.572,331.617 127.735,325.361 118.236 L 320.596 111.001 309.257 111.042 C 303.021 111.064,297.294 111.241,296.531 111.435 " stroke="none" fill="#ebb374" fill-rule="evenodd"></path><path id="path3" d="M205.748 4.314 C 204.985 4.449,212.924 4.577,223.389 4.600 C 236.035 4.627,240.357 4.545,236.274 4.355 C 228.755 4.005,207.656 3.977,205.748 4.314 M200.000 5.166 C 199.128 5.344,195.917 5.872,192.864 6.340 C 170.022 9.841,154.123 16.908,138.553 30.482 C 132.192 36.028,124.263 45.386,119.685 52.754 C 113.809 62.209,102.953 88.333,96.056 109.613 C 93.121 118.668,92.043 122.067,91.589 123.687 C 91.314 124.668,90.951 125.828,90.783 126.264 C 90.615 126.700,90.257 127.859,89.989 128.840 C 89.721 129.822,89.365 131.070,89.197 131.615 C 89.030 132.161,88.673 133.409,88.405 134.390 C 88.137 135.372,87.773 136.531,87.596 136.967 C 87.419 137.403,87.172 138.251,87.047 138.850 C 86.921 139.450,86.716 140.431,86.591 141.031 C 86.465 141.630,86.211 142.478,86.026 142.914 C 85.841 143.350,85.586 144.197,85.461 144.797 C 85.336 145.396,85.130 146.378,85.005 146.977 C 84.879 147.577,84.625 148.424,84.440 148.860 C 84.255 149.296,83.993 150.188,83.858 150.842 C 83.722 151.497,83.449 152.656,83.251 153.419 C 83.053 154.182,82.704 155.565,82.476 156.492 C 82.248 157.418,81.872 158.935,81.641 159.861 C 81.409 160.788,81.129 162.081,81.019 162.735 C 80.909 163.389,80.664 164.281,80.476 164.718 C 80.287 165.154,80.043 166.046,79.932 166.700 C 79.822 167.354,79.531 168.692,79.286 169.673 C 79.041 170.654,78.681 172.260,78.487 173.241 C 78.153 174.924,77.840 176.381,76.908 180.575 C 76.006 184.635,75.664 186.215,75.322 187.909 C 75.124 188.890,74.776 190.585,74.549 191.675 C 74.322 192.765,73.956 194.638,73.736 195.837 C 73.516 197.037,73.159 198.910,72.942 200.000 C 72.442 202.508,71.939 205.242,71.374 208.523 C 71.130 209.941,70.759 212.081,70.550 213.280 C 70.341 214.480,69.999 216.531,69.790 217.839 C 69.581 219.148,69.217 221.378,68.980 222.795 C 68.743 224.212,68.380 226.531,68.173 227.948 C 67.966 229.366,67.616 231.685,67.394 233.102 C 66.903 236.241,66.258 240.926,65.020 250.347 C 62.753 267.596,60.496 290.942,59.080 311.794 C 58.378 322.142,57.483 339.351,57.483 342.512 L 57.483 345.557 59.366 347.323 C 90.158 376.192,134.321 393.627,176.722 393.652 C 185.924 393.658,185.234 394.551,183.200 385.270 C 158.874 274.277,167.205 186.821,206.046 145.455 C 208.837 142.482,209.071 142.944,200.925 135.353 C 196.963 131.662,192.013 127.027,189.924 125.053 C 187.834 123.079,185.062 120.492,183.764 119.305 C 180.903 116.689,180.586 116.393,176.362 112.389 C 174.522 110.644,172.025 108.316,170.814 107.215 C 169.603 106.114,168.410 104.865,168.163 104.440 C 167.813 103.836,167.712 103.804,167.703 104.294 C 167.696 104.638,168.627 105.801,169.772 106.878 C 171.547 108.548,175.957 112.658,193.062 128.586 C 194.480 129.905,197.066 132.331,198.811 133.976 C 200.555 135.621,203.276 138.171,204.856 139.642 C 208.310 142.856,208.290 142.157,205.033 145.824 C 190.404 162.295,180.702 182.519,174.859 208.722 C 172.770 218.090,171.309 227.039,170.489 235.481 C 170.267 237.770,169.863 241.695,169.592 244.202 C 168.916 250.449,168.910 288.551,169.585 297.126 C 171.045 315.700,172.464 328.303,174.831 343.707 C 175.015 344.906,175.355 347.136,175.586 348.662 C 176.841 356.969,179.947 373.431,182.393 384.737 C 183.737 390.952,183.909 391.827,183.927 392.567 C 183.965 394.065,163.655 393.091,151.437 391.008 C 149.584 390.692,147.086 390.269,145.887 390.068 C 144.688 389.867,142.993 389.540,142.121 389.342 C 141.249 389.144,139.911 388.855,139.148 388.701 C 137.922 388.453,135.320 387.769,130.823 386.514 C 105.247 379.377,79.163 364.876,60.144 347.223 L 57.850 345.094 58.266 335.976 C 59.808 302.169,62.589 271.457,67.007 239.445 C 67.203 238.028,67.542 235.709,67.761 234.291 C 67.981 232.874,68.343 230.466,68.566 228.940 C 68.980 226.112,69.459 223.087,70.168 218.831 C 70.387 217.522,70.750 215.337,70.975 213.974 C 71.702 209.585,72.559 204.765,73.300 200.892 C 73.540 199.638,73.931 197.587,74.169 196.333 C 74.408 195.079,74.748 193.340,74.926 192.468 C 75.103 191.596,75.443 189.901,75.680 188.702 C 76.073 186.711,76.429 185.050,77.295 181.169 C 77.466 180.406,77.897 178.355,78.254 176.611 C 78.988 173.027,78.935 173.255,81.668 161.943 C 88.760 132.587,96.667 107.436,106.719 82.260 C 108.460 77.899,110.202 73.617,110.590 72.745 C 110.977 71.873,112.159 69.197,113.215 66.799 C 125.917 37.961,147.080 19.216,177.403 9.944 C 179.520 9.296,185.254 8.041,188.305 7.558 C 189.941 7.298,192.260 6.930,193.459 6.739 C 194.658 6.549,196.977 6.188,198.612 5.938 C 200.248 5.687,202.210 5.338,202.973 5.161 L 204.361 4.839 202.973 4.841 C 202.210 4.841,200.872 4.988,200.000 5.166 M248.200 4.905 C 248.290 4.987,250.862 5.151,253.915 5.271 C 257.458 5.409,258.820 5.367,257.681 5.152 C 255.934 4.823,247.874 4.613,248.200 4.905 M261.447 5.969 C 262.319 6.150,263.568 6.286,264.222 6.273 L 265.411 6.249 264.222 5.946 C 263.568 5.780,262.319 5.643,261.447 5.643 L 259.861 5.641 261.447 5.969 M266.601 6.721 C 267.255 6.890,269.039 7.247,270.565 7.515 C 274.191 8.152,277.340 9.253,280.822 11.099 L 283.647 12.597 283.921 27.012 C 284.698 67.827,287.980 92.702,294.367 106.185 C 295.339 108.238,296.135 110.162,296.135 110.459 C 296.135 111.392,279.138 111.233,277.415 110.285 C 276.700 109.891,275.491 109.324,274.727 109.026 C 273.964 108.727,272.221 107.979,270.852 107.363 C 269.484 106.748,268.284 106.244,268.186 106.244 C 268.088 106.244,266.839 105.709,265.411 105.055 C 263.983 104.400,262.734 103.865,262.636 103.865 C 262.538 103.865,261.289 103.330,259.861 102.676 C 258.433 102.022,257.184 101.487,257.086 101.487 C 256.988 101.487,255.788 100.984,254.420 100.370 C 253.052 99.756,249.703 98.313,246.977 97.165 C 240.889 94.599,235.835 90.303,221.512 75.520 L 212.677 66.402 211.162 62.438 C 210.328 60.258,209.459 58.028,209.230 57.483 C 208.734 56.303,208.668 56.133,206.541 50.545 C 204.337 44.755,204.404 44.879,202.263 42.611 C 201.236 41.524,199.706 39.787,198.862 38.751 C 198.018 37.716,197.001 36.868,196.601 36.868 C 196.202 36.868,195.465 36.708,194.964 36.513 C 194.463 36.318,193.251 35.940,192.270 35.674 C 191.288 35.408,190.040 35.053,189.495 34.886 C 188.949 34.719,187.701 34.359,186.720 34.086 C 185.738 33.814,183.954 33.264,182.755 32.866 C 178.003 31.287,177.892 31.308,173.241 34.663 C 170.951 36.315,167.027 39.134,164.519 40.928 C 159.575 44.467,158.842 45.023,157.698 46.107 C 156.716 47.038,156.745 74.956,157.730 77.106 C 158.378 78.519,158.726 79.406,159.366 81.269 C 159.628 82.032,159.985 83.013,160.159 83.449 C 160.451 84.181,160.912 85.511,161.518 87.371 C 161.653 87.784,161.854 88.030,161.966 87.918 C 162.078 87.806,161.138 84.971,159.878 81.618 L 157.588 75.520 157.585 61.062 L 157.582 46.603 160.794 44.213 C 162.561 42.899,165.641 40.664,167.638 39.247 C 169.635 37.830,172.650 35.634,174.336 34.368 C 177.807 31.764,178.431 31.720,183.746 33.706 C 184.182 33.869,185.342 34.222,186.323 34.490 C 187.304 34.759,188.553 35.115,189.098 35.282 C 189.643 35.450,190.892 35.805,191.873 36.071 C 192.854 36.337,194.067 36.714,194.568 36.909 C 195.069 37.105,195.805 37.265,196.204 37.265 C 196.606 37.265,197.966 38.458,199.254 39.941 C 200.532 41.412,202.159 43.241,202.870 44.004 C 203.580 44.767,204.262 45.748,204.385 46.184 C 204.508 46.620,204.776 47.379,204.980 47.869 C 205.443 48.980,206.039 50.468,206.488 51.635 C 206.677 52.126,207.016 52.973,207.242 53.518 C 207.468 54.063,208.045 55.580,208.523 56.888 C 209.002 58.196,209.578 59.713,209.804 60.258 C 210.030 60.803,210.370 61.650,210.558 62.141 C 212.080 66.094,212.355 66.551,214.819 69.234 C 218.992 73.778,231.401 86.259,233.878 88.404 C 235.263 89.604,237.374 91.477,238.569 92.567 C 240.899 94.692,243.145 96.333,243.724 96.333 C 243.920 96.333,244.598 96.581,245.231 96.884 C 245.865 97.188,247.007 97.702,247.770 98.027 C 248.533 98.352,249.827 98.906,250.644 99.259 C 251.462 99.612,252.711 100.148,253.419 100.449 C 254.128 100.751,255.553 101.375,256.586 101.837 C 257.620 102.298,258.552 102.676,258.658 102.676 C 258.764 102.676,260.019 103.211,261.447 103.865 C 262.875 104.519,264.124 105.055,264.222 105.055 C 264.320 105.055,265.569 105.590,266.997 106.244 C 268.425 106.898,269.673 107.433,269.770 107.433 C 269.867 107.433,270.889 107.861,272.040 108.384 C 273.191 108.907,274.808 109.614,275.633 109.955 C 276.459 110.296,277.414 110.856,277.757 111.199 C 278.301 111.742,279.531 111.795,287.357 111.606 C 292.294 111.486,317.205 111.253,342.716 111.087 C 392.457 110.762,390.763 110.842,393.347 108.706 C 397.804 105.023,398.958 100.011,396.498 95.025 C 394.626 91.231,394.040 90.740,378.097 79.607 C 375.971 78.122,372.493 75.693,370.367 74.209 C 337.405 51.190,333.397 48.205,323.793 39.533 C 320.956 36.970,318.291 34.938,316.874 34.256 C 314.101 32.922,309.150 29.663,307.235 27.912 C 304.782 25.669,299.195 21.660,296.005 19.853 C 292.649 17.953,291.805 17.462,288.404 15.434 C 286.442 14.263,284.628 13.022,284.372 12.676 C 283.380 11.331,275.444 8.005,271.216 7.162 C 267.203 6.362,264.034 6.059,266.601 6.721 M231.913 27.008 C 222.351 29.596,218.904 40.691,225.412 47.929 C 233.028 56.401,247.374 50.859,247.374 39.445 C 247.374 31.548,239.258 25.020,231.913 27.008 M240.185 28.653 C 245.314 31.186,248.004 37.221,246.385 42.560 C 242.280 56.087,222.634 53.511,222.634 39.445 C 222.634 30.278,231.917 24.570,240.185 28.653 M162.179 88.603 C 162.141 89.179,163.128 91.905,163.504 92.262 C 163.681 92.430,163.692 92.121,163.528 91.576 C 163.078 90.070,162.209 88.155,162.179 88.603 M163.732 92.996 C 163.738 93.377,164.076 94.364,166.083 99.871 C 167.234 103.029,167.691 104.000,167.691 103.288 C 167.691 102.888,164.122 93.028,163.896 92.802 C 163.803 92.709,163.729 92.796,163.732 92.996 " stroke="none" fill="#949494" fill-rule="evenodd"></path><path id="path4" d="M206.068 3.893 C 205.698 4.041,212.745 4.163,221.727 4.163 C 230.709 4.163,236.720 4.052,235.084 3.917 C 231.001 3.580,206.898 3.560,206.068 3.893 M200.793 4.753 C 200.299 4.963,200.824 5.006,202.180 4.868 C 203.380 4.746,204.435 4.582,204.526 4.503 C 204.867 4.209,201.553 4.431,200.793 4.753 M243.409 4.616 C 246.570 4.895,257.573 4.933,257.149 4.664 C 256.896 4.504,253.389 4.400,249.356 4.433 C 245.322 4.467,242.646 4.549,243.409 4.616 M195.639 5.546 C 195.146 5.756,195.670 5.799,197.027 5.661 C 198.226 5.539,199.281 5.375,199.372 5.296 C 199.714 5.002,196.399 5.223,195.639 5.546 M259.465 5.352 C 260.417 5.677,264.049 5.810,263.562 5.501 C 263.271 5.317,262.141 5.177,261.051 5.191 C 259.960 5.205,259.247 5.277,259.465 5.352 M190.684 6.346 C 190.278 6.611,190.718 6.654,192.071 6.483 C 193.162 6.344,194.128 6.167,194.219 6.089 C 194.613 5.749,191.220 5.996,190.684 6.346 M265.246 6.090 C 265.638 6.431,268.762 6.633,268.559 6.305 C 268.438 6.108,267.605 5.946,266.709 5.946 C 265.814 5.946,265.155 6.011,265.246 6.090 M185.947 7.115 C 185.576 7.350,185.996 7.398,187.137 7.252 C 188.106 7.128,188.974 6.962,189.065 6.883 C 189.437 6.560,186.477 6.779,185.947 7.115 M270.003 6.881 C 270.094 6.960,270.882 7.133,271.754 7.267 C 272.834 7.432,273.150 7.389,272.745 7.131 C 272.204 6.785,269.618 6.550,270.003 6.881 M181.962 7.923 C 181.557 8.182,181.874 8.225,182.953 8.060 C 184.913 7.759,185.247 7.530,183.713 7.538 C 183.077 7.542,182.289 7.715,181.962 7.923 M178.791 8.740 C 178.357 9.033,178.517 9.070,179.386 8.876 C 180.843 8.550,181.160 8.323,180.145 8.331 C 179.727 8.334,179.118 8.518,178.791 8.740 M173.241 10.325 C 172.807 10.619,172.967 10.656,173.835 10.462 C 175.293 10.136,175.610 9.909,174.595 9.917 C 174.177 9.920,173.568 10.104,173.241 10.325 M284.002 12.410 C 284.504 12.912,286.503 14.277,288.444 15.442 C 291.799 17.458,292.602 17.926,296.005 19.853 C 299.195 21.660,304.782 25.669,307.235 27.912 C 309.150 29.663,314.101 32.922,316.874 34.256 C 318.291 34.938,320.956 36.970,323.793 39.533 C 333.397 48.205,337.405 51.190,370.367 74.209 C 372.493 75.693,375.971 78.122,378.097 79.607 C 394.040 90.740,394.626 91.231,396.498 95.025 C 398.958 100.011,397.804 105.023,393.347 108.706 C 390.793 110.817,391.575 110.771,354.907 110.992 L 320.716 111.199 324.699 117.146 C 354.182 161.157,362.789 212.964,349.035 263.627 C 342.859 286.375,329.774 311.608,315.320 328.642 C 296.084 351.312,275.436 366.889,248.959 378.704 C 222.559 390.486,185.955 395.950,156.987 392.434 C 136.337 389.927,115.945 383.576,97.225 373.821 C 93.900 372.088,91.184 370.803,91.189 370.965 C 91.194 371.126,91.952 371.632,92.874 372.089 C 93.795 372.545,97.047 374.178,100.099 375.717 C 103.152 377.256,106.274 378.781,107.037 379.107 C 107.800 379.432,109.316 380.099,110.406 380.589 C 133.411 390.933,164.395 395.752,192.071 393.291 C 274.211 385.989,339.594 326.849,353.174 247.572 C 353.398 246.264,353.696 244.569,353.837 243.806 C 355.459 235.001,356.367 215.857,355.632 205.946 C 354.078 184.974,350.359 168.563,342.875 149.653 C 339.000 139.861,329.200 121.907,323.814 114.731 C 321.063 111.066,317.902 111.397,355.653 111.397 C 391.950 111.397,390.710 111.473,393.911 109.054 C 399.848 104.567,399.876 96.316,393.974 90.495 C 391.915 88.465,390.079 87.117,376.273 77.502 C 372.516 74.886,367.621 71.461,365.395 69.892 C 363.169 68.322,360.099 66.167,358.573 65.102 C 337.802 50.612,333.691 47.486,323.469 38.408 C 321.326 36.505,318.591 34.497,317.294 33.873 C 314.132 32.352,310.826 30.123,307.037 26.954 C 302.207 22.917,299.048 20.877,286.361 13.605 C 285.455 13.085,284.497 12.399,284.231 12.079 C 283.966 11.758,283.600 11.497,283.418 11.497 C 283.237 11.497,283.499 11.907,284.002 12.410 M159.068 16.000 C 158.578 16.243,158.176 16.582,158.176 16.754 C 158.176 17.014,160.373 16.096,160.918 15.609 C 161.270 15.294,159.915 15.581,159.068 16.000 M151.518 20.388 C 149.575 21.762,149.440 22.066,151.239 21.016 C 153.100 19.930,153.741 19.417,153.201 19.445 C 152.994 19.455,152.236 19.880,151.518 20.388 M144.612 25.087 C 143.365 26.007,142.339 26.893,142.332 27.056 C 142.325 27.219,143.389 26.522,144.698 25.506 C 146.773 23.894,147.359 23.353,146.977 23.402 C 146.923 23.409,145.858 24.167,144.612 25.087 M233.499 27.396 C 232.387 27.596,232.603 27.656,234.589 27.698 C 235.951 27.727,237.066 27.681,237.066 27.597 C 237.066 27.281,234.835 27.155,233.499 27.396 M140.130 28.640 C 138.088 30.306,136.648 31.727,136.826 31.899 C 136.904 31.975,138.127 30.985,139.544 29.699 C 142.338 27.165,142.666 26.571,140.130 28.640 M225.170 31.810 C 224.010 33.554,223.921 33.877,224.922 32.706 C 225.805 31.672,226.201 30.922,225.863 30.922 C 225.807 30.922,225.495 31.322,225.170 31.810 M243.424 31.142 C 243.439 31.540,245.386 34.049,245.390 33.675 C 245.391 33.553,244.945 32.850,244.400 32.111 C 243.855 31.372,243.416 30.936,243.424 31.142 M132.560 35.778 C 130.606 37.795,127.808 40.961,126.341 42.815 C 124.874 44.668,123.165 46.813,122.543 47.582 C 121.641 48.697,120.580 49.288,117.297 50.504 C 18.875 86.945,-26.250 200.676,20.231 295.144 C 28.599 312.152,38.305 325.777,52.563 340.531 C 55.199 343.259,57.518 345.758,57.716 346.085 C 58.560 347.476,68.583 356.116,68.583 355.453 C 68.583 355.348,66.933 353.881,64.916 352.194 C 62.899 350.507,60.393 348.219,59.347 347.110 C 40.955 327.617,34.278 319.127,25.956 304.658 C 5.548 269.175,-2.385 223.651,5.196 185.530 C 9.562 163.572,15.216 147.719,24.779 130.624 C 44.680 95.046,77.320 66.471,114.172 52.364 C 121.842 49.428,121.981 49.352,123.395 47.331 C 125.733 43.987,128.470 40.684,132.473 36.373 C 137.327 31.144,137.377 30.805,132.560 35.778 M246.366 39.494 C 246.357 41.138,246.478 42.157,246.635 41.757 C 246.997 40.839,247.007 38.074,246.652 37.182 C 246.504 36.809,246.375 37.850,246.366 39.494 M196.452 37.568 C 196.659 37.735,197.364 38.314,198.018 38.855 L 199.207 39.839 198.043 38.552 C 197.402 37.844,196.698 37.265,196.477 37.265 C 196.227 37.265,196.218 37.380,196.452 37.568 M222.512 39.445 C 222.515 40.535,222.592 40.934,222.683 40.332 C 222.774 39.729,222.772 38.837,222.677 38.349 C 222.583 37.862,222.509 38.355,222.512 39.445 M202.597 44.301 C 203.348 45.119,204.120 45.966,204.314 46.184 C 204.519 46.415,204.519 46.315,204.315 45.945 C 203.766 44.952,201.868 42.815,201.534 42.815 C 201.368 42.815,201.846 43.484,202.597 44.301 M158.240 46.116 C 157.378 47.034,157.374 47.117,157.483 60.883 L 157.592 74.727 157.686 60.878 C 157.778 47.268,157.795 47.012,158.642 46.111 C 159.116 45.606,159.415 45.193,159.306 45.193 C 159.197 45.193,158.717 45.609,158.240 46.116 M224.355 45.938 C 225.360 47.817,228.963 50.550,230.922 50.920 C 231.671 51.061,231.452 50.900,230.329 50.482 C 229.246 50.080,227.654 48.927,226.272 47.545 C 225.021 46.293,224.158 45.570,224.355 45.938 M243.013 47.682 C 242.249 48.384,241.179 49.262,240.634 49.632 C 240.089 50.002,239.854 50.315,240.111 50.326 C 240.368 50.338,241.528 49.462,242.688 48.380 C 243.848 47.298,244.708 46.411,244.599 46.408 C 244.490 46.406,243.776 46.979,243.013 47.682 M233.399 51.427 C 234.108 51.514,235.268 51.514,235.976 51.427 C 236.685 51.339,236.105 51.267,234.688 51.267 C 233.271 51.267,232.691 51.339,233.399 51.427 M212.108 66.547 C 212.359 67.063,215.892 70.819,219.959 74.893 C 224.026 78.967,224.930 79.794,221.967 76.730 C 216.447 71.021,213.300 67.661,212.247 66.351 C 211.692 65.661,211.683 65.675,212.108 66.547 M231.120 86.150 C 231.120 86.218,231.700 86.798,232.408 87.438 L 233.697 88.603 232.532 87.314 C 231.447 86.113,231.120 85.844,231.120 86.150 M239.332 93.570 C 240.469 94.742,241.472 95.620,241.560 95.521 C 241.649 95.423,240.719 94.464,239.493 93.390 L 237.265 91.439 239.332 93.570 M172.448 108.633 C 173.429 109.574,175.570 111.607,177.205 113.150 L 180.178 115.956 177.403 113.052 C 175.877 111.455,173.736 109.422,172.646 108.535 L 170.664 106.922 172.448 108.633 M276.518 111.100 C 276.090 111.340,275.110 111.668,274.341 111.828 C 273.572 111.988,271.784 112.411,270.367 112.768 C 267.827 113.408,265.945 113.848,262.438 114.622 C 261.457 114.838,260.030 115.174,259.267 115.368 C 258.503 115.562,257.344 115.828,256.690 115.959 C 256.036 116.090,254.787 116.339,253.915 116.513 C 253.043 116.686,250.188 117.675,247.572 118.710 C 244.955 119.745,241.388 121.124,239.643 121.774 C 235.903 123.168,236.668 122.756,227.948 128.063 C 218.775 133.646,211.695 138.328,211.695 138.812 C 211.695 139.027,211.140 140.010,210.461 140.996 L 209.227 142.790 207.589 141.266 C 205.971 139.761,205.966 139.759,207.138 141.124 C 209.242 143.572,209.461 143.548,211.126 140.687 C 214.578 134.755,243.476 119.119,255.699 116.570 C 256.898 116.320,258.593 115.954,259.465 115.756 C 264.995 114.502,267.075 114.023,274.243 112.353 C 275.830 111.984,277.231 111.516,277.355 111.315 C 277.720 110.724,277.357 110.631,276.518 111.100 M181.962 117.380 C 181.962 117.486,184.237 119.687,187.017 122.272 C 190.276 125.302,190.802 125.719,188.497 123.446 C 184.117 119.127,181.962 117.127,181.962 117.380 M195.725 130.429 C 196.644 131.387,197.458 132.091,197.534 131.992 C 197.610 131.894,196.858 131.110,195.863 130.250 L 194.054 128.686 195.725 130.429 M201.670 135.971 C 203.243 137.589,204.584 138.832,204.652 138.733 C 204.719 138.634,203.432 137.310,201.792 135.791 L 198.811 133.029 201.670 135.971 M69.001 355.880 C 69.029 356.283,71.345 358.123,71.557 357.911 C 71.645 357.823,71.101 357.259,70.348 356.658 C 69.595 356.057,68.989 355.707,69.001 355.880 M72.156 358.255 C 72.158 358.430,72.783 358.976,73.543 359.468 C 75.325 360.623,75.322 360.357,73.538 358.996 C 72.775 358.414,72.153 358.081,72.156 358.255 M75.328 360.668 C 75.332 360.824,76.967 362.020,78.963 363.326 C 80.958 364.631,82.789 365.880,83.032 366.101 C 83.700 366.708,85.739 367.910,86.521 368.158 C 86.903 368.279,87.215 368.535,87.215 368.728 C 87.215 368.921,87.411 369.078,87.649 369.078 C 87.888 369.078,88.612 369.455,89.258 369.914 C 89.904 370.374,90.515 370.668,90.615 370.567 C 90.716 370.467,89.234 369.435,87.322 368.274 C 85.410 367.114,81.928 364.864,79.584 363.274 C 77.240 361.685,75.325 360.512,75.328 360.668 " stroke="none" fill="#dcccb7" fill-rule="evenodd"></path></g></svg>