<svg width="592" height="301" viewBox="0 0 592 301" fill="none" xmlns="http://www.w3.org/2000/svg">
    <path d="M383.243 272.92H0V273.123H383.243V272.92Z" fill="#E0E0E0"/>
    <path d="M290.751 280.412H264.384V280.615H290.751V280.412Z" fill="#E0E0E0"/>
    <path d="M321.771 279.835H306.932V280.038H321.771V279.835Z" fill="#E0E0E0"/>
    <path d="M189.583 280.315H169.899V280.518H189.583V280.315Z" fill="#E0E0E0"/>
    <path d="M203.801 283.2H190.357V283.403H203.801V283.2Z" fill="#E0E0E0"/>
    <path d="M110.888 278.259H70.2715V278.462H110.888V278.259Z" fill="#E0E0E0"/>
    <path d="M181.657 236.677H33.6564C32.497 236.675 31.3858 236.185 30.5667 235.315C29.7475 234.445 29.2875 233.266 29.2875 232.037V11.4662C29.2976 10.244 29.7621 9.07545 30.5801 8.21427C31.3981 7.35308 32.5036 6.86885 33.6564 6.86676H181.657C182.818 6.86676 183.931 7.35562 184.752 8.22581C185.573 9.09599 186.034 10.2762 186.034 11.5068V232.037C186.034 233.267 185.573 234.448 184.752 235.318C183.931 236.188 182.818 236.677 181.657 236.677ZM33.6564 7.02929C32.5478 7.03144 31.4853 7.49985 30.7021 8.3317C29.919 9.16355 29.4791 10.2909 29.4791 11.4662V232.037C29.4791 233.212 29.919 234.339 30.7021 235.171C31.4853 236.003 32.5478 236.471 33.6564 236.474H181.657C182.767 236.472 183.83 236.003 184.614 235.172C185.399 234.34 185.84 233.213 185.842 232.037V11.4662C185.84 10.2901 185.399 9.16282 184.614 8.3312C183.83 7.49958 182.767 7.03143 181.657 7.02929H33.6564Z" fill="#E0E0E0"/>
    <path d="M347.456 236.677H199.447C198.287 236.675 197.175 236.185 196.355 235.315C195.534 234.446 195.073 233.267 195.071 232.037V11.4662C195.083 10.2433 195.549 9.07472 196.368 8.21376C197.187 7.3528 198.294 6.86883 199.447 6.86676H347.456C348.607 6.87099 349.711 7.35616 350.527 8.21712C351.344 9.07808 351.807 10.2454 351.817 11.4662V232.037C351.817 233.265 351.358 234.442 350.541 235.312C349.723 236.182 348.614 236.673 347.456 236.677ZM199.447 7.02929C198.338 7.03143 197.275 7.49958 196.49 8.3312C195.706 9.16282 195.264 10.2901 195.262 11.4662V232.037C195.264 233.213 195.706 234.34 196.49 235.172C197.275 236.003 198.338 236.472 199.447 236.474H347.456C348.565 236.472 349.629 236.003 350.413 235.172C351.197 234.34 351.639 233.213 351.641 232.037V11.4662C351.639 10.2901 351.197 9.16282 350.413 8.3312C349.629 7.49958 348.565 7.03143 347.456 7.02929H199.447Z" fill="#E0E0E0"/>
    <path d="M332.678 26.5894H217.169V131.873H332.678V26.5894Z" fill="#E0E0E0"/>
    <path d="M335.246 26.5894H219.736V131.873H335.246V26.5894Z" fill="#F0F0F0"/>
    <path d="M330.639 126.932V31.53L224.343 31.53V126.932H330.639Z" fill="#FAFAFA"/>
    <path d="M296.668 126.932V31.53H289.724V126.932H296.668Z" fill="#E0E0E0"/>
    <path d="M260.138 126.932V31.53H253.193V126.932H260.138Z" fill="#E0E0E0"/>
    <path d="M299.114 130.061V27.849H292.169V130.061H299.114Z" fill="#F0F0F0"/>
    <path d="M262.575 130.069V27.857H255.631V130.069H262.575Z" fill="#F0F0F0"/>
    <path d="M330.639 126.924V31.522H328.7V126.924H330.639Z" fill="#E0E0E0"/>
    <path d="M135.929 109.737C135.929 109.737 121.871 84.0659 141.378 63.5959C141.378 63.5959 146.468 67.1146 146.391 71.8441C146.315 76.5736 140.934 77.7681 142.091 81.7175C143.249 85.6668 148.315 89.5268 144.989 92.7935C141.662 96.0603 145.525 98.9532 145.303 102.951C145.081 106.949 135.929 109.737 135.929 109.737Z" fill="#E0E0E0"/>
    <path d="M138.136 113.938C138.136 113.938 143.839 84.8626 119.25 71.9744C119.25 71.9744 115.464 77.0127 116.95 81.474C118.437 85.9353 123.887 85.269 123.964 89.4052C124.04 93.5415 120.384 98.9048 124.508 100.888C128.632 102.87 125.834 106.917 127.237 110.639C128.639 114.361 138.136 113.938 138.136 113.938Z" fill="#E6E6E6"/>
    <path d="M125.619 106.551C125.619 106.551 125.865 131.653 135.331 131.653C144.797 131.653 145.034 106.551 145.034 106.551H125.619Z" fill="#F0F0F0"/>
    <path d="M68.7462 122.211C68.7462 122.211 69.2751 131.653 89.4874 131.653C109.7 131.653 110.236 122.211 110.236 122.211H68.7462Z" fill="#E6E6E6"/>
    <path d="M281.837 179.143H271.167C269.838 179.143 268.761 180.286 268.761 181.695V200.401C268.761 201.811 269.838 202.953 271.167 202.953H281.837C283.166 202.953 284.244 201.811 284.244 200.401V181.695C284.244 180.286 283.166 179.143 281.837 179.143Z" fill="#F0F0F0"/>
    <path d="M310.136 186.928H302.954C302.061 186.928 301.337 187.696 301.337 188.643V201.238C301.337 202.185 302.061 202.953 302.954 202.953H310.136C311.029 202.953 311.753 202.185 311.753 201.238V188.643C311.753 187.696 311.029 186.928 310.136 186.928Z" fill="#E6E6E6"/>
    <path d="M311.209 185.376H301.881C301.58 185.376 301.337 185.634 301.337 185.953V186.603C301.337 186.922 301.58 187.18 301.881 187.18H311.209C311.509 187.18 311.753 186.922 311.753 186.603V185.953C311.753 185.634 311.509 185.376 311.209 185.376Z" fill="#F0F0F0"/>
    <path d="M244.065 189.707C244.065 189.707 244.448 202.953 259.08 202.953C273.712 202.953 274.103 189.707 274.103 189.707H244.065Z" fill="#E6E6E6"/>
    <path d="M207.672 172.211H229.816V167.579H207.672V172.211Z" fill="#E0E0E0"/>
    <path d="M339.906 167.588H229.816V172.22H339.906V167.588Z" fill="#F0F0F0"/>
    <path d="M207.672 207.585H229.816V202.953H207.672V207.585Z" fill="#E0E0E0"/>
    <path d="M339.906 202.953H229.816V207.585H339.906V202.953Z" fill="#F0F0F0"/>
    <path d="M215.651 172.211H211.566V272.912H215.651V172.211Z" fill="#E0E0E0"/>
    <path d="M233.901 172.211H229.816V272.912H233.901V172.211Z" fill="#F0F0F0"/>
    <path d="M325.742 172.211H321.656V272.912H325.742V172.211Z" fill="#E0E0E0"/>
    <path d="M339.906 172.211H335.821V272.912H339.906V172.211Z" fill="#F0F0F0"/>
    <path d="M68.7461 137.545H47.8057V266.825H68.7461V137.545Z" fill="#E6E6E6"/>
    <path d="M155.091 266.817H51.8297V272.92H155.091V266.817Z" fill="#E6E6E6"/>
    <path d="M68.7463 266.817H159.107L159.107 137.537H68.7463L68.7463 266.817Z" fill="#F0F0F0"/>
    <path d="M76.9782 217.97H150.875V186.392H76.9782V217.97Z" fill="#E6E6E6"/>
    <path d="M76.9782 255.302H150.875V223.724H76.9782V255.302Z" fill="#E6E6E6"/>
    <path d="M122.224 189.854H105.629C105.089 189.851 104.572 189.623 104.19 189.218C103.808 188.813 103.593 188.265 103.591 187.692C103.591 187.118 103.805 186.567 104.187 186.161C104.569 185.754 105.088 185.524 105.629 185.522H122.224C122.765 185.524 123.284 185.754 123.666 186.161C124.048 186.567 124.263 187.118 124.263 187.692C124.261 188.265 124.045 188.813 123.663 189.218C123.281 189.623 122.764 189.851 122.224 189.854Z" fill="#F0F0F0"/>
    <path d="M76.9782 180.63H150.875V149.052H76.9782V180.63Z" fill="#E6E6E6"/>
    <path d="M122.224 152.521H105.629C105.088 152.519 104.569 152.29 104.187 151.883C103.805 151.476 103.591 150.926 103.591 150.352C103.593 149.779 103.808 149.23 104.19 148.826C104.572 148.421 105.089 148.192 105.629 148.19H122.224C122.764 148.192 123.281 148.421 123.663 148.826C124.045 149.23 124.261 149.779 124.263 150.352C124.263 150.926 124.048 151.476 123.666 151.883C123.284 152.29 122.765 152.519 122.224 152.521Z" fill="#F0F0F0"/>
    <path d="M122.224 227.186H105.629C105.089 227.184 104.572 226.955 104.19 226.55C103.808 226.145 103.593 225.597 103.591 225.024C103.591 224.45 103.805 223.899 104.187 223.493C104.569 223.086 105.088 222.857 105.629 222.854H122.224C122.765 222.857 123.284 223.086 123.666 223.493C124.048 223.899 124.263 224.45 124.263 225.024C124.261 225.597 124.045 226.145 123.663 226.55C123.281 226.955 122.764 227.184 122.224 227.186Z" fill="#F0F0F0"/>
    <path d="M161.897 131.654H68.7462V137.545H161.897V131.654Z" fill="#E6E6E6"/>
    <path d="M44.8779 137.537H68.7462V131.645H44.8779V137.537Z" fill="#E0E0E0"/>
    <path d="M92.0856 31.53H58.2068V70.9747H92.0856V31.53Z" fill="#E6E6E6"/>
    <path d="M95.7573 31.53H60.7595V70.9747H95.7573V31.53Z" fill="#F0F0F0"/>
    <path d="M92.8215 67.8625V34.6343H63.6874V67.8625H92.8215Z" fill="#FAFAFA"/>
    <path d="M85.762 59.8094V42.6874H70.7541V59.8094H85.762Z" fill="#F0F0F0"/>
    <path d="M127.804 19.8852H102.111V49.1478H127.804V19.8852Z" fill="#E6E6E6"/>
    <path d="M130.532 19.8852H104.572V49.1478H130.532V19.8852Z" fill="#F0F0F0"/>
    <path d="M128.356 46.8399V22.193H106.748V46.8399H128.356Z" fill="#FAFAFA"/>
    <path d="M117.548 28.2794L111.639 39.1361H123.458L117.548 28.2794Z" fill="#F0F0F0"/>
    <path d="M191.622 309.618C273.699 309.618 340.236 305.499 340.236 300.419C340.236 295.339 273.699 291.22 191.622 291.22C109.544 291.22 43.0075 295.339 43.0075 300.419C43.0075 305.499 109.544 309.618 191.622 309.618Z" fill="#F5F5F5"/>
    <path d="M321.771 80.6691H246.578C242.612 80.6691 239.396 84.0782 239.396 88.2834V109.964C239.396 114.169 242.612 117.578 246.578 117.578H321.771C325.737 117.578 328.953 114.169 328.953 109.964V88.2834C328.953 84.0782 325.737 80.6691 321.771 80.6691Z" fill="#FFC100"/>
    <path d="M306.855 86.8937H248.119C247.425 86.8937 246.862 87.4903 246.862 88.2264V89.6891C246.862 90.4251 247.425 91.0218 248.119 91.0218H306.855C307.549 91.0218 308.112 90.4251 308.112 89.6891V88.2264C308.112 87.4903 307.549 86.8937 306.855 86.8937Z" fill="#FFC100"/>
    <path d="M288.252 96.8403H248.119C247.425 96.8403 246.862 97.437 246.862 98.173V99.6358C246.862 100.372 247.425 100.968 248.119 100.968H288.252C288.947 100.968 289.509 100.372 289.509 99.6358V98.173C289.509 97.437 288.947 96.8403 288.252 96.8403Z" fill="#FFC100"/>
    <path d="M277.491 106.787H248.119C247.425 106.787 246.862 107.384 246.862 108.12V109.582C246.862 110.318 247.425 110.915 248.119 110.915H277.491C278.185 110.915 278.748 110.318 278.748 109.582V108.12C278.748 107.384 278.185 106.787 277.491 106.787Z" fill="#FFC100"/>
    <path d="M313.892 106.787H284.52C283.826 106.787 283.263 107.384 283.263 108.12V109.582C283.263 110.318 283.826 110.915 284.52 110.915H313.892C314.586 110.915 315.149 110.318 315.149 109.582V108.12C315.149 107.384 314.586 106.787 313.892 106.787Z" fill="#FFC100"/>
    <g opacity="0.5">
        <path opacity="0.5" d="M306.856 86.8937H248.12C247.426 86.8937 246.863 87.4903 246.863 88.2264V89.6891C246.863 90.4251 247.426 91.0218 248.12 91.0218H306.856C307.55 91.0218 308.113 90.4251 308.113 89.6891V88.2264C308.113 87.4903 307.55 86.8937 306.856 86.8937Z" fill="white"/>
        <path opacity="0.5" d="M288.253 96.8403H248.119C247.425 96.8403 246.862 97.4369 246.862 98.173V99.6357C246.862 100.372 247.425 100.968 248.119 100.968H288.253C288.947 100.968 289.51 100.372 289.51 99.6357V98.173C289.51 97.4369 288.947 96.8403 288.253 96.8403Z" fill="white"/>
        <path opacity="0.5" d="M277.491 106.787H248.119C247.425 106.787 246.862 107.383 246.862 108.119V109.582C246.862 110.318 247.425 110.915 248.119 110.915H277.491C278.185 110.915 278.748 110.318 278.748 109.582V108.119C278.748 107.383 278.185 106.787 277.491 106.787Z" fill="white"/>
        <path opacity="0.5" d="M313.891 106.787H284.52C283.825 106.787 283.263 107.383 283.263 108.119V109.582C283.263 110.318 283.825 110.915 284.52 110.915H313.891C314.586 110.915 315.148 110.318 315.148 109.582V108.119C315.148 107.383 314.586 106.787 313.891 106.787Z" fill="white"/>
    </g>
    <path d="M261.54 72.0635H176.192C170.376 72.0635 165.661 77.0625 165.661 83.229V115.019C165.661 121.185 170.376 126.184 176.192 126.184H261.54C267.357 126.184 272.072 121.185 272.072 115.019V83.229C272.072 77.0625 267.357 72.0635 261.54 72.0635Z" fill="#FFC100"/>
    <path d="M264.56 81.1892H178.453C177.433 81.1892 176.606 82.066 176.606 83.1476V85.2848C176.606 86.3664 177.433 87.2433 178.453 87.2433H264.56C265.581 87.2433 266.408 86.3664 266.408 85.2848V83.1476C266.408 82.066 265.581 81.1892 264.56 81.1892Z" fill="#FFC100"/>
    <path d="M237.281 95.7758H178.453C177.433 95.7758 176.606 96.6526 176.606 97.7342V99.8714C176.606 100.953 177.433 101.83 178.453 101.83H237.281C238.301 101.83 239.128 100.953 239.128 99.8714V97.7342C239.128 96.6526 238.301 95.7758 237.281 95.7758Z" fill="#FFC100"/>
    <path d="M221.507 110.362H178.453C177.433 110.362 176.606 111.239 176.606 112.321V114.458C176.606 115.54 177.433 116.416 178.453 116.416H221.507C222.527 116.416 223.354 115.54 223.354 114.458V112.321C223.354 111.239 222.527 110.362 221.507 110.362Z" fill="#FFC100"/>
    <path d="M267.695 110.362H231.824C230.804 110.362 229.977 111.239 229.977 112.321V114.458C229.977 115.54 230.804 116.416 231.824 116.416H267.695C268.716 116.416 269.543 115.54 269.543 114.458V112.321C269.543 111.239 268.716 110.362 267.695 110.362Z" fill="#FFC100"/>
    <g opacity="0.5">
        <path opacity="0.5" d="M264.56 81.1892H178.453C177.433 81.1892 176.606 82.066 176.606 83.1476V85.2848C176.606 86.3664 177.433 87.2433 178.453 87.2433H264.56C265.581 87.2433 266.408 86.3664 266.408 85.2848V83.1476C266.408 82.066 265.581 81.1892 264.56 81.1892Z" fill="white"/>
        <path opacity="0.5" d="M237.281 95.7758H178.453C177.433 95.7758 176.606 96.6526 176.606 97.7342V99.8714C176.606 100.953 177.433 101.83 178.453 101.83H237.281C238.301 101.83 239.128 100.953 239.128 99.8714V97.7342C239.128 96.6526 238.301 95.7758 237.281 95.7758Z" fill="white"/>
        <path opacity="0.5" d="M221.507 110.362H178.453C177.433 110.362 176.606 111.239 176.606 112.321V114.458C176.606 115.54 177.433 116.416 178.453 116.416H221.507C222.527 116.416 223.354 115.54 223.354 114.458V112.321C223.354 111.239 222.527 110.362 221.507 110.362Z" fill="white"/>
        <path opacity="0.5" d="M267.695 110.362H231.824C230.803 110.362 229.976 111.239 229.976 112.321V114.458C229.976 115.54 230.803 116.416 231.824 116.416H267.695C268.715 116.416 269.542 115.54 269.542 114.458V112.321C269.542 111.239 268.715 110.362 267.695 110.362Z" fill="white"/>
    </g>
    <path d="M208.477 135.993H167.37C164.652 135.993 162.449 138.328 162.449 141.21V206.496C162.449 209.377 164.652 211.713 167.37 211.713H208.477C211.194 211.713 213.397 209.377 213.397 206.496V141.21C213.397 138.328 211.194 135.993 208.477 135.993Z" fill="#FFC100"/>
    <path opacity="0.4" d="M208.477 135.993H167.37C164.652 135.993 162.449 138.328 162.449 141.21V206.496C162.449 209.377 164.652 211.713 167.37 211.713H208.477C211.194 211.713 213.397 209.377 213.397 206.496V141.21C213.397 138.328 211.194 135.993 208.477 135.993Z" fill="black"/>
    <path d="M206.591 143.891H169.248C168.748 143.891 168.343 144.321 168.343 144.85V146.289C168.343 146.818 168.748 147.247 169.248 147.247H206.591C207.09 147.247 207.495 146.818 207.495 146.289V144.85C207.495 144.321 207.09 143.891 206.591 143.891Z" fill="#FAFAFA"/>
    <path d="M194.703 151.969H169.248C168.748 151.969 168.343 152.398 168.343 152.928V154.366C168.343 154.896 168.748 155.325 169.248 155.325H194.703C195.202 155.325 195.607 154.896 195.607 154.366V152.928C195.607 152.398 195.202 151.969 194.703 151.969Z" fill="#FAFAFA"/>
    <path d="M206.591 160.055H169.248C168.748 160.055 168.343 160.484 168.343 161.013V162.452C168.343 162.981 168.748 163.411 169.248 163.411H206.591C207.09 163.411 207.495 162.981 207.495 162.452V161.013C207.495 160.484 207.09 160.055 206.591 160.055Z" fill="#FAFAFA"/>
    <path d="M183.129 168.132H169.248C168.748 168.132 168.343 168.561 168.343 169.091V170.529C168.343 171.059 168.748 171.488 169.248 171.488H183.129C183.628 171.488 184.033 171.059 184.033 170.529V169.091C184.033 168.561 183.628 168.132 183.129 168.132Z" fill="#FAFAFA"/>
    <path d="M202.552 168.132H188.67C188.171 168.132 187.766 168.561 187.766 169.091V170.529C187.766 171.059 188.171 171.488 188.67 171.488H202.552C203.051 171.488 203.456 171.059 203.456 170.529V169.091C203.456 168.561 203.051 168.132 202.552 168.132Z" fill="#FAFAFA"/>
    <path d="M206.591 176.218H169.248C168.748 176.218 168.343 176.647 168.343 177.176V178.615C168.343 179.144 168.748 179.574 169.248 179.574H206.591C207.09 179.574 207.495 179.144 207.495 178.615V177.176C207.495 176.647 207.09 176.218 206.591 176.218Z" fill="#FAFAFA"/>
    <path d="M206.591 184.295H169.248C168.748 184.295 168.343 184.725 168.343 185.254V186.693C168.343 187.222 168.748 187.651 169.248 187.651H206.591C207.09 187.651 207.495 187.222 207.495 186.693V185.254C207.495 184.725 207.09 184.295 206.591 184.295Z" fill="#FAFAFA"/>
    <path d="M199.968 192.381H169.248C168.748 192.381 168.343 192.81 168.343 193.34V194.778C168.343 195.307 168.748 195.737 169.248 195.737H199.968C200.468 195.737 200.873 195.307 200.873 194.778V193.34C200.873 192.81 200.468 192.381 199.968 192.381Z" fill="#FAFAFA"/>
    <path d="M183.581 200.458H169.248C168.748 200.458 168.343 200.887 168.343 201.417V202.855C168.343 203.385 168.748 203.814 169.248 203.814H183.581C184.08 203.814 184.485 203.385 184.485 202.855V201.417C184.485 200.887 184.08 200.458 183.581 200.458Z" fill="#FAFAFA"/>
    <path d="M219.598 135.529H162.579L187.789 156.796L226.443 172.236V142.77C226.439 140.848 225.716 139.006 224.433 137.649C223.15 136.292 221.411 135.529 219.598 135.529Z" fill="#FFC100"/>
    <path opacity="0.4" d="M219.598 135.529H162.579L187.789 156.796L226.443 172.236V142.77C226.439 140.848 225.716 139.006 224.433 137.649C223.15 136.292 221.411 135.529 219.598 135.529Z" fill="black"/>
    <path d="M217.107 146.484H175.387C174.761 146.484 174.253 147.022 174.253 147.686V149.929C174.253 150.593 174.761 151.132 175.387 151.132H217.107C217.734 151.132 218.242 150.593 218.242 149.929V147.686C218.242 147.022 217.734 146.484 217.107 146.484Z" fill="#FAFAFA"/>
    <path d="M318.207 193.096V150.579C318.207 147.321 315.715 144.679 312.642 144.679H243.007C239.933 144.679 237.442 147.321 237.442 150.579V193.096C237.442 196.354 239.933 198.995 243.007 198.995H312.642C315.715 198.995 318.207 196.354 318.207 193.096Z" fill="#FFC100"/>
    <path d="M330.923 179.622V137.106C330.923 133.848 328.431 131.206 325.358 131.206H255.723C252.649 131.206 250.158 133.848 250.158 137.106V179.622C250.158 182.881 252.649 185.522 255.723 185.522H325.358C328.431 185.522 330.923 182.881 330.923 179.622Z" fill="#FFC100"/>
    <path opacity="0.5" d="M330.923 179.622V137.106C330.923 133.848 328.431 131.206 325.358 131.206H255.723C252.649 131.206 250.158 133.848 250.158 137.106V179.622C250.158 182.881 252.649 185.522 255.723 185.522H325.358C328.431 185.522 330.923 182.881 330.923 179.622Z" fill="white"/>
    <path d="M323.856 165.052V138.877C323.856 137.428 322.747 136.253 321.38 136.253H298.623C297.256 136.253 296.147 137.428 296.147 138.877V165.052C296.147 166.502 297.256 167.677 298.623 167.677H321.38C322.747 167.677 323.856 166.502 323.856 165.052Z" fill="#FFC100"/>
    <path opacity="0.7" d="M323.856 165.052V138.877C323.856 137.428 322.747 136.253 321.38 136.253H298.623C297.256 136.253 296.147 137.428 296.147 138.877V165.052C296.147 166.502 297.256 167.677 298.623 167.677H321.38C322.747 167.677 323.856 166.502 323.856 165.052Z" fill="white"/>
    <path d="M291.809 177.713V157.657C291.809 156.544 290.958 155.642 289.908 155.642H272.471C271.421 155.642 270.57 156.544 270.57 157.657V177.713C270.57 178.826 271.421 179.728 272.471 179.728H289.908C290.958 179.728 291.809 178.826 291.809 177.713Z" fill="#FFC100"/>
    <path opacity="0.3" d="M291.809 177.713V157.657C291.809 156.544 290.958 155.642 289.908 155.642H272.471C271.421 155.642 270.57 156.544 270.57 157.657V177.713C270.57 178.826 271.421 179.728 272.471 179.728H289.908C290.958 179.728 291.809 178.826 291.809 177.713Z" fill="white"/>
    <path d="M281.186 50.5533V39.721C281.186 36.4089 278.653 33.7239 275.529 33.7239L88.4065 33.7239C85.2824 33.7239 82.7498 36.4089 82.7498 39.721V50.5533C82.7498 53.8654 85.2824 56.5505 88.4065 56.5505L275.529 56.5505C278.653 56.5505 281.186 53.8654 281.186 50.5533Z" fill="#FFC100"/>
    <path opacity="0.5" d="M281.186 50.5533V39.721C281.186 36.4089 278.653 33.7239 275.529 33.7239L88.4065 33.7239C85.2824 33.7239 82.7498 36.4089 82.7498 39.721V50.5533C82.7498 53.8654 85.2824 56.5505 88.4065 56.5505L275.529 56.5505C278.653 56.5505 281.186 53.8654 281.186 50.5533Z" fill="white"/>
    <path d="M245.781 60.3699V52.5118H191.936V60.3699H245.781Z" fill="#FFC100"/>
    <path opacity="0.5" d="M245.781 60.3699V52.5118H191.936V60.3699H245.781Z" fill="white"/>
    <path d="M300.493 16.8294V5.99717C300.493 2.68503 297.961 0 294.836 0L107.714 0C104.59 0 102.057 2.68503 102.057 5.99717V16.8294C102.057 20.1416 104.59 22.8266 107.714 22.8266L294.836 22.8266C297.961 22.8266 300.493 20.1416 300.493 16.8294Z" fill="#FFC100"/>
    <path d="M99.9192 120.032C99.2447 121.658 98.5012 123.413 97.8497 125.127C97.1982 126.842 96.5236 128.605 95.9335 130.361C94.7225 133.783 93.7515 137.295 93.0285 140.868L92.8062 142.168L92.7295 142.656C92.7295 142.794 92.7295 142.973 92.6835 143.135C92.6544 143.926 92.6698 144.719 92.7295 145.508C92.8752 147.223 93.1358 149.059 93.496 150.896C94.1399 154.577 94.96 158.372 95.7955 162.11L91.8634 163.735C90.0304 160.193 88.4694 156.5 87.1955 152.692C86.5243 150.71 85.9814 148.682 85.5705 146.621C85.3403 145.481 85.1968 144.324 85.1413 143.16C85.1413 142.835 85.1413 142.526 85.1413 142.176C85.1413 141.827 85.1413 141.437 85.195 141.209L85.3482 139.584C85.5773 137.491 85.928 135.415 86.3983 133.367C86.8276 131.336 87.3794 129.361 87.9313 127.411C88.4832 125.461 89.173 123.543 89.9012 121.658C90.2614 120.715 90.6677 119.78 91.0203 118.846C91.3728 117.911 91.7867 117.017 92.2773 116.018L99.9192 120.032Z" fill="#E4897B"/>
    <path d="M95.5884 161.013L98.5777 164.109L92.0549 167.36C92.0549 167.36 90.4759 164.426 91.572 161.777L95.5884 161.013Z" fill="#E4897B"/>
    <path d="M100.992 168.717L95.4812 171.106L92.0627 167.327L98.5778 164.109L100.992 168.717Z" fill="#E4897B"/>
    <path opacity="0.4" d="M212.631 165.385C201.786 164.094 191.545 159.423 183.204 151.962C174.862 144.502 168.794 134.587 165.767 123.471C162.74 112.355 162.89 100.537 166.197 89.5107C169.504 78.4847 175.82 68.7457 184.347 61.525C192.874 54.3042 203.229 49.926 214.103 48.9437C224.977 47.9613 235.881 50.4191 245.438 56.0062C254.994 61.5933 262.774 70.0589 267.793 80.3328C272.812 90.6066 274.845 102.228 273.636 113.726C272.832 121.366 270.616 128.763 267.115 135.495C263.614 142.226 258.895 148.16 253.23 152.958C247.565 157.755 241.063 161.322 234.097 163.454C227.131 165.587 219.836 166.243 212.631 165.385Z" fill="#FAFAFA"/>
    <path opacity="0.4" d="M252.78 61.1417L168.849 132.238C168.497 131.426 168.152 130.613 167.83 129.8C165.726 124.494 164.38 118.885 163.836 113.158L236.331 51.7478C242.283 53.8526 247.847 57.0306 252.78 61.1417Z" fill="#FAFAFA"/>
    <path opacity="0.4" d="M272.149 92.2895L193.239 159.128C185.742 154.985 179.246 149.068 174.253 141.835L260.414 68.8453C265.968 75.6038 269.982 83.6249 272.149 92.2895Z" fill="#FAFAFA"/>
    <path d="M156.662 84.8787L155.934 84.6187C157.195 80.6734 158.78 76.853 160.671 73.2013L161.338 73.5914C159.472 77.2022 157.907 80.979 156.662 84.8787ZM165.967 65.9121L165.346 65.4326C171.646 56.4027 179.89 49.1001 189.391 44.1338L189.736 44.8651C180.342 49.7802 172.193 57.0047 165.967 65.9365V65.9121ZM249.967 45.9784C247.462 44.5541 244.871 43.308 242.21 42.2485L242.486 41.4846C245.173 42.569 247.789 43.8395 250.319 45.2877L249.967 45.9784Z" fill="#FFC100"/>
    <path opacity="0.3" d="M156.662 84.8787L155.934 84.6187C157.195 80.6734 158.78 76.853 160.671 73.2013L161.338 73.5914C159.472 77.2022 157.907 80.979 156.662 84.8787ZM165.967 65.9121L165.346 65.4326C171.646 56.4027 179.89 49.1001 189.391 44.1338L189.736 44.8651C180.342 49.7802 172.193 57.0047 165.967 65.9365V65.9121ZM249.967 45.9784C247.462 44.5541 244.871 43.308 242.21 42.2485L242.486 41.4846C245.173 42.569 247.789 43.8395 250.319 45.2877L249.967 45.9784Z" fill="black"/>
    <path d="M275.835 77.3536C268.738 61.7474 256.248 49.6353 240.955 43.5282C225.662 37.4211 208.739 37.7874 193.694 44.5511C178.649 51.3149 166.636 63.9574 160.145 79.8577C153.654 95.758 153.184 113.697 158.831 129.955C153.711 131.856 148.652 133.896 143.624 136.001C136.373 139.051 129.189 142.236 122.07 145.557C114.958 148.897 107.875 152.302 100.862 155.861C97.3436 157.608 93.8715 159.453 90.3686 161.241C88.5464 162.071 86.8954 163.272 85.5091 164.776C84.7589 165.608 84.0983 166.527 83.5392 167.514C82.8571 168.682 82.3406 169.95 82.0063 171.277C81.4295 173.668 81.6789 176.199 82.7094 178.413C83.7399 180.626 85.4834 182.375 87.6246 183.344C88.8136 183.873 90.0682 184.218 91.3497 184.368C92.4321 184.498 93.5249 184.498 94.6073 184.368C96.5743 184.115 98.4753 183.455 100.203 182.426C103.675 180.565 107.17 178.769 110.619 176.859C117.518 173.129 124.416 169.237 131.23 165.288C138.044 161.338 144.866 157.202 151.519 152.96C156.118 150.01 160.763 146.995 165.316 143.842C174.058 158.475 187.776 168.981 203.626 173.183C219.476 177.385 236.243 174.961 250.453 166.413C264.663 157.866 275.227 143.85 279.955 127.269C284.683 110.689 283.214 92.8162 275.851 77.3536H275.835ZM240.991 154.984C232.083 159.645 222.072 161.401 212.223 160.031C202.374 158.66 193.129 154.224 185.658 147.284C178.186 140.343 172.824 131.21 170.249 121.038C167.673 110.867 168.001 100.114 171.189 90.1399C174.378 80.1656 180.284 71.4176 188.162 65.0021C196.04 58.5866 205.535 54.7917 215.447 54.0972C225.359 53.4027 235.243 55.8398 243.848 61.1004C252.454 66.361 259.395 74.2088 263.794 83.6514C266.715 89.9224 268.443 96.7421 268.878 103.721C269.313 110.7 268.447 117.701 266.329 124.325C264.212 130.949 260.884 137.066 256.537 142.327C252.189 147.587 246.906 151.888 240.991 154.984Z" fill="#FFC100"/>
    <path opacity="0.3" d="M275.835 77.3536C268.738 61.7474 256.248 49.6353 240.955 43.5282C225.662 37.4211 208.739 37.7874 193.694 44.5511C178.649 51.3149 166.636 63.9574 160.145 79.8577C153.654 95.758 153.184 113.697 158.831 129.955C153.711 131.856 148.652 133.896 143.624 136.001C136.373 139.051 129.189 142.236 122.07 145.557C114.958 148.897 107.875 152.302 100.862 155.861C97.3436 157.608 93.8715 159.453 90.3686 161.241C88.5464 162.071 86.8954 163.272 85.5091 164.776C84.7589 165.608 84.0983 166.527 83.5392 167.514C82.8571 168.682 82.3406 169.95 82.0063 171.277C81.4295 173.668 81.6789 176.199 82.7094 178.413C83.7399 180.626 85.4834 182.375 87.6246 183.344C88.8136 183.873 90.0682 184.218 91.3497 184.368C92.4321 184.498 93.5249 184.498 94.6073 184.368C96.5743 184.115 98.4753 183.455 100.203 182.426C103.675 180.565 107.17 178.769 110.619 176.859C117.518 173.129 124.416 169.237 131.23 165.288C138.044 161.338 144.866 157.202 151.519 152.96C156.118 150.01 160.763 146.995 165.316 143.842C174.058 158.475 187.776 168.981 203.626 173.183C219.476 177.385 236.243 174.961 250.453 166.413C264.663 157.866 275.227 143.85 279.955 127.269C284.683 110.689 283.214 92.8162 275.851 77.3536H275.835ZM240.991 154.984C232.083 159.645 222.072 161.401 212.223 160.031C202.374 158.66 193.129 154.224 185.658 147.284C178.186 140.343 172.824 131.21 170.249 121.038C167.673 110.867 168.001 100.114 171.189 90.1399C174.378 80.1656 180.284 71.4176 188.162 65.0021C196.04 58.5866 205.535 54.7917 215.447 54.0972C225.359 53.4027 235.243 55.8398 243.848 61.1004C252.454 66.361 259.395 74.2088 263.794 83.6514C266.715 89.9224 268.443 96.7421 268.878 103.721C269.313 110.7 268.447 117.701 266.329 124.325C264.212 130.949 260.884 137.066 256.537 142.327C252.189 147.587 246.906 151.888 240.991 154.984Z" fill="black"/>
    <path d="M121.105 91.0136C121.105 91.493 121.342 91.8831 121.641 91.8831C121.94 91.8831 122.178 91.493 122.178 91.0136C122.178 90.5341 121.94 90.144 121.641 90.144C121.342 90.144 121.105 90.5666 121.105 91.0136Z" fill="#263238"/>
    <path d="M121.319 91.8833C121.862 93.355 122.592 94.7412 123.489 96.0033C123.179 96.2385 122.824 96.3989 122.449 96.4733C122.074 96.5477 121.689 96.5343 121.319 96.434V91.8833Z" fill="#DE5753"/>
    <path d="M119.518 88.34C119.475 88.34 119.433 88.3298 119.395 88.3101C119.356 88.2904 119.322 88.2617 119.296 88.2262C119.256 88.1642 119.24 88.0883 119.251 88.0141C119.263 87.94 119.301 87.8734 119.357 87.828C119.695 87.5566 120.089 87.3757 120.507 87.3007C120.925 87.2257 121.353 87.2589 121.756 87.3973C121.792 87.4078 121.826 87.4262 121.855 87.4513C121.884 87.4764 121.908 87.5078 121.925 87.5433C121.942 87.5787 121.952 87.6176 121.954 87.6573C121.956 87.697 121.95 87.7367 121.936 87.7739C121.923 87.811 121.902 87.8447 121.876 87.8728C121.849 87.901 121.817 87.9229 121.782 87.9372C121.747 87.9515 121.71 87.9578 121.672 87.9558C121.635 87.9538 121.598 87.9435 121.565 87.9256C121.245 87.8215 120.905 87.8003 120.576 87.864C120.247 87.9276 119.936 88.0741 119.671 88.2912C119.626 88.3232 119.573 88.3402 119.518 88.34Z" fill="#263238"/>
    <path d="M105.622 94.6298C106.388 98.9936 107.231 106.998 104.349 109.915C104.349 109.915 105.476 114.344 113.133 114.344C121.565 114.344 117.15 109.915 117.15 109.915C112.551 108.745 112.681 105.137 113.478 101.74L105.622 94.6298Z" fill="#E4897B"/>
    <path d="M100.908 112.215C101.82 110.712 100.287 107.063 100.287 107.063C100.287 107.063 113.839 103.447 119.38 108.997C120.53 110.143 119.258 111.833 119.258 111.833L100.908 112.215Z" fill="#FFC100"/>
    <path opacity="0.1" d="M100.908 112.215C101.82 110.712 100.287 107.063 100.287 107.063C100.287 107.063 113.839 103.447 119.38 108.997C120.53 110.143 119.258 111.833 119.258 111.833L100.908 112.215Z" fill="black"/>
    <path d="M78.4881 278.015C77.7753 278.015 76.6333 276.755 76.296 276.284C76.2815 276.261 76.2738 276.234 76.2738 276.207C76.2738 276.179 76.2815 276.152 76.296 276.13C76.3084 276.107 76.3263 276.088 76.3479 276.075C76.3695 276.062 76.3939 276.056 76.4187 276.056C76.503 276.056 78.3808 276.235 78.8943 276.942C78.9502 277.017 78.99 277.103 79.0112 277.196C79.0324 277.289 79.0343 277.385 79.0169 277.479C79.0103 277.6 78.9684 277.715 78.897 277.81C78.8256 277.905 78.7282 277.973 78.6184 278.007L78.4881 278.015ZM76.7099 276.39C77.2694 277.072 78.1662 277.844 78.5494 277.747C78.5494 277.747 78.7027 277.706 78.7487 277.446C78.7588 277.392 78.7571 277.336 78.7438 277.282C78.7306 277.229 78.706 277.179 78.672 277.137C78.1043 276.681 77.4211 276.415 76.7099 276.373V276.39Z" fill="#FFC100"/>
    <path d="M76.7941 276.373C76.6565 276.388 76.5178 276.388 76.3802 276.373C76.356 276.371 76.3329 276.361 76.3138 276.346C76.2947 276.33 76.2805 276.308 76.2729 276.284C76.2621 276.261 76.2565 276.236 76.2565 276.21C76.2565 276.185 76.2621 276.16 76.2729 276.137C76.3266 276.089 77.4533 274.845 78.3041 274.845C78.4059 274.843 78.507 274.863 78.6008 274.905C78.6947 274.947 78.779 275.01 78.8483 275.089C78.9246 275.157 78.9768 275.25 78.9963 275.353C79.0158 275.457 79.0015 275.564 78.9556 275.658C78.7333 276.113 77.5606 276.373 76.7941 276.373ZM76.6945 276.089C77.461 276.089 78.5724 275.837 78.7563 275.479C78.7563 275.479 78.81 275.373 78.6873 275.243C78.6427 275.192 78.588 275.152 78.5271 275.125C78.4662 275.098 78.4006 275.086 78.3347 275.089C77.7064 275.242 77.1354 275.59 76.6945 276.089Z" fill="#FFC100"/>
    <path d="M129.069 296.461C128.488 296.457 127.908 296.4 127.336 296.291C127.308 296.285 127.282 296.269 127.264 296.245C127.246 296.221 127.236 296.191 127.237 296.161C127.232 296.133 127.236 296.104 127.247 296.078C127.258 296.052 127.276 296.03 127.298 296.014C127.382 295.966 129.345 294.771 130.287 295.047C130.375 295.068 130.457 295.108 130.53 295.164C130.602 295.22 130.663 295.291 130.709 295.372C130.769 295.463 130.801 295.571 130.801 295.681C130.801 295.792 130.769 295.9 130.709 295.99C130.487 296.356 129.789 296.461 129.069 296.461ZM127.773 296.079C128.816 296.242 130.241 296.234 130.502 295.844C130.54 295.795 130.571 295.706 130.502 295.535C130.443 295.434 130.35 295.361 130.241 295.332C129.643 295.169 128.455 295.706 127.773 296.079Z" fill="#FFC100"/>
    <path d="M127.367 296.299C127.342 296.306 127.315 296.306 127.29 296.299C127.269 296.284 127.253 296.263 127.243 296.239C127.233 296.214 127.231 296.187 127.237 296.161C127.289 295.315 127.595 294.509 128.111 293.861C128.215 293.765 128.337 293.695 128.47 293.654C128.602 293.614 128.741 293.604 128.877 293.625C129.245 293.625 129.352 293.861 129.375 294.015C129.475 294.69 128.134 295.982 127.451 296.307L127.367 296.299ZM128.739 293.861C128.57 293.859 128.407 293.923 128.279 294.04C127.846 294.553 127.577 295.199 127.513 295.884C128.203 295.437 129.122 294.43 129.046 294.023C129.046 294.023 129.046 293.885 128.785 293.861H128.739Z" fill="#FFC100"/>
    <path d="M121.174 296.152H126.807L127.367 282.329H121.733L121.174 296.152Z" fill="#E4897B"/>
    <path d="M71.0073 272.424L75.7135 275.691L86.1071 266.386L81.3932 263.111L71.0073 272.424Z" fill="#E4897B"/>
    <path d="M76.4875 275.382L71.5974 271.132C71.511 271.057 71.4026 271.016 71.2908 271.016C71.1789 271.016 71.0706 271.057 70.9842 271.132L66.9525 274.488C66.8551 274.57 66.7764 274.675 66.7223 274.794C66.6683 274.913 66.6402 275.043 66.6402 275.175C66.6402 275.307 66.6683 275.437 66.7223 275.556C66.7764 275.675 66.8551 275.779 66.9525 275.862C68.6847 277.316 69.5968 277.934 71.7507 279.803C73.0767 280.949 76.3496 284.459 78.1968 286.044C80.044 287.628 81.7379 285.922 81.1247 285.101C78.3731 281.404 77.2923 278.243 76.9781 276.284C76.9238 275.93 76.7493 275.609 76.4875 275.382Z" fill="#263238"/>
    <path d="M126.769 295.462H120.637C120.525 295.462 120.417 295.502 120.329 295.576C120.242 295.65 120.18 295.753 120.154 295.868L119.043 301.174C119.015 301.303 119.015 301.437 119.043 301.565C119.071 301.694 119.126 301.814 119.205 301.916C119.283 302.019 119.382 302.101 119.495 302.157C119.608 302.213 119.731 302.241 119.855 302.239C122.071 302.198 125.274 302.06 128.064 302.06C131.322 302.06 134.143 302.247 137.96 302.247C140.259 302.247 140.919 299.768 139.945 299.549C135.545 298.525 131.943 298.419 128.141 295.925C127.733 295.638 127.258 295.478 126.769 295.462Z" fill="#263238"/>
    <path d="M93.2506 111.695C88.3681 114.133 85.5858 130.466 85.5858 130.466L97.5199 135.513C99.2668 130.991 100.679 126.331 101.743 121.576C103.384 114.051 98.2481 109.176 93.2506 111.695Z" fill="#263238"/>
    <path d="M99.5819 120.902C96.6309 124.071 95.2819 130.28 94.6917 134.318L97.5507 135.529C99.2479 131.135 100.632 126.613 101.69 121.999C101.437 120.276 100.808 119.586 99.5819 120.902Z" fill="#203048"/>
    <path d="M125.811 111.581C125.811 111.581 131.805 118.764 126.148 163.183H96.033C95.8261 158.307 98.731 134.375 94.2701 111.28C97.5982 110.596 100.965 110.145 104.349 109.931C108.612 109.663 112.887 109.663 117.15 109.931C120.073 110.243 122.968 110.795 125.811 111.581Z" fill="#263238"/>
    <path d="M128.563 128.825L123.488 119.553C122.509 123.879 122.109 128.33 122.3 132.775C122.438 135.96 125.19 147.759 127.666 149.482C128.323 142.619 128.622 135.723 128.563 128.825Z" fill="#203048"/>
    <path d="M129.268 117.928C130.034 121.877 130.801 125.924 131.621 129.889C132.441 133.855 133.292 137.837 134.281 141.681C134.534 142.631 134.771 143.606 135.047 144.517L135.254 145.215L135.354 145.565V145.524C135.3 145.451 135.239 145.443 135.285 145.524C135.6 145.889 136.003 146.156 136.45 146.296C137.174 146.582 137.921 146.802 138.68 146.954C142.304 147.563 145.973 147.816 149.641 147.71L150.369 152.131C149.342 152.48 148.384 152.732 147.372 152.984C146.36 153.236 145.364 153.447 144.345 153.61C142.235 153.982 140.097 154.135 137.96 154.065C136.772 154.031 135.59 153.868 134.434 153.577C132.964 153.236 131.582 152.557 130.387 151.586C129.606 150.918 128.962 150.089 128.494 149.149C128.371 148.905 128.264 148.628 128.164 148.393L128.026 148.011L127.743 147.198C127.352 146.166 127.03 145.15 126.677 144.135C125.382 140.072 124.301 135.968 123.351 131.872C122.4 127.777 121.58 123.689 120.898 119.488L129.268 117.928Z" fill="#E4897B"/>
    <path d="M118.292 115.937C116.705 121.39 123.136 137.65 123.136 137.65L135.944 134.237C135.944 134.237 135.453 125.786 132.533 119.082C128.133 108.973 120.193 109.395 118.292 115.937Z" fill="#263238"/>
    <path d="M149.534 147.711L155.911 147.54L152.845 154.577C152.845 154.577 150.246 154.943 148.116 151.229L145.87 148.385L148.453 147.841C148.808 147.761 149.17 147.718 149.534 147.711Z" fill="#E4897B"/>
    <path d="M159.935 148.848L156.287 154.683L152.845 154.577L155.911 147.54L159.935 148.848Z" fill="#E4897B"/>
    <path d="M127.367 282.329L127.076 289.456H121.442L121.733 282.329H127.367Z" fill="#CE6F64"/>
    <path d="M81.3932 263.111L86.1071 266.386L80.7417 271.18L76.0354 267.914L81.3932 263.111Z" fill="#CE6F64"/>
    <path d="M105.974 89.9816C106.312 95.8894 106.227 99.3755 109.04 102.407C113.271 106.982 120.162 104.276 121.496 98.3435C122.699 93.0289 121.948 84.2526 116.491 81.896C115.286 81.3807 113.978 81.1982 112.69 81.3656C111.401 81.533 110.173 82.0449 109.122 82.8531C108.071 83.6614 107.23 84.7395 106.68 85.9864C106.129 87.2333 105.886 88.608 105.974 89.9816Z" fill="#E4897B"/>
    <path d="M99.4132 88.9415C100.8 94.3292 104.066 100.538 108.289 100.936C113.532 101.423 115.9 95.6782 116.59 89.746C119.733 87.4626 118.085 84.9515 121.235 84.6346C125.282 84.2283 123.987 76.3784 118.66 75.1188C118.66 75.1188 120.446 78.6537 116.697 76.8659C113.133 75.0699 109.173 74.3421 105.246 74.7612C105.246 74.7612 110.029 77.2966 105.353 78.4262C100.678 79.5557 99.2828 82.6112 101.437 84.4558C101.437 84.464 98.501 85.3985 99.4132 88.9415Z" fill="#263238"/>
    <path d="M113.394 90.9648C113.497 92.4333 114.055 93.8246 114.981 94.9223C116.207 96.3606 117.487 95.4667 117.702 93.7196C117.901 92.1512 117.495 89.5102 115.992 88.7139C114.49 87.9175 113.294 89.1933 113.394 90.9648Z" fill="#E4897B"/>
    <path d="M115.463 163.183C115.463 163.183 120.951 205.317 116.629 222.204C109.776 248.939 83.5776 271.506 83.5776 271.506L74.694 265.33C74.694 265.33 97.0064 246.274 99.7351 223.886C102.188 203.79 96.033 179.484 96.033 163.175L115.463 163.183Z" fill="#FFC100"/>
    <path opacity="0.1" d="M115.463 163.183C115.463 163.183 120.951 205.317 116.629 222.204C109.776 248.939 83.5776 271.506 83.5776 271.506L74.694 265.33C74.694 265.33 97.0064 246.274 99.7351 223.886C102.188 203.79 96.033 179.484 96.033 163.175L115.463 163.183Z" fill="black"/>
    <path d="M117.732 187.269C116.271 185.494 114.663 183.862 112.926 182.393C113.862 196.069 114.628 216.328 113.777 230.72C114.921 227.961 115.874 225.117 116.629 222.211C118.736 213.963 118.514 199.718 117.732 187.269Z" fill="#FFC100"/>
    <path opacity="0.3" d="M117.732 187.269C116.271 185.494 114.663 183.862 112.926 182.393C113.862 196.069 114.628 216.328 113.777 230.72C114.921 227.961 115.874 225.117 116.629 222.211C118.736 213.963 118.514 199.718 117.732 187.269Z" fill="black"/>
    <path d="M87.1569 269.401C87.1952 269.401 83.7154 271.839 83.7154 271.839L74.0117 265.094L77.0776 262.404L87.1569 269.401Z" fill="#FFC100"/>
    <path opacity="0.3" d="M87.1569 269.401C87.1952 269.401 83.7154 271.839 83.7154 271.839L74.0117 265.094L77.0776 262.404L87.1569 269.401Z" fill="black"/>
    <path d="M126.148 163.183C126.148 163.183 134.626 201.295 135.224 219.506C135.898 239.919 129.176 288.075 129.176 288.075H119.633C119.633 288.075 118.46 239.545 118.039 220.952C117.571 200.677 106.35 163.183 106.35 163.183H126.148Z" fill="#FFC100"/>
    <path opacity="0.1" d="M126.148 163.183C126.148 163.183 134.626 201.295 135.224 219.506C135.898 239.919 129.176 288.075 129.176 288.075H119.633C119.633 288.075 118.46 239.545 118.039 220.952C117.571 200.677 106.35 163.183 106.35 163.183H126.148Z" fill="black"/>
    <path d="M131.008 284.052C131.054 284.052 130.471 288.245 130.471 288.245H118.867L118.552 284.499L131.008 284.052Z" fill="#FFC100"/>
    <path opacity="0.3" d="M131.008 284.052C131.054 284.052 130.471 288.245 130.471 288.245H118.867L118.552 284.499L131.008 284.052Z" fill="black"/>
    <path d="M272.869 126.558C273.52 127.208 274.034 127.761 274.571 128.378C275.107 128.996 275.613 129.597 276.104 130.223C277.1 131.466 278.035 132.775 278.94 134.091C280.746 136.732 282.353 139.52 283.745 142.429L284.029 143.022C284.168 143.309 284.283 143.608 284.374 143.916C284.559 144.51 284.672 145.127 284.711 145.752C284.761 146.854 284.618 147.956 284.29 149.003C283.73 150.741 282.898 152.367 281.829 153.813C279.903 156.436 277.632 158.751 275.084 160.688L273.176 158.364C274.072 157.251 275.007 156.056 275.843 154.862C276.693 153.704 277.462 152.482 278.142 151.205C278.778 150.091 279.249 148.879 279.537 147.613C279.637 147.16 279.655 146.692 279.591 146.232C279.564 146.077 279.517 145.927 279.453 145.785C279.424 145.722 279.391 145.663 279.353 145.606L279.108 145.167C277.63 142.612 276.026 140.141 274.302 137.764C273.452 136.57 272.539 135.424 271.62 134.294C271.167 133.725 270.7 133.173 270.232 132.62C269.765 132.068 269.259 131.515 268.853 131.084L272.869 126.558Z" fill="#E4897B"/>
    <path d="M273.912 157.681L268.186 156.69L271.183 162.005C271.183 162.005 274.87 161.866 275.92 159.567L273.912 157.681Z" fill="#E4897B"/>
    <path d="M263.955 159.144L266.684 163.459L271.183 162.005L268.186 156.69L263.955 159.144Z" fill="#E4897B"/>
    <path d="M273.635 296.388C273.246 296.424 272.858 296.311 272.539 296.071C272.443 295.975 272.372 295.854 272.333 295.72C272.294 295.587 272.289 295.444 272.317 295.308C272.323 295.22 272.35 295.136 272.398 295.065C272.445 294.993 272.51 294.937 272.585 294.901C273.252 294.584 275 295.771 275.199 295.909C275.222 295.924 275.239 295.946 275.249 295.972C275.259 295.999 275.26 296.028 275.253 296.055C275.25 296.083 275.239 296.109 275.221 296.13C275.203 296.15 275.179 296.164 275.153 296.169C274.657 296.303 274.147 296.376 273.635 296.388ZM272.869 295.129C272.813 295.12 272.756 295.12 272.7 295.129C272.667 295.145 272.638 295.172 272.618 295.205C272.597 295.238 272.586 295.276 272.585 295.316C272.565 295.406 272.567 295.501 272.591 295.591C272.615 295.68 272.661 295.762 272.723 295.828C273.015 296.104 273.766 296.145 274.77 295.933C274.195 295.53 273.548 295.257 272.869 295.129Z" fill="#FFC100"/>
    <path d="M275.169 296.16H275.1C274.555 295.827 273.505 294.535 273.636 293.828C273.66 293.717 273.719 293.617 273.802 293.544C273.884 293.47 273.988 293.428 274.095 293.422C274.199 293.406 274.305 293.415 274.404 293.449C274.504 293.483 274.595 293.54 274.67 293.617C275.299 294.202 275.307 295.957 275.307 296.055C275.305 296.079 275.298 296.103 275.286 296.125C275.274 296.146 275.257 296.164 275.238 296.177L275.169 296.16ZM274.187 293.723H274.126C273.957 293.723 273.919 293.82 273.904 293.893C273.827 294.308 274.479 295.299 275.023 295.762C275.036 295.081 274.852 294.411 274.494 293.844C274.448 293.799 274.394 293.765 274.334 293.744C274.275 293.723 274.212 293.715 274.149 293.723H274.187Z" fill="#FFC100"/>
    <path d="M247.514 296.388C247.024 296.437 246.534 296.305 246.126 296.014C246.034 295.928 245.963 295.819 245.919 295.698C245.875 295.576 245.86 295.445 245.873 295.315C245.878 295.236 245.902 295.16 245.942 295.093C245.982 295.026 246.038 294.971 246.103 294.933C246.816 294.511 249.1 295.746 249.361 295.9C249.385 295.917 249.404 295.94 249.416 295.967C249.428 295.995 249.433 296.025 249.43 296.055C249.425 296.083 249.413 296.11 249.393 296.13C249.374 296.15 249.349 296.164 249.322 296.169C248.727 296.303 248.122 296.376 247.514 296.388ZM246.494 295.128C246.407 295.122 246.319 295.142 246.241 295.185C246.214 295.199 246.19 295.221 246.174 295.248C246.158 295.276 246.149 295.307 246.149 295.34C246.138 295.424 246.145 295.511 246.172 295.591C246.199 295.672 246.244 295.745 246.303 295.803C246.655 296.136 247.598 296.193 248.87 295.965C248.128 295.547 247.325 295.264 246.494 295.128Z" fill="#FFC100"/>
    <path d="M249.299 296.16H249.238C248.556 295.835 247.199 294.535 247.307 293.828C247.307 293.666 247.445 293.463 247.82 293.422C247.957 293.406 248.096 293.421 248.228 293.464C248.36 293.507 248.482 293.579 248.587 293.674C249.307 294.308 249.445 295.949 249.445 296.022C249.448 296.047 249.445 296.072 249.435 296.095C249.426 296.118 249.411 296.138 249.391 296.152C249.362 296.166 249.33 296.168 249.299 296.16ZM247.927 293.723H247.843C247.598 293.723 247.583 293.853 247.575 293.885C247.514 294.3 248.433 295.332 249.108 295.778C249.041 295.084 248.774 294.428 248.341 293.901C248.225 293.796 248.08 293.734 247.927 293.723Z" fill="#FFC100"/>
    <path d="M258.359 107.875C258.137 111.549 257.539 119.008 260.199 121.072C260.199 121.072 259.716 124.835 253.439 125.713C246.54 126.663 249.691 122.535 249.691 122.535C253.347 121.056 252.879 118.106 251.883 115.409L258.359 107.875Z" fill="#E4897B"/>
    <path d="M244.08 101.383C244.042 101.383 244.004 101.374 243.97 101.357C243.936 101.341 243.905 101.316 243.88 101.285C243.661 101.01 243.384 100.793 243.071 100.651C242.758 100.51 242.418 100.449 242.079 100.473C242.043 100.48 242.007 100.479 241.971 100.47C241.935 100.462 241.902 100.445 241.873 100.423C241.843 100.4 241.818 100.371 241.8 100.337C241.781 100.304 241.77 100.267 241.765 100.229C241.756 100.153 241.776 100.076 241.821 100.015C241.865 99.9539 241.931 99.9141 242.003 99.9039C242.435 99.8652 242.871 99.938 243.271 100.116C243.671 100.295 244.025 100.573 244.302 100.928C244.335 100.97 244.356 101.022 244.363 101.076C244.37 101.131 244.362 101.186 244.341 101.237C244.319 101.287 244.285 101.329 244.241 101.359C244.198 101.39 244.147 101.406 244.095 101.407L244.08 101.383Z" fill="#263238"/>
    <path d="M242.884 104.983C242.612 106.148 242.192 107.269 241.635 108.314C241.89 108.46 242.174 108.545 242.464 108.562C242.754 108.579 243.044 108.527 243.313 108.412L242.884 104.983Z" fill="#DE5753"/>
    <path d="M243.191 104.089C243.252 104.576 243.06 104.999 242.761 105.048C242.462 105.097 242.163 104.723 242.11 104.235C242.056 103.748 242.24 103.325 242.539 103.284C242.838 103.244 243.137 103.569 243.191 104.089Z" fill="#263238"/>
    <path d="M242.677 103.293L241.535 103.106C241.535 103.106 242.209 103.943 242.677 103.293Z" fill="#263238"/>
    <path d="M255.615 296.031H249.867L249.484 281.932H255.232L255.615 296.031Z" fill="#E4897B"/>
    <path d="M281.714 296.031H275.966L274.119 281.932H279.867L281.714 296.031Z" fill="#E4897B"/>
    <path d="M275.613 295.348H282.067C282.177 295.347 282.284 295.389 282.367 295.465C282.45 295.541 282.504 295.647 282.519 295.763L283.286 301.183C283.3 301.319 283.286 301.458 283.246 301.588C283.207 301.719 283.141 301.84 283.054 301.942C282.967 302.044 282.861 302.125 282.742 302.181C282.624 302.236 282.495 302.264 282.366 302.264C280.12 302.223 279.032 302.085 276.196 302.085C274.448 302.085 271.896 302.272 269.489 302.272C267.082 302.272 266.952 299.744 267.956 299.517C272.455 298.493 273.168 297.079 274.678 295.722C274.942 295.49 275.271 295.359 275.613 295.348Z" fill="#263238"/>
    <path d="M249.675 295.348H256.121C256.232 295.347 256.34 295.388 256.424 295.464C256.509 295.54 256.564 295.646 256.581 295.763L257.347 301.183C257.362 301.319 257.348 301.458 257.308 301.588C257.268 301.719 257.203 301.84 257.116 301.942C257.029 302.044 256.923 302.125 256.804 302.181C256.686 302.236 256.557 302.264 256.428 302.264C254.182 302.223 253.093 302.085 250.257 302.085C248.51 302.085 244.892 302.272 242.485 302.272C240.079 302.272 239.948 299.744 240.952 299.517C245.452 298.493 247.222 297.079 248.74 295.722C249.003 295.49 249.333 295.359 249.675 295.348Z" fill="#263238"/>
    <path d="M249.484 281.932L249.683 289.205H255.431L255.232 281.932H249.484Z" fill="#CE6F64"/>
    <path d="M279.867 281.932H274.119L275.077 289.205H280.818L279.867 281.932Z" fill="#CE6F64"/>
    <path d="M258.436 100.269C258.827 106.299 259.111 108.843 256.643 112.312C252.925 117.521 245.858 116.717 243.773 110.931C241.895 105.722 241.573 96.7426 246.801 93.5896C247.951 92.8909 249.25 92.5152 250.576 92.4983C251.901 92.4813 253.208 92.8237 254.374 93.4928C255.539 94.1619 256.524 95.1357 257.235 96.3216C257.946 97.5076 258.36 98.8665 258.436 100.269Z" fill="#E4897B"/>
    <path d="M261.747 105.868C264.936 107.754 267.304 103.105 267.304 103.105C267.304 103.105 261.586 103.764 262.1 100.156C262.774 95.3693 259.54 89.5509 251.43 90.2985C250.978 90.3391 250.549 90.396 250.127 90.4692C249.278 90.0425 248.318 89.9324 247.403 90.1566C246.487 90.3808 245.67 90.9262 245.084 91.7043C242.784 91.9075 239.68 94.8167 241.788 98.6604C241.936 98.2188 242.165 97.8127 242.462 97.4659C242.639 99.7168 244.494 103.292 246.808 103.528C247.307 106.608 245.375 110.175 246.042 113.393C247.031 118.033 254.412 119.082 254.412 119.082C254.157 118.502 254.063 117.858 254.139 117.224C254.215 116.59 254.458 115.992 254.841 115.498C259.854 117.936 263.158 115.555 263.158 115.555C259.739 114.206 260.774 111.801 260.774 111.801C261.954 112.356 263.292 112.405 264.505 111.937C265.719 111.468 266.714 110.52 267.281 109.29C266.146 109.347 265.019 109.054 264.037 108.447C263.055 107.84 262.26 106.944 261.747 105.868Z" fill="#263238"/>
    <path d="M248.809 104.455C248.823 105.033 248.728 105.609 248.531 106.149C248.333 106.689 248.037 107.182 247.659 107.599C246.648 108.713 245.406 107.933 245.069 106.511C244.77 105.227 244.938 103.106 246.257 102.521C246.547 102.4 246.861 102.358 247.17 102.398C247.48 102.439 247.775 102.561 248.028 102.753C248.282 102.945 248.486 103.201 248.622 103.499C248.759 103.796 248.823 104.124 248.809 104.455Z" fill="#E4897B"/>
    <path d="M253.584 160.631C253.584 160.631 255.041 200.742 258.505 224.292C261.295 243.324 273.689 287.79 273.689 287.79H281.523C281.523 287.79 275.061 244.843 273.643 226.031C270.056 178.419 279.369 168.197 270.577 158.283L253.584 160.631Z" fill="#263238"/>
    <path d="M260.13 173.316C260.13 173.316 256.589 172.666 254.519 179.817C255.286 193.364 256.596 211.339 258.505 224.292C258.927 227.177 259.57 230.655 260.36 234.466C258.865 211.583 260.13 173.316 260.13 173.316Z" fill="#161F33"/>
    <path d="M247.475 161.476C247.475 161.476 241.022 205.854 241.397 224.422C241.788 243.738 248.464 287.807 248.464 287.807H256.229C256.229 287.807 255.002 244.884 255.684 225.917C256.451 205.236 264.415 159.144 264.415 159.144L247.475 161.476Z" fill="#263238"/>
    <path d="M282.657 288.181H272.241L271.428 284.475L282.58 284.556L282.657 288.181Z" fill="#FFC100"/>
    <path opacity="0.2" d="M282.657 288.181H272.241L271.428 284.475L282.58 284.556L282.657 288.181Z" fill="black"/>
    <path d="M270.186 121.081C273.183 121.39 277.736 130.418 277.736 130.418L270.171 136.569C270.171 136.569 263.909 130.743 264.652 127.468C265.427 124.063 267.312 120.796 270.186 121.081Z" fill="#FFC100"/>
    <path opacity="0.1" d="M270.186 121.081C273.183 121.39 277.736 130.418 277.736 130.418L270.171 136.569C270.171 136.569 263.909 130.743 264.652 127.468C265.427 124.063 267.312 120.796 270.186 121.081Z" fill="black"/>
    <path d="M267.925 124.965C267.161 124.747 266.37 124.654 265.58 124.689C265.178 125.577 264.867 126.509 264.652 127.468C263.886 130.718 270.171 136.569 270.171 136.569L270.731 136.114L267.925 124.965Z" fill="#FFC100"/>
    <path opacity="0.3" d="M267.925 124.965C267.161 124.747 266.37 124.654 265.58 124.689C265.178 125.577 264.867 126.509 264.652 127.468C263.886 130.718 270.171 136.569 270.171 136.569L270.731 136.114L267.925 124.965Z" fill="black"/>
    <path d="M244.908 133.636C242.723 139.495 240.424 145.452 238.592 151.327C238.469 151.701 238.369 152.058 238.262 152.424L238.001 153.326C237.93 153.592 237.93 153.873 238.001 154.139C238.434 155.155 239.121 156.026 239.987 156.658C242.278 158.401 244.775 159.819 247.414 160.875L246.724 163.866C243.478 163.412 240.339 162.326 237.465 160.664C235.696 159.662 234.256 158.115 233.334 156.227C232.804 155.02 232.62 153.675 232.805 152.359C232.822 152.198 232.848 152.038 232.881 151.879L232.958 151.538L233.088 150.921C233.18 150.506 233.272 150.108 233.372 149.702C234.138 146.451 235.119 143.363 236.154 140.3C237.189 137.236 238.27 134.213 239.488 131.198L244.908 133.636Z" fill="#E4897B"/>
    <path d="M240.255 125.412C240.255 125.412 237.664 126.802 247.475 161.476L270.608 158.275C268.983 148.344 268.217 142.193 270.186 121.081C266.869 120.829 263.539 120.829 260.222 121.081C256.691 121.298 253.178 121.787 249.714 122.543C245.276 123.592 240.255 125.412 240.255 125.412Z" fill="#FFC100"/>
    <path opacity="0.1" d="M240.255 125.412C240.255 125.412 237.664 126.802 247.475 161.476L270.608 158.275C268.983 148.344 268.217 142.193 270.186 121.081C266.869 120.829 263.539 120.829 260.222 121.081C256.691 121.298 253.178 121.787 249.714 122.543C245.276 123.592 240.255 125.412 240.255 125.412Z" fill="black"/>
    <path d="M270.777 156.788L272.103 158.827C272.202 158.99 272.034 159.185 271.773 159.225L247.514 162.59C247.307 162.59 247.115 162.533 247.084 162.395L246.609 160.225C246.571 160.079 246.74 159.924 246.97 159.892L270.393 156.641C270.464 156.629 270.536 156.636 270.603 156.662C270.67 156.688 270.73 156.731 270.777 156.788Z" fill="#FFC100"/>
    <path opacity="0.2" d="M270.777 156.788L272.103 158.827C272.202 158.99 272.034 159.185 271.773 159.225L247.514 162.59C247.307 162.59 247.115 162.533 247.084 162.395L246.609 160.225C246.571 160.079 246.74 159.924 246.97 159.892L270.393 156.641C270.464 156.629 270.536 156.636 270.603 156.662C270.67 156.688 270.73 156.731 270.777 156.788Z" fill="black"/>
    <path d="M267.971 159.997L268.6 159.908C268.722 159.908 268.807 159.811 268.791 159.729L268.147 156.918C268.123 156.87 268.084 156.832 268.036 156.811C267.989 156.791 267.936 156.788 267.887 156.804L267.258 156.885C267.128 156.885 267.044 156.983 267.067 157.072L267.711 159.876C267.726 159.965 267.849 160.014 267.971 159.997Z" fill="#263238"/>
    <path d="M252.764 162.078L253.393 161.988C253.515 161.988 253.607 161.891 253.584 161.809L252.94 158.998C252.915 158.95 252.876 158.913 252.829 158.891C252.782 158.869 252.73 158.864 252.68 158.876L252.051 158.965C251.929 158.965 251.837 159.063 251.86 159.144L252.503 161.956C252.519 162.078 252.641 162.126 252.764 162.078Z" fill="#263238"/>
    <path d="M241.336 137.179C241.972 140.315 242.869 144.289 244.179 149.319L244.463 136.569L241.336 137.179Z" fill="#FFC100"/>
    <path opacity="0.3" d="M241.336 137.179C241.972 140.315 242.869 144.289 244.179 149.319L244.463 136.569L241.336 137.179Z" fill="black"/>
    <path d="M240.255 125.412C237.381 126.639 234.89 137.065 234.89 137.065L244.777 142.168C244.777 142.168 249.552 129.418 247.414 126.932C245.275 124.445 243.566 124.006 240.255 125.412Z" fill="#FFC100"/>
    <path opacity="0.1" d="M240.255 125.412C237.381 126.639 234.89 137.065 234.89 137.065L244.777 142.168C244.777 142.168 249.552 129.418 247.414 126.932C245.275 124.445 243.566 124.006 240.255 125.412Z" fill="black"/>
    <path d="M257.555 288.181H247.138L246.326 284.475L257.922 284.556L257.555 288.181Z" fill="#FFC100"/>
    <path opacity="0.2" d="M257.555 288.181H247.138L246.326 284.475L257.922 284.556L257.555 288.181Z" fill="black"/>
    <path d="M247.575 159.867L246.74 159.501C246.534 159.413 246.31 159.384 246.091 159.416C245.871 159.449 245.664 159.543 245.489 159.688C245.315 159.833 245.18 160.025 245.098 160.243C245.016 160.462 244.99 160.699 245.023 160.932L245.628 165.165C245.657 165.377 245.73 165.58 245.842 165.758C245.954 165.936 246.102 166.086 246.275 166.197C246.448 166.307 246.642 166.375 246.843 166.396C247.044 166.418 247.247 166.391 247.437 166.319C247.741 166.202 248.026 166.035 248.28 165.824C248.557 165.58 248.777 165.271 248.921 164.921C249.064 164.57 249.129 164.19 249.108 163.808L249.024 162.053C249.009 161.579 248.864 161.119 248.607 160.731C248.35 160.343 247.991 160.042 247.575 159.867Z" fill="#E4897B"/>
    <path d="M339.404 304.496L355.588 296.899C364.624 290.899 371.501 283.025 375.495 274.108C380.491 262.899 379.794 254.379 376.211 250.103C371.812 244.839 360.405 245.762 359.947 256.841C358.992 278.676 351.169 293.821 339.404 304.496Z" fill="#FFC100"/>
    <path opacity="0.2" d="M339.404 304.496L355.588 296.899C364.624 290.899 371.501 283.025 375.495 274.108C380.491 262.899 379.794 254.379 376.211 250.103C371.812 244.839 360.405 245.762 359.947 256.841C358.992 278.676 351.169 293.821 339.404 304.496Z" fill="black"/>
    <path d="M339.404 305.306C339.193 305.304 338.989 305.247 338.82 305.144C338.651 305.042 338.527 304.898 338.465 304.734C338.403 304.57 338.406 304.394 338.475 304.232C338.544 304.07 338.674 303.93 338.846 303.832C376.271 282.774 369.025 253.408 368.945 253.116C368.918 253.01 368.916 252.9 368.941 252.793C368.966 252.686 369.016 252.585 369.089 252.494C369.162 252.403 369.256 252.324 369.367 252.263C369.477 252.201 369.601 252.158 369.732 252.136C369.862 252.114 369.997 252.113 370.128 252.133C370.26 252.153 370.385 252.194 370.497 252.253C370.608 252.312 370.705 252.389 370.78 252.479C370.855 252.569 370.908 252.67 370.936 252.776C370.936 253.084 378.58 283.455 340.041 305.16C339.854 305.264 339.63 305.315 339.404 305.306Z" fill="white"/>
    <path d="M26.9357 310.386C26.9357 310.386 21.3022 306.661 22.6558 301.607C24.0095 296.553 27.6524 292.925 21.4216 286.413C15.1908 279.902 13.4589 271.22 20.904 266.522C26.5774 262.878 35.4359 268.029 38.621 258.423C40.9699 251.393 40.1737 235.827 51.182 230.644C62.1904 225.461 69.098 233.268 67.3661 243.829C65.8532 253.272 63.7033 262.359 65.3755 264.886C68.6003 269.746 74.1145 269.082 73.8557 277.958C73.6367 286.219 64.0218 293.054 64.0218 293.054L26.9357 310.386Z" fill="#FFC100"/>
    <path d="M45.4291 302.465C45.1857 302.463 44.9514 302.39 44.7687 302.259C44.586 302.129 44.4671 301.949 44.4337 301.753C41.5871 282.558 48.4151 249.417 53.989 239.569C54.0359 239.46 54.1111 239.36 54.2094 239.276C54.3077 239.193 54.4269 239.127 54.5589 239.084C54.691 239.041 54.8328 239.022 54.9748 239.027C55.1169 239.032 55.2559 239.062 55.3825 239.115C55.5013 239.159 55.6082 239.221 55.6968 239.299C55.7855 239.377 55.8541 239.468 55.8987 239.568C55.9432 239.667 55.9627 239.773 55.9561 239.879C55.9495 239.985 55.9169 240.089 55.8602 240.184C50.346 249.903 43.7569 283.141 46.4841 301.493C46.5121 301.706 46.4358 301.919 46.2717 302.086C46.1076 302.252 45.8691 302.36 45.6082 302.384L45.4291 302.465Z" fill="white"/>
    <path d="M44.8916 287.515C44.7393 287.521 44.5878 287.492 44.4537 287.434C37.546 284.696 33.1665 274.929 32.9874 274.475C32.9386 274.374 32.9151 274.267 32.9184 274.159C32.9216 274.05 32.9515 273.944 33.0063 273.845C33.0611 273.746 33.1396 273.658 33.2373 273.584C33.3349 273.51 33.4497 273.454 33.5749 273.417C33.7 273.38 33.833 273.364 33.9659 273.37C34.0988 273.375 34.2289 273.403 34.3486 273.45C34.4683 273.497 34.5751 273.564 34.6627 273.645C34.7503 273.727 34.8169 273.822 34.8586 273.924C34.8586 274.022 39.1386 283.481 45.3296 285.927C45.5326 286.007 45.6963 286.141 45.7936 286.307C45.891 286.472 45.9163 286.66 45.8654 286.839C45.8145 287.018 45.6904 287.177 45.5135 287.291C45.3365 287.405 45.1173 287.467 44.8916 287.466V287.515Z" fill="white"/>
    <path d="M44.7721 293.994C44.5727 293.994 44.378 293.944 44.2142 293.852C44.0505 293.759 43.9256 293.628 43.8564 293.476C43.7574 293.278 43.7583 293.056 43.8589 292.859C43.9596 292.662 44.1519 292.505 44.3939 292.423C56.0194 288.632 63.2654 277.375 63.3451 277.245C63.4665 277.054 63.6763 276.91 63.9283 276.845C64.1803 276.779 64.4538 276.798 64.6888 276.897C64.9237 276.996 65.1008 277.167 65.1811 277.372C65.2613 277.577 65.2382 277.799 65.1168 277.99C64.7983 278.476 57.4527 289.912 45.2101 293.929C45.0737 293.982 44.9226 294.004 44.7721 293.994Z" fill="white"/>
    <path d="M626.871 246.141C626.871 246.141 607.78 242.351 606.785 213.26C605.73 181.868 611.463 145.228 588.869 142.264C566.275 139.3 553.733 161.702 554.012 187.861C554.271 210.765 565.618 260.493 626.791 270.244L626.871 246.141Z" fill="#FFC100"/>
    <path opacity="0.2" d="M626.863 246.141C626.863 246.141 607.773 242.351 606.777 213.26C605.722 181.868 611.455 145.228 588.861 142.264C566.267 139.3 553.726 161.702 554.005 187.861C554.263 210.765 565.61 260.493 626.784 270.244L626.863 246.141Z" fill="black"/>
    <path d="M626.863 267.263H626.684C612.928 265.223 601.721 259.051 593.38 248.944C568.656 218.929 576.439 162.884 579.007 153.101C579.065 152.892 579.219 152.71 579.438 152.592C579.657 152.474 579.924 152.43 580.182 152.469C580.44 152.519 580.664 152.648 580.808 152.829C580.953 153.01 581.006 153.229 580.958 153.441C578.43 163.16 570.686 218.492 595.032 248.037C598.576 252.618 603.252 256.551 608.762 259.585C614.272 262.618 620.497 264.687 627.042 265.66C627.172 265.679 627.296 265.72 627.407 265.778C627.517 265.837 627.612 265.913 627.686 266.002C627.761 266.091 627.812 266.191 627.838 266.296C627.864 266.402 627.864 266.51 627.839 266.616C627.796 266.8 627.675 266.966 627.497 267.085C627.318 267.203 627.094 267.267 626.863 267.263Z" fill="white"/>
    <path d="M621.576 301.271C607.955 302.71 585.839 302.689 573.07 294.828C560.301 286.968 562.968 280.203 567.874 277.378C572.781 274.554 577.042 271.333 568.603 265.061C560.164 258.79 546.611 248.718 542.213 233.609C537.814 218.5 539.986 209.05 548.618 205.903C556.988 202.854 559.201 207.707 564.328 217.716C569.455 227.724 580.987 219.144 590.856 222.269C600.725 225.394 600.327 231.579 600.945 236.895C601.564 242.21 604.821 243.681 610.415 243.681C616.01 243.681 621.576 246.194 621.576 251.198V301.271Z" fill="#FFC100"/>
    <path d="M620.864 283.992C620.806 284.003 620.745 284.003 620.686 283.992C620.099 283.864 606.09 280.675 585.686 266.001C563.957 250.376 553.707 226.937 553.597 226.702C553.545 226.567 553.561 226.421 553.643 226.296C553.724 226.17 553.865 226.074 554.035 226.027C554.205 225.983 554.391 225.993 554.552 226.055C554.713 226.117 554.837 226.226 554.896 226.359C554.991 226.595 565.146 249.776 586.616 265.209C606.733 279.69 620.905 282.933 621.055 282.965C621.142 282.985 621.222 283.017 621.292 283.061C621.362 283.105 621.42 283.16 621.463 283.221C621.506 283.283 621.534 283.351 621.543 283.421C621.553 283.49 621.545 283.561 621.52 283.628C621.476 283.737 621.388 283.831 621.27 283.896C621.151 283.962 621.009 283.995 620.864 283.992Z" fill="white"/>
    <path d="M590.788 269C590.65 269.002 590.514 268.97 590.401 268.909C590.287 268.849 590.201 268.762 590.155 268.662C585.732 259.96 584.727 241.341 584.644 240.549C584.64 240.41 584.707 240.275 584.83 240.172C584.953 240.07 585.124 240.008 585.305 240C585.485 240.002 585.658 240.055 585.79 240.148C585.922 240.242 586.005 240.37 586.022 240.507C586.022 240.697 587.055 259.738 591.395 268.282C591.428 268.347 591.444 268.416 591.442 268.486C591.44 268.556 591.419 268.625 591.382 268.689C591.345 268.753 591.292 268.81 591.225 268.858C591.159 268.906 591.081 268.944 590.995 268.968C590.929 268.987 590.859 268.997 590.788 269Z" fill="white"/>
    <path d="M591.114 281.999C589.811 282.007 588.509 281.956 587.213 281.847C587.12 281.839 587.031 281.816 586.949 281.781C586.868 281.746 586.796 281.699 586.738 281.642C586.681 281.586 586.638 281.521 586.613 281.452C586.587 281.383 586.58 281.311 586.591 281.24C586.602 281.168 586.632 281.1 586.677 281.037C586.723 280.974 586.785 280.919 586.858 280.875C586.932 280.831 587.016 280.798 587.106 280.779C587.196 280.759 587.29 280.754 587.383 280.762C587.51 280.762 600.669 281.912 606.705 277.192C606.768 277.135 606.845 277.089 606.933 277.056C607.02 277.023 607.115 277.004 607.213 277.001C607.31 276.997 607.407 277.009 607.498 277.036C607.589 277.063 607.672 277.104 607.741 277.156C607.81 277.209 607.865 277.272 607.901 277.341C607.937 277.41 607.954 277.485 607.951 277.56C607.948 277.634 607.925 277.708 607.883 277.775C607.841 277.843 607.782 277.903 607.708 277.952C603.341 281.413 595.722 281.999 591.114 281.999Z" fill="white"/>
</svg>
