<svg width="193" height="151" viewBox="0 0 193 151" fill="none" xmlns="http://www.w3.org/2000/svg">
    <g opacity="0.8">
        <path d="M171.18 110.3H183.003V106.087H171.18V110.3Z" fill="#EBEBEB"/>
        <path d="M177.779 115.612H189.602V111.399H177.779V115.612Z" fill="#EBEBEB"/>
        <path d="M76.9723 63.7783H88.7957V59.5655H76.9723V63.7783Z" fill="#EBEBEB"/>
        <path d="M83.5717 69.0908H95.395V64.878H83.5717V69.0908Z" fill="#EBEBEB"/>
        <path d="M90.1395 63.7783H101.963V59.5655H90.1395V63.7783Z" fill="#EBEBEB"/>
        <path d="M3.26847 115.609H15.0918V111.396H3.26847V115.609Z" fill="#EBEBEB"/>
        <path d="M9.86759 9.02295L21.6909 9.02295V4.81013L9.86759 4.81013V9.02295Z" fill="#EBEBEB"/>
        <path d="M3.26847 14.3352L15.0918 14.3352V10.1224H3.26847V14.3352Z" fill="#EBEBEB"/>
        <path d="M171.18 9.02295L183.003 9.02295V4.81013L171.18 4.81013V9.02295Z" fill="#EBEBEB"/>
        <path d="M186.021 14.0457H122.261V74.0266H186.021V14.0457Z" fill="#DBDBDB"/>
        <path d="M181.824 17.5876H126.462V70.5172H181.824V17.5876Z" fill="#EBEBEB"/>
        <path d="M150.98 26.9475H131.468V46.4455H150.98V26.9475Z" fill="white"/>
        <path d="M141.925 28.2722C141.925 28.3891 141.884 28.5034 141.807 28.6006C141.73 28.6978 141.62 28.7736 141.492 28.8183C141.364 28.8631 141.223 28.8748 141.087 28.852C140.951 28.8292 140.826 28.7729 140.728 28.6902C140.63 28.6075 140.563 28.5022 140.536 28.3876C140.509 28.2729 140.523 28.154 140.576 28.046C140.629 27.938 140.719 27.8457 140.834 27.7808C140.95 27.7158 141.085 27.6812 141.224 27.6812C141.41 27.6812 141.588 27.7434 141.719 27.8543C141.851 27.9651 141.925 28.1155 141.925 28.2722Z" fill="#A6A6A6"/>
        <path d="M135.183 30.8513C137.156 30.7233 139.13 30.7158 141.099 30.697C143.068 30.6781 145.046 30.7233 147.019 30.8513C145.046 30.9793 143.072 30.9869 141.099 31.0057C139.125 31.0245 137.156 30.9793 135.183 30.8513Z" fill="#EBEBEB"/>
        <path d="M135.183 32.3953C137.32 32.1895 139.479 32.1895 141.617 32.3953C140.549 32.5069 139.473 32.5585 138.397 32.5497C137.323 32.5565 136.249 32.5049 135.183 32.3953Z" fill="#EBEBEB"/>
        <path d="M135.183 33.9351C136.549 33.8254 137.922 33.7739 139.295 33.7807C140.666 33.772 142.038 33.8235 143.403 33.9351C142.032 34.0555 140.666 34.0819 139.295 34.0894C137.924 34.0969 136.553 34.0555 135.183 33.9351Z" fill="#EBEBEB"/>
        <path d="M135.183 35.4746C136.897 35.3542 138.612 35.3241 140.326 35.3203C142.041 35.3166 143.755 35.3542 145.47 35.4746C143.755 35.5951 142.041 35.6252 140.326 35.629C138.612 35.6327 136.897 35.5951 135.183 35.4746Z" fill="#EBEBEB"/>
        <path d="M135.183 37.0146C136.669 36.8941 138.161 36.8678 139.648 36.8602C141.134 36.8527 142.626 36.8941 144.113 37.0146C142.621 37.1351 141.13 37.1652 139.648 37.169C138.165 37.1727 136.669 37.1351 135.183 37.0146Z" fill="#EBEBEB"/>
        <path d="M135.183 38.5542C137.089 38.4262 138.996 38.4187 140.902 38.3998C142.809 38.381 144.715 38.4262 146.622 38.5542C144.715 38.686 142.809 38.6935 140.902 38.7123C138.996 38.7312 137.089 38.6822 135.183 38.5542Z" fill="#EBEBEB"/>
        <path d="M135.183 40.0977C136.409 39.9881 137.642 39.9365 138.875 39.9433C140.11 39.9346 141.344 39.9862 142.572 40.0977C140.115 40.3035 137.64 40.3035 135.183 40.0977Z" fill="#EBEBEB"/>
        <path d="M135.183 41.6375C137.156 41.5095 139.13 41.5019 141.099 41.4831C143.068 41.4643 145.046 41.5095 147.019 41.6375C145.046 41.7655 143.072 41.773 141.099 41.7919C139.125 41.8107 137.156 41.7655 135.183 41.6375Z" fill="#EBEBEB"/>
        <path d="M135.183 43.1775C137.156 43.0495 139.13 43.042 141.099 43.0231C143.068 43.0043 145.046 43.0495 147.019 43.1775C145.046 43.3055 143.072 43.3168 141.099 43.3319C139.125 43.3469 137.156 43.313 135.183 43.1775Z" fill="#EBEBEB"/>
        <path d="M177.042 39.104H153.954V62.1748H177.042V39.104Z" fill="white"/>
        <path d="M156.771 40.783C156.771 40.8999 156.73 41.0141 156.653 41.1113C156.576 41.2085 156.466 41.2843 156.338 41.329C156.21 41.3738 156.069 41.3855 155.933 41.3627C155.797 41.3399 155.672 41.2836 155.574 41.2009C155.476 41.1182 155.41 41.0129 155.383 40.8983C155.356 40.7836 155.369 40.6648 155.422 40.5568C155.476 40.4488 155.565 40.3565 155.681 40.2915C155.796 40.2266 155.931 40.1919 156.07 40.1919C156.256 40.1919 156.434 40.2542 156.566 40.365C156.697 40.4759 156.771 40.6262 156.771 40.783Z" fill="#A6A6A6"/>
        <path d="M157.182 44.8601C158.03 44.7514 158.887 44.6986 159.745 44.702C160.601 44.6966 161.457 44.7495 162.303 44.8601C160.605 45.0658 158.88 45.0658 157.182 44.8601Z" fill="#EBEBEB"/>
        <path d="M157.182 46.5997C158.283 46.4907 159.391 46.4379 160.499 46.4416C161.607 46.436 162.713 46.4889 163.812 46.5997C161.609 46.8055 159.385 46.8055 157.182 46.5997Z" fill="#EBEBEB"/>
        <path d="M157.182 48.3387C158.201 48.2292 159.227 48.1777 160.254 48.1843C161.281 48.1756 162.307 48.2271 163.326 48.3387C161.285 48.5445 159.223 48.5445 157.182 48.3387Z" fill="#EBEBEB"/>
        <path d="M157.182 50.0896C158.201 49.9802 159.227 49.9286 160.254 49.9353C161.281 49.9265 162.307 49.9781 163.326 50.0896C161.285 50.2954 159.223 50.2954 157.182 50.0896Z" fill="#EBEBEB"/>
        <path d="M157.182 51.8174C158.069 51.7077 158.964 51.6561 159.861 51.6631C160.757 51.6542 161.653 51.7058 162.54 51.8174C160.762 52.0246 158.959 52.0246 157.182 51.8174Z" fill="#EBEBEB"/>
        <path d="M157.182 53.5569C158.316 53.4473 159.456 53.3958 160.598 53.4025C161.739 53.3939 162.88 53.4454 164.013 53.5569C161.743 53.7627 159.452 53.7627 157.182 53.5569Z" fill="#EBEBEB"/>
        <path d="M157.182 55.2965C159.054 55.0906 160.949 55.0906 162.821 55.2965C160.949 55.5023 159.054 55.5023 157.182 55.2965Z" fill="#EBEBEB"/>
        <path d="M157.182 57.0357C159.532 56.8299 161.9 56.8299 164.25 57.0357C161.9 57.2415 159.532 57.2415 157.182 57.0357Z" fill="#EBEBEB"/>
        <path d="M157.182 58.775C159.532 58.5692 161.9 58.5692 164.25 58.775C161.9 58.9808 159.532 58.9808 157.182 58.775Z" fill="#EBEBEB"/>
        <path d="M167.272 44.8602C168.387 44.7512 169.508 44.6984 170.63 44.702C171.751 44.6965 172.871 44.7493 173.983 44.8602C171.757 45.0651 169.512 45.0651 167.286 44.8602H167.272Z" fill="#EBEBEB"/>
        <path d="M167.272 46.5997C168.001 46.4912 168.739 46.4382 169.478 46.4416C170.218 46.436 170.956 46.489 171.684 46.5997C170.223 46.8052 168.733 46.8052 167.272 46.5997Z" fill="#EBEBEB"/>
        <path d="M167.272 48.3386C168.32 48.2292 169.374 48.1776 170.429 48.1843C171.484 48.1756 172.539 48.2272 173.586 48.3386C171.489 48.5445 169.37 48.5445 167.272 48.3386Z" fill="#EBEBEB"/>
        <path d="M167.272 50.0897C168.291 49.9802 169.317 49.9286 170.344 49.9353C171.371 49.9266 172.398 49.9782 173.416 50.0897C171.376 50.2955 169.313 50.2955 167.272 50.0897Z" fill="#EBEBEB"/>
        <path d="M167.272 51.8176C168.387 51.7081 169.508 51.6565 170.63 51.6633C171.751 51.6546 172.871 51.7062 173.983 51.8176C171.757 52.0226 169.512 52.0226 167.286 51.8176H167.272Z" fill="#EBEBEB"/>
        <path d="M167.272 53.557C168.159 53.4472 169.055 53.3956 169.951 53.4027C170.848 53.3935 171.744 53.4451 172.63 53.557C170.853 53.7645 169.05 53.7645 167.272 53.557Z" fill="#EBEBEB"/>
        <path d="M167.272 55.2965C169.37 55.0906 171.489 55.0906 173.586 55.2965C171.489 55.5023 169.37 55.5023 167.272 55.2965Z" fill="#EBEBEB"/>
        <path d="M167.272 57.0357C168.892 56.8299 170.538 56.8299 172.157 57.0357C170.538 57.2415 168.892 57.2415 167.272 57.0357Z" fill="#EBEBEB"/>
        <path d="M167.272 58.775C168.824 58.5691 170.405 58.5691 171.956 58.775C170.405 58.9808 168.824 58.9808 167.272 58.775Z" fill="#EBEBEB"/>
        <path d="M160.928 21.5862H149.185V31.4877H160.928V21.5862Z" fill="#A6A6A6"/>
        <path d="M155.757 22.6067C155.757 22.7236 155.716 22.8379 155.639 22.9351C155.562 23.0323 155.453 23.108 155.325 23.1528C155.197 23.1975 155.056 23.2092 154.92 23.1864C154.784 23.1636 154.659 23.1073 154.561 23.0246C154.463 22.942 154.396 22.8367 154.369 22.722C154.342 22.6073 154.356 22.4885 154.409 22.3805C154.462 22.2725 154.552 22.1802 154.667 22.1152C154.782 22.0503 154.918 22.0156 155.056 22.0156C155.242 22.0156 155.421 22.0779 155.552 22.1887C155.684 22.2996 155.757 22.4499 155.757 22.6067Z" fill="#EBEBEB"/>
        <path d="M181.775 17.5876H180.19V70.5775H181.775V17.5876Z" fill="#C7C7C7"/>
        <path d="M54.7476 32.1237C60.9354 24.8172 58.927 14.6644 50.2615 9.44694C41.596 4.22945 29.5551 5.92297 23.3672 13.2295C17.1793 20.5361 19.1878 30.6888 27.8533 35.9063C36.5187 41.1238 48.5597 39.4303 54.7476 32.1237Z" fill="#EBEBEB"/>
        <path d="M54.6527 32.34C60.7486 25.4868 59.1014 15.7644 50.9736 10.6245C42.8458 5.48462 31.3153 6.8735 25.2194 13.7267C19.1236 20.5799 20.7708 30.3022 28.8985 35.4421C37.0263 40.582 48.5568 39.1932 54.6527 32.34Z" fill="#DBDBDB"/>
        <path d="M49.9309 34.8761C57.6849 30.2211 59.4954 21.1474 53.9747 14.6093C48.454 8.07123 37.6927 6.54466 29.9386 11.1996C22.1846 15.8546 20.3741 24.9283 25.8948 31.4664C31.4155 38.0045 42.1768 39.531 49.9309 34.8761Z" fill="white"/>
        <path opacity="0.5" d="M56.7815 19.9712C48.932 23.9807 36.0326 30.5579 28.826 34.1646C26.7801 32.7117 25.1629 30.8776 24.1021 28.8072L47.9586 10.1826C50.1879 11.1718 52.1332 12.5608 53.6574 14.2519C55.1817 15.943 56.2481 17.8952 56.7815 19.9712Z" fill="#EBEBEB"/>
        <path opacity="0.5" d="M57.1433 23.5476C57.0836 25.158 56.7048 26.7486 56.0226 28.2536L34.5236 36.8262C33.5876 36.5633 32.6795 36.2346 31.8088 35.8435C38.3054 32.6924 50.1689 26.936 57.1433 23.5476Z" fill="#EBEBEB"/>
        <path d="M40.1047 9.56128H39.7698V11.7638H40.1047V9.56128Z" fill="#C7C7C7"/>
        <path d="M32.0923 11.2909L31.8022 11.4321L33.1083 13.3395L33.3983 13.1983L32.0923 11.2909Z" fill="#C7C7C7"/>
        <path d="M26.3132 16.0346L26.1458 16.2803L28.4182 17.3815L28.5856 17.1358L26.3132 16.0346Z" fill="#C7C7C7"/>
        <path d="M26.5669 22.8999H23.9548V23.1823H26.5669V22.8999Z" fill="#C7C7C7"/>
        <path d="M28.2702 28.5572L26.0083 29.6587L26.1758 29.9032L28.4376 28.8017L28.2702 28.5572Z" fill="#C7C7C7"/>
        <path d="M33.1048 32.7392L31.7996 34.647L32.0896 34.7881L33.3949 32.8803L33.1048 32.7392Z" fill="#C7C7C7"/>
        <path d="M40.1047 34.3149H39.7698V36.5174H40.1047V34.3149Z" fill="#C7C7C7"/>
        <path d="M46.7671 32.7304L46.4771 32.8716L47.7831 34.7789L48.0731 34.6377L46.7671 32.7304Z" fill="#C7C7C7"/>
        <path d="M51.6023 28.5572L51.4348 28.8018L53.6967 29.9033L53.8642 29.6588L51.6023 28.5572Z" fill="#C7C7C7"/>
        <path d="M55.9197 22.8999H53.3076V23.1823H55.9197V22.8999Z" fill="#C7C7C7"/>
        <path d="M53.696 16.1774L51.4343 17.2793L51.6019 17.5238L53.8635 16.4219L53.696 16.1774Z" fill="#C7C7C7"/>
        <path d="M47.786 11.2947L46.4812 13.2026L46.7713 13.3437L48.0761 11.4358L47.786 11.2947Z" fill="#C7C7C7"/>
        <path d="M40.1898 10.5589L40.7568 24.0181L39.1182 24.0031L39.7433 10.5552L40.1898 10.5589Z" fill="#C7C7C7"/>
        <path d="M50.1331 18.3446L39.3903 24.1236L38.6089 22.9151L49.9187 18.0171L50.1331 18.3446Z" fill="#A6A6A6"/>
        <path d="M40.4932 23.0397C40.4932 23.1328 40.4605 23.2238 40.3991 23.3012C40.3378 23.3786 40.2506 23.4389 40.1487 23.4745C40.0467 23.5101 39.9345 23.5195 39.8262 23.5013C39.7179 23.4831 39.6185 23.4383 39.5404 23.3725C39.4624 23.3067 39.4092 23.2228 39.3877 23.1315C39.3661 23.0402 39.3772 22.9456 39.4194 22.8596C39.4617 22.7736 39.5332 22.7001 39.625 22.6484C39.7168 22.5967 39.8247 22.5691 39.9351 22.5691C40.0085 22.5686 40.0814 22.5804 40.1494 22.6039C40.2173 22.6274 40.2791 22.662 40.3311 22.7058C40.383 22.7496 40.4241 22.8017 40.4519 22.859C40.4798 22.9164 40.4938 22.9778 40.4932 23.0397Z" fill="#C7C7C7"/>
        <path d="M192.866 150.234L168.759 150.328L144.653 150.358L96.4352 150.422L48.2176 150.362L24.111 150.328L0 150.234L24.111 150.143L48.2176 150.109L96.4352 150.045L144.653 150.109L168.759 150.143L192.866 150.234Z" fill="#263238"/>
        <path d="M171.206 40.3876C171.173 39.2352 171.226 38.0821 171.363 36.9352C171.481 35.7877 171.683 34.6474 171.965 33.5205C171.998 34.6729 171.946 35.8259 171.809 36.9729C171.69 38.1204 171.489 39.2607 171.206 40.3876Z" fill="#263238"/>
        <path d="M168.795 40.7831C168.086 39.7979 167.449 38.777 166.888 37.7261C166.308 36.6832 165.805 35.6107 165.384 34.5146C166.79 36.4924 167.934 38.5945 168.795 40.7831Z" fill="#263238"/>
        <path d="M166.946 42.142C165.748 41.588 164.591 40.9733 163.482 40.3011C162.359 39.6421 161.287 38.9241 160.271 38.1514C162.662 39.2732 164.9 40.6113 166.946 42.142Z" fill="#263238"/>
        <path d="M166.148 44.0961C163.413 44.1345 160.682 43.9199 158.003 43.4561C159.369 43.4283 160.735 43.4723 162.093 43.5878C163.456 43.6878 164.81 43.8576 166.148 44.0961Z" fill="#263238"/>
        <path d="M174.805 46.6074C177.202 47.7291 179.448 49.0672 181.502 50.5981C180.302 50.0469 179.145 49.432 178.037 48.7571C176.909 48.0969 175.829 47.379 174.805 46.6074Z" fill="#263238"/>
        <path d="M175.604 44.6533C178.34 44.615 181.073 44.8297 183.753 45.2934C182.386 45.3212 181.019 45.2772 179.658 45.1616C178.296 45.0615 176.942 44.8918 175.604 44.6533Z" fill="#263238"/>
        <path d="M175.135 42.6202C176.304 42.0223 177.515 41.4855 178.761 41.0126C179.998 40.5228 181.27 40.0991 182.57 39.7439C181.402 40.3422 180.193 40.8803 178.949 41.3552C177.71 41.8432 176.436 42.2657 175.135 42.6202Z" fill="#263238"/>
        <path d="M173.524 41.0541C174.181 40.0431 174.911 39.0674 175.712 38.1327C176.49 37.1853 177.34 36.2811 178.257 35.4258C176.928 37.4479 175.34 39.3415 173.524 41.073V41.0541Z" fill="#263238"/>
        <path d="M71.8777 126.06C71.3821 126.591 29.6923 128.168 27.7099 127.686C27.6135 127.663 27.5207 127.63 27.433 127.588C24.9773 126.617 14.4399 119.908 12.761 117.081C11.4215 114.822 19.3648 102.458 22.1375 100.339C23.9816 98.9344 27.4018 98.381 27.4018 98.381C27.4018 98.381 37.0551 74.8886 43.007 69.9717C44.5028 68.7369 70.3551 68.255 74.972 70.032C76.95 70.7849 81.7588 74.9262 81.8927 75.6792C82.0043 76.7672 72.3644 125.522 71.8777 126.06Z" fill="#37474F"/>
        <path d="M72.1634 126.06C71.6678 126.591 29.9825 128.168 27.9956 127.686C27.8998 127.661 27.8071 127.629 27.7188 127.589C31.7373 118.481 50.4903 75.7509 51.0261 75.476C51.5619 75.2012 76.2623 75.3254 82.1784 75.6869C82.3035 76.7674 72.6635 125.522 72.1634 126.06Z" fill="#263238"/>
        <path d="M56.853 71.7037C56.4377 71.3724 56.1609 66.5986 56.9289 65.6461C57.7862 64.5806 67.6985 65.1077 68.2834 66.0226C68.8683 66.9374 69.1496 71.7037 68.8505 71.8768C68.5513 72.05 66.8992 72.2119 66.676 71.907C66.4527 71.602 66.4661 67.6565 66.292 67.4457C66.1179 67.2348 59.1748 66.8583 58.9337 67.1595C58.6926 67.4607 59.2775 71.4514 59.0006 71.6246C58.7238 71.7978 57.2593 72.0274 56.853 71.7037Z" fill="#37474F"/>
        <path d="M36.3819 93.3942L33.3213 92.1848L31.671 95.1541L34.7315 96.3635L36.3819 93.3942Z" fill="#DBDBDB"/>
        <path d="M36.234 95.783L31.2449 93.8115L29.3615 97.2001L34.3506 99.1716L36.234 95.783Z" fill="#C7C7C7"/>
        <path d="M35.4478 104.724L26.8259 120.236L14.9668 115.545L23.5843 100.037C25.2944 96.969 28.8976 95.5195 32.5143 96.9426C36.1309 98.3657 37.1534 101.667 35.4478 104.724Z" fill="#FFE497"/>
        <path opacity="0.1" d="M35.4478 104.724L26.8259 120.236L14.9668 115.545L23.5843 100.037C25.2944 96.969 28.8976 95.5195 32.5143 96.9426C36.1309 98.3657 37.1534 101.667 35.4478 104.724Z" fill="black"/>
        <path d="M31.2461 97.8498C31.2168 97.901 31.1758 97.9468 31.1255 97.9846C31.0752 98.0224 31.0165 98.0515 30.9529 98.0702C30.8892 98.0889 30.8219 98.0969 30.7546 98.0936C30.6873 98.0904 30.6214 98.0759 30.5607 98.0512C30.5 98.0265 30.4457 97.9919 30.4009 97.9495C30.356 97.9071 30.3215 97.8576 30.2993 97.804C30.2772 97.7503 30.2677 97.6935 30.2716 97.6367C30.2755 97.58 30.2925 97.5245 30.3219 97.4733C30.3811 97.3699 30.4865 97.2906 30.6151 97.2529C30.7436 97.2151 30.8847 97.2219 31.0072 97.2719C31.1298 97.3218 31.2238 97.4107 31.2686 97.5191C31.3134 97.6275 31.3053 97.7464 31.2461 97.8498Z" fill="white"/>
        <path d="M35.1976 103.682C35.1547 103.759 35.0858 103.823 34.9997 103.867C34.9135 103.91 34.8139 103.932 34.7134 103.928C34.613 103.924 34.5162 103.895 34.4353 103.844C34.3543 103.794 34.2929 103.725 34.2586 103.645C34.2244 103.565 34.219 103.479 34.243 103.396C34.267 103.314 34.3194 103.239 34.3936 103.182C34.4678 103.125 34.5604 103.087 34.6598 103.075C34.7592 103.062 34.8609 103.074 34.952 103.11C35.0129 103.134 35.0675 103.167 35.1128 103.209C35.158 103.251 35.1931 103.3 35.2159 103.353C35.2387 103.406 35.2489 103.462 35.2457 103.519C35.2426 103.575 35.2262 103.631 35.1976 103.682Z" fill="white"/>
        <path d="M29.7323 101.999C29.7036 102.05 29.6632 102.095 29.6136 102.133C29.5639 102.171 29.5059 102.2 29.4429 102.219C29.3799 102.238 29.313 102.246 29.2462 102.243C29.1794 102.24 29.114 102.226 29.0536 102.202C28.9932 102.177 28.9392 102.143 28.8946 102.1C28.85 102.058 28.8158 102.009 28.7938 101.955C28.7718 101.902 28.7625 101.845 28.7665 101.789C28.7705 101.732 28.7876 101.677 28.8169 101.626C28.8463 101.575 28.8872 101.529 28.9374 101.492C28.9876 101.454 29.0461 101.425 29.1095 101.407C29.1729 101.388 29.2401 101.38 29.3071 101.384C29.3741 101.387 29.4397 101.402 29.5001 101.426C29.6197 101.477 29.7109 101.566 29.7543 101.673C29.7977 101.78 29.7898 101.897 29.7323 101.999Z" fill="white"/>
        <path d="M28.1206 105.903C28.0928 105.955 28.053 106.001 28.0036 106.039C27.9542 106.078 27.8962 106.108 27.833 106.127C27.7698 106.146 27.7026 106.155 27.6354 106.152C27.5683 106.149 27.5025 106.135 27.442 106.11C27.351 106.074 27.2748 106.016 27.223 105.943C27.1711 105.87 27.146 105.787 27.1507 105.702C27.1554 105.617 27.1898 105.535 27.2494 105.467C27.3091 105.399 27.3914 105.347 27.486 105.318C27.5805 105.289 27.6831 105.285 27.7807 105.305C27.8784 105.325 27.9667 105.37 28.0346 105.432C28.1025 105.495 28.1469 105.573 28.1622 105.657C28.1775 105.74 28.1631 105.826 28.1206 105.903Z" fill="white"/>
        <path d="M21.1817 107.906C21.1539 107.958 21.1141 108.004 21.0647 108.043C21.0153 108.081 20.9573 108.111 20.8941 108.13C20.8309 108.149 20.7637 108.158 20.6965 108.155C20.6294 108.152 20.5636 108.138 20.5031 108.113C20.4427 108.089 20.3886 108.054 20.3441 108.012C20.2995 107.969 20.2652 107.92 20.2432 107.867C20.2213 107.813 20.212 107.756 20.216 107.7C20.22 107.643 20.2371 107.588 20.2664 107.537C20.2957 107.486 20.3367 107.441 20.3869 107.403C20.4371 107.366 20.4955 107.337 20.559 107.318C20.6224 107.3 20.6895 107.292 20.7566 107.295C20.8236 107.299 20.8892 107.313 20.9496 107.338C21.0094 107.362 21.0631 107.396 21.1072 107.438C21.1514 107.479 21.1853 107.528 21.2069 107.581C21.2285 107.634 21.2374 107.69 21.2331 107.746C21.2288 107.802 21.2113 107.856 21.1817 107.906Z" fill="white"/>
        <path d="M22.6467 104.262C22.6174 104.313 22.5764 104.359 22.5261 104.396C22.4758 104.434 22.4172 104.463 22.3535 104.482C22.2899 104.501 22.2225 104.509 22.1552 104.505C22.0879 104.502 22.0221 104.488 21.9614 104.463C21.9007 104.438 21.8464 104.404 21.8015 104.361C21.7567 104.319 21.7222 104.269 21.7 104.216C21.6778 104.162 21.6684 104.105 21.6722 104.049C21.6761 103.992 21.6932 103.936 21.7225 103.885C21.7817 103.782 21.8872 103.703 22.0157 103.665C22.1442 103.627 22.2853 103.634 22.4079 103.684C22.5304 103.734 22.6244 103.823 22.6692 103.931C22.714 104.039 22.7059 104.158 22.6467 104.262Z" fill="white"/>
        <path d="M24.8032 100.636C24.7739 100.687 24.7329 100.733 24.6826 100.771C24.6323 100.809 24.5737 100.838 24.51 100.857C24.4464 100.875 24.379 100.883 24.3117 100.88C24.2444 100.877 24.1785 100.862 24.1179 100.838C24.0572 100.813 24.0029 100.778 23.958 100.736C23.9132 100.693 23.8787 100.644 23.8565 100.59C23.8343 100.537 23.8249 100.48 23.8287 100.423C23.8326 100.366 23.8497 100.311 23.879 100.26C23.9382 100.156 24.0437 100.077 24.1722 100.039C24.3007 100.001 24.4418 100.008 24.5644 100.058C24.6869 100.108 24.7809 100.197 24.8257 100.305C24.8705 100.414 24.8624 100.533 24.8032 100.636Z" fill="white"/>
        <path d="M28.0536 99.183C28.0113 99.2602 27.9428 99.325 27.8567 99.3693C27.7707 99.4136 27.671 99.4353 27.5703 99.4318C27.4695 99.4282 27.3723 99.3995 27.291 99.3493C27.2096 99.2991 27.1478 99.2297 27.1133 99.1498C27.0788 99.07 27.0732 98.9833 27.0972 98.9007C27.1212 98.8181 27.1737 98.7435 27.2482 98.6861C27.3226 98.6288 27.4155 98.5913 27.5152 98.5786C27.6149 98.5658 27.7168 98.5783 27.808 98.6145C27.9297 98.6627 28.0238 98.7495 28.0698 98.8561C28.1158 98.9626 28.11 99.0801 28.0536 99.183Z" fill="white"/>
        <path d="M26.3702 103.23C26.3273 103.307 26.2584 103.371 26.1723 103.415C26.0861 103.459 25.9865 103.48 25.8861 103.476C25.7856 103.472 25.6888 103.443 25.6079 103.393C25.5269 103.342 25.4655 103.273 25.4312 103.193C25.397 103.113 25.3916 103.027 25.4156 102.945C25.4396 102.862 25.492 102.788 25.5662 102.731C25.6404 102.673 25.733 102.636 25.8324 102.623C25.9318 102.61 26.0335 102.622 26.1247 102.658C26.1855 102.682 26.2401 102.716 26.2854 102.757C26.3306 102.799 26.3657 102.848 26.3885 102.901C26.4113 102.954 26.4215 103.011 26.4183 103.067C26.4152 103.124 26.3988 103.179 26.3702 103.23Z" fill="white"/>
        <path d="M33.2286 100.813C33.1857 100.89 33.1168 100.954 33.0307 100.998C32.9445 101.041 32.8449 101.063 32.7445 101.059C32.644 101.055 32.5472 101.026 32.4663 100.975C32.3853 100.925 32.3239 100.856 32.2896 100.776C32.2554 100.696 32.25 100.61 32.274 100.527C32.298 100.445 32.3504 100.371 32.4246 100.313C32.4988 100.256 32.5914 100.219 32.6908 100.206C32.7902 100.193 32.8919 100.205 32.9831 100.241C33.0439 100.265 33.0985 100.298 33.1438 100.34C33.189 100.382 33.2241 100.431 33.2469 100.484C33.2697 100.537 33.2799 100.593 33.2767 100.65C33.2736 100.706 33.2572 100.762 33.2286 100.813Z" fill="white"/>
        <path d="M31.6927 104.819C31.6498 104.895 31.5809 104.96 31.4948 105.003C31.4086 105.047 31.309 105.068 31.2086 105.064C31.1081 105.06 31.0113 105.031 30.9304 104.981C30.8494 104.931 30.788 104.861 30.7538 104.782C30.7195 104.702 30.7141 104.615 30.7381 104.533C30.7621 104.451 30.8145 104.376 30.8887 104.319C30.9629 104.262 31.0555 104.224 31.1549 104.211C31.2543 104.198 31.356 104.211 31.4472 104.246C31.508 104.27 31.5626 104.304 31.6079 104.346C31.6532 104.387 31.6882 104.436 31.711 104.489C31.7339 104.543 31.744 104.599 31.7408 104.656C31.7377 104.712 31.7214 104.768 31.6927 104.819Z" fill="white"/>
        <path d="M24.6022 106.939C24.5593 107.015 24.4904 107.079 24.4042 107.123C24.318 107.167 24.2184 107.188 24.118 107.184C24.0175 107.18 23.9207 107.151 23.8398 107.101C23.7589 107.051 23.6974 106.981 23.6632 106.901C23.629 106.822 23.6235 106.735 23.6475 106.653C23.6716 106.571 23.724 106.496 23.7982 106.439C23.8723 106.382 23.965 106.344 24.0643 106.331C24.1637 106.318 24.2654 106.33 24.3566 106.366C24.4174 106.39 24.472 106.424 24.5173 106.466C24.5626 106.507 24.5976 106.556 24.6205 106.609C24.6433 106.663 24.6534 106.719 24.6503 106.775C24.6471 106.832 24.6308 106.887 24.6022 106.939Z" fill="white"/>
        <path d="M27.8707 111.998C27.8278 112.075 27.7589 112.139 27.6728 112.183C27.5866 112.227 27.487 112.248 27.3865 112.244C27.2861 112.24 27.1893 112.211 27.1084 112.161C27.0274 112.11 26.966 112.041 26.9317 111.961C26.8975 111.882 26.8921 111.795 26.9161 111.713C26.9401 111.63 26.9925 111.556 27.0667 111.499C27.1409 111.441 27.2335 111.404 27.3329 111.391C27.4323 111.378 27.534 111.39 27.6251 111.426C27.6859 111.45 27.7406 111.484 27.7858 111.525C27.8311 111.567 27.8662 111.616 27.889 111.669C27.9118 111.722 27.922 111.779 27.9188 111.835C27.9157 111.892 27.8993 111.947 27.8707 111.998Z" fill="white"/>
        <path d="M26.1693 114.901C26.1264 114.978 26.0575 115.042 25.9713 115.086C25.8852 115.129 25.7856 115.151 25.6851 115.147C25.5847 115.143 25.4879 115.114 25.4069 115.063C25.326 115.013 25.2645 114.944 25.2303 114.864C25.1961 114.784 25.1907 114.698 25.2147 114.615C25.2387 114.533 25.2911 114.459 25.3653 114.401C25.4395 114.344 25.5321 114.307 25.6315 114.294C25.7309 114.281 25.8326 114.293 25.9237 114.329C25.9845 114.353 26.0391 114.387 26.0844 114.428C26.1297 114.47 26.1648 114.519 26.1876 114.572C26.2104 114.625 26.2205 114.682 26.2174 114.738C26.2143 114.795 26.1979 114.85 26.1693 114.901Z" fill="white"/>
        <path d="M23.1287 110.21C23.1004 110.261 23.0604 110.307 23.0109 110.346C22.9614 110.384 22.9035 110.413 22.8404 110.433C22.7773 110.452 22.7104 110.46 22.6434 110.458C22.5764 110.455 22.5107 110.441 22.45 110.417C22.3591 110.381 22.2829 110.323 22.231 110.25C22.1792 110.178 22.1541 110.094 22.1588 110.009C22.1635 109.924 22.1978 109.843 22.2575 109.774C22.3172 109.706 22.3995 109.654 22.494 109.625C22.5886 109.597 22.6912 109.592 22.7888 109.612C22.8864 109.633 22.9748 109.677 23.0427 109.739C23.1106 109.802 23.155 109.88 23.1703 109.964C23.1856 110.048 23.1711 110.133 23.1287 110.21Z" fill="white"/>
        <path d="M18.3377 113.888C18.3083 113.939 18.2674 113.985 18.217 114.023C18.1667 114.061 18.1081 114.09 18.0444 114.109C17.9808 114.127 17.9134 114.135 17.8461 114.132C17.7788 114.129 17.713 114.114 17.6523 114.09C17.5916 114.065 17.5373 114.03 17.4924 113.988C17.4476 113.946 17.4131 113.896 17.3909 113.842C17.3687 113.789 17.3593 113.732 17.3631 113.675C17.367 113.619 17.3841 113.563 17.4134 113.512C17.4726 113.408 17.5781 113.329 17.7066 113.291C17.8352 113.254 17.9762 113.26 18.0988 113.31C18.2213 113.36 18.3154 113.449 18.3602 113.558C18.405 113.666 18.3969 113.785 18.3377 113.888Z" fill="white"/>
        <path d="M26.4952 109.401C26.4523 109.477 26.3834 109.542 26.2973 109.585C26.2111 109.629 26.1115 109.65 26.0111 109.646C25.9106 109.642 25.8138 109.613 25.7329 109.563C25.6519 109.513 25.5905 109.443 25.5562 109.364C25.522 109.284 25.5166 109.197 25.5406 109.115C25.5646 109.033 25.617 108.958 25.6912 108.901C25.7654 108.844 25.858 108.806 25.9574 108.793C26.0568 108.78 26.1585 108.793 26.2497 108.828C26.3105 108.852 26.3651 108.886 26.4104 108.928C26.4556 108.969 26.4907 109.018 26.5135 109.071C26.5363 109.125 26.5465 109.181 26.5433 109.238C26.5402 109.294 26.5238 109.35 26.4952 109.401Z" fill="white"/>
        <path d="M24.7943 112.586C24.7514 112.662 24.6825 112.727 24.5963 112.77C24.5102 112.814 24.4106 112.835 24.3101 112.831C24.2097 112.827 24.1129 112.798 24.0319 112.748C23.951 112.698 23.8895 112.628 23.8553 112.549C23.8211 112.469 23.8157 112.382 23.8397 112.3C23.8637 112.218 23.9161 112.143 23.9903 112.086C24.0645 112.029 24.1571 111.991 24.2565 111.978C24.3559 111.965 24.4576 111.978 24.5487 112.013C24.6095 112.037 24.6641 112.071 24.7094 112.113C24.7547 112.155 24.7898 112.203 24.8126 112.257C24.8354 112.31 24.8455 112.366 24.8424 112.423C24.8393 112.479 24.8229 112.535 24.7943 112.586Z" fill="white"/>
        <path d="M23.0394 115.744C22.9965 115.821 22.9276 115.885 22.8415 115.929C22.7553 115.973 22.6557 115.994 22.5552 115.99C22.4548 115.986 22.358 115.957 22.2771 115.907C22.1961 115.856 22.1347 115.787 22.1004 115.707C22.0662 115.628 22.0608 115.541 22.0848 115.459C22.1088 115.376 22.1612 115.302 22.2354 115.245C22.3096 115.187 22.4022 115.15 22.5016 115.137C22.601 115.124 22.7027 115.136 22.7938 115.172C22.8547 115.196 22.9093 115.23 22.9545 115.271C22.9998 115.313 23.0349 115.362 23.0577 115.415C23.0805 115.468 23.0907 115.525 23.0875 115.581C23.0844 115.638 23.068 115.693 23.0394 115.744Z" fill="white"/>
        <path d="M24.58 118.135C24.5219 118.237 24.4181 118.317 24.2911 118.356C24.164 118.394 24.024 118.389 23.9013 118.342C23.8406 118.317 23.7863 118.282 23.7415 118.24C23.6966 118.198 23.6621 118.148 23.6399 118.094C23.6177 118.041 23.6083 117.984 23.6122 117.927C23.616 117.871 23.6331 117.815 23.6624 117.764C23.6917 117.713 23.7327 117.667 23.783 117.629C23.8334 117.591 23.892 117.562 23.9557 117.543C24.0193 117.525 24.0867 117.517 24.154 117.52C24.2213 117.523 24.2871 117.538 24.3478 117.562C24.4674 117.613 24.5587 117.702 24.6021 117.809C24.6454 117.916 24.6375 118.033 24.58 118.135Z" fill="white"/>
        <path d="M19.9316 110.895C19.8724 110.999 19.767 111.078 19.6384 111.116C19.5099 111.154 19.3688 111.147 19.2463 111.097C19.1237 111.047 19.0297 110.958 18.9849 110.85C18.9401 110.741 18.9482 110.622 19.0074 110.519C19.0367 110.468 19.0777 110.422 19.128 110.384C19.1783 110.346 19.237 110.317 19.3006 110.299C19.3643 110.28 19.4316 110.272 19.4989 110.275C19.5662 110.278 19.6321 110.293 19.6928 110.318C19.7535 110.342 19.8078 110.377 19.8526 110.419C19.8975 110.462 19.932 110.511 19.9542 110.565C19.9763 110.618 19.9858 110.675 19.9819 110.732C19.978 110.789 19.961 110.844 19.9316 110.895Z" fill="white"/>
        <path d="M21.4632 113.21C21.4203 113.287 21.3515 113.351 21.2653 113.395C21.1791 113.439 21.0795 113.46 20.9791 113.456C20.8786 113.452 20.7818 113.423 20.7009 113.373C20.6199 113.322 20.5585 113.253 20.5243 113.173C20.4901 113.094 20.4846 113.007 20.5086 112.925C20.5327 112.842 20.5851 112.768 20.6592 112.711C20.7334 112.653 20.826 112.616 20.9254 112.603C21.0248 112.59 21.1265 112.602 21.2177 112.638C21.2785 112.662 21.3331 112.696 21.3784 112.738C21.4237 112.779 21.4587 112.828 21.4815 112.881C21.5044 112.934 21.5145 112.991 21.5114 113.047C21.5082 113.104 21.4919 113.159 21.4632 113.21Z" fill="white"/>
        <path d="M27.5892 117.544C27.5463 117.62 27.4774 117.685 27.3913 117.728C27.3051 117.772 27.2055 117.793 27.1051 117.789C27.0046 117.785 26.9078 117.756 26.8269 117.706C26.7459 117.656 26.6845 117.586 26.6502 117.507C26.616 117.427 26.6106 117.34 26.6346 117.258C26.6586 117.176 26.711 117.101 26.7852 117.044C26.8594 116.987 26.952 116.949 27.0514 116.936C27.1508 116.923 27.2525 116.936 27.3437 116.971C27.4657 117.02 27.5598 117.108 27.6058 117.215C27.6518 117.322 27.6458 117.44 27.5892 117.544Z" fill="white"/>
        <path d="M19.8649 116.309C19.8219 116.386 19.7531 116.45 19.6669 116.493C19.5807 116.537 19.4811 116.558 19.3807 116.554C19.2802 116.55 19.1834 116.521 19.1025 116.471C19.0215 116.421 18.9601 116.351 18.9259 116.272C18.8917 116.192 18.8862 116.106 18.9102 116.023C18.9343 115.941 18.9867 115.866 19.0608 115.809C19.135 115.752 19.2276 115.714 19.327 115.702C19.4264 115.689 19.5281 115.701 19.6193 115.737C19.6801 115.76 19.7347 115.794 19.78 115.836C19.8253 115.878 19.8603 115.927 19.8832 115.98C19.906 116.033 19.9161 116.089 19.913 116.146C19.9098 116.202 19.8935 116.258 19.8649 116.309Z" fill="white"/>
        <path d="M31.1122 111.359C31.0693 111.435 31.0004 111.5 30.9142 111.543C30.828 111.587 30.7284 111.608 30.628 111.604C30.5276 111.6 30.4307 111.571 30.3498 111.521C30.2689 111.471 30.2074 111.401 30.1732 111.322C30.139 111.242 30.1335 111.155 30.1576 111.073C30.1816 110.991 30.234 110.916 30.3082 110.859C30.3823 110.802 30.475 110.764 30.5743 110.751C30.6737 110.738 30.7754 110.751 30.8666 110.786C30.9274 110.81 30.982 110.844 31.0273 110.886C31.0726 110.927 31.1076 110.976 31.1305 111.029C31.1533 111.083 31.1634 111.139 31.1603 111.196C31.1571 111.252 31.1408 111.307 31.1122 111.359Z" fill="white"/>
        <path d="M29.4154 114.415C29.3725 114.492 29.3036 114.556 29.2174 114.6C29.1313 114.644 29.0317 114.665 28.9312 114.661C28.8308 114.657 28.734 114.628 28.653 114.578C28.5721 114.527 28.5106 114.458 28.4764 114.378C28.4422 114.298 28.4368 114.212 28.4608 114.13C28.4848 114.047 28.5372 113.973 28.6114 113.916C28.6856 113.858 28.7782 113.821 28.8776 113.808C28.977 113.795 29.0787 113.807 29.1698 113.843C29.2306 113.867 29.2852 113.901 29.3305 113.942C29.3758 113.984 29.4109 114.033 29.4337 114.086C29.4565 114.139 29.4666 114.196 29.4635 114.252C29.4604 114.309 29.444 114.364 29.4154 114.415Z" fill="white"/>
        <path d="M29.7416 108.844C29.6987 108.92 29.6298 108.984 29.5436 109.028C29.4574 109.072 29.3578 109.093 29.2574 109.089C29.1569 109.085 29.0601 109.056 28.9792 109.006C28.8983 108.956 28.8368 108.886 28.8026 108.806C28.7684 108.727 28.7629 108.64 28.787 108.558C28.811 108.476 28.8634 108.401 28.9376 108.344C29.0117 108.287 29.1044 108.249 29.2037 108.236C29.3031 108.223 29.4048 108.236 29.496 108.271C29.5568 108.295 29.6114 108.329 29.6567 108.371C29.702 108.412 29.737 108.461 29.7599 108.514C29.7827 108.568 29.7928 108.624 29.7897 108.68C29.7865 108.737 29.7702 108.792 29.7416 108.844Z" fill="white"/>
        <path d="M33.3224 107.891C33.2795 107.968 33.2106 108.032 33.1244 108.075C33.0382 108.119 32.9387 108.14 32.8382 108.136C32.7378 108.132 32.641 108.103 32.56 108.053C32.4791 108.003 32.4176 107.933 32.3834 107.854C32.3492 107.774 32.3437 107.688 32.3678 107.605C32.3918 107.523 32.4442 107.448 32.5184 107.391C32.5925 107.334 32.6852 107.296 32.7846 107.284C32.8839 107.271 32.9856 107.283 33.0768 107.319C33.1376 107.342 33.1922 107.376 33.2375 107.418C33.2828 107.46 33.3179 107.509 33.3407 107.562C33.3635 107.615 33.3736 107.671 33.3705 107.728C33.3673 107.784 33.351 107.84 33.3224 107.891Z" fill="white"/>
        <path d="M13.5781 115.767C14.5783 119.908 25.4907 124.373 26.2364 124.355C26.982 124.336 34.2243 109.22 34.2243 109.22C34.2243 109.22 25.397 106.773 21.4231 102.421C21.4231 102.421 13.2655 114.468 13.5781 115.767Z" fill="#455A64"/>
        <path d="M97.8147 150.083H55.5802C53.0084 141.8 50.6464 134.493 49.1417 129.877C48.1951 126.975 47.5879 125.134 47.4718 124.787C47.4656 124.767 47.4581 124.747 47.4495 124.727H91.3717L92.7112 129.919C93.2426 132.019 93.9168 134.67 94.6937 137.701C94.7562 137.964 94.8277 138.231 94.8946 138.51C95.7787 141.981 96.7744 145.915 97.8147 150.083Z" fill="#455A64"/>
        <path d="M61.9834 150.083H61.1886C59.0275 143.369 56.9186 136.643 54.8617 129.904L54.692 129.335C54.6518 129.181 54.9242 129.109 54.9778 129.264C55.0537 129.478 55.1296 129.689 55.201 129.904C57.5318 136.613 59.7732 143.344 61.9834 150.083Z" fill="#263238"/>
        <path d="M87.9516 124.787C87.6072 126.547 87.1057 128.283 86.4514 129.979C85.9602 131.327 85.3664 132.784 84.6966 134.286C84.5538 134.629 84.393 134.96 84.2501 135.299C82.1203 139.873 79.3386 144.534 76.4632 146.747H76.4408C76.1037 147.019 75.7358 147.263 75.3424 147.474L72.8956 148.75C72.8983 148.76 72.8983 148.771 72.8956 148.78C72.8956 148.905 72.784 149.353 72.6456 150.076H31.4202C30.3664 142.026 32.5632 134.497 34.4787 129.776C35.1491 128.069 35.9484 126.4 36.8719 124.78L87.9516 124.787Z" fill="#455A64"/>
        <path d="M83.0402 144.786C80.4497 145.986 77.7814 147.062 75.0479 148.009C74.3201 148.273 73.5923 148.532 72.8511 148.785C72.8064 148.785 72.7618 148.818 72.7171 148.83C72.0801 149.053 71.4416 149.268 70.8017 149.474C70.1766 149.677 69.5559 149.888 68.9219 150.083H67.5288C68.4888 149.677 69.4934 149.331 70.4713 148.954C71.8286 148.452 73.1904 147.95 74.5567 147.448C75.1774 147.222 75.798 146.993 76.4142 146.759H76.4365C78.5663 145.961 80.6872 145.163 82.8795 144.5C83.0983 144.41 83.2412 144.688 83.0402 144.786Z" fill="#263238"/>
        <path d="M72.8732 148.811C72.8732 149.082 72.8464 149.53 72.7839 150.083H72.3374C72.4803 149.564 72.6098 149.139 72.7348 148.83C72.7335 148.819 72.7335 148.807 72.7348 148.796C72.7571 148.747 72.8375 148.743 72.8554 148.796C72.8554 148.796 72.8732 148.8 72.8732 148.811Z" fill="#263238"/>
        <path d="M40.8595 126.952C40.3013 127.893 39.7968 128.835 39.328 129.821C36.4845 135.716 35.4109 142.113 36.2024 148.442C36.2784 148.992 36.3721 149.537 36.4703 150.083H35.7559C35.474 148.493 35.3099 146.89 35.2648 145.283C35.1174 139.967 36.3455 134.688 38.8636 129.814C39.3905 128.801 39.9754 127.807 40.6139 126.839C40.6227 126.826 40.6346 126.814 40.6489 126.804C40.6632 126.794 40.6796 126.787 40.6972 126.783C40.7148 126.778 40.7333 126.777 40.7516 126.779C40.7698 126.78 40.7875 126.785 40.8036 126.792C40.8198 126.8 40.834 126.81 40.8455 126.822C40.8571 126.834 40.8657 126.848 40.8709 126.862C40.876 126.877 40.8777 126.893 40.8757 126.908C40.8738 126.924 40.8683 126.939 40.8595 126.952Z" fill="#263238"/>
        <path d="M71.8375 139.12C71.8777 137.78 71.9893 136.443 72.0696 135.107C72.2527 131.952 72.4001 128.778 72.7483 125.635C72.7483 125.609 72.7606 125.584 72.7823 125.565C72.8041 125.547 72.8336 125.537 72.8644 125.537C72.8952 125.537 72.9247 125.547 72.9465 125.565C72.9683 125.584 72.9805 125.609 72.9805 125.635C73.0252 128.074 72.9135 130.529 72.8555 132.965C72.8242 134.184 72.7841 135.408 72.7439 136.628C72.6657 137.792 72.6568 138.96 72.7171 140.125C72.793 141.006 73.0207 142.715 74.3825 142.821C75.6685 142.922 76.682 141.755 77.0035 140.901C77.8161 138.725 78.1063 136.383 78.3698 134.124C78.5261 132.788 78.7091 127.347 78.6243 125.985C78.6243 125.898 78.7761 125.902 78.785 125.985C78.8743 127.363 79.0976 128.733 79.1512 130.126C79.2047 131.519 79.2092 132.882 79.1065 134.267C79.0038 135.585 78.8743 136.903 78.6377 138.216C78.4788 139.411 78.1413 140.584 77.6331 141.706C77.1598 142.633 76.3471 143.483 75.1148 143.687C74.9672 143.708 74.818 143.72 74.6683 143.724C74.6683 144.007 74.6058 144.293 74.5835 144.571C74.5477 145.016 74.4808 145.452 74.4093 145.893C74.3372 146.325 74.2313 146.753 74.0923 147.173C73.9802 147.598 73.7999 148.008 73.5565 148.393C73.5472 148.405 73.5336 148.414 73.5178 148.419C73.5019 148.424 73.4846 148.425 73.4683 148.421C73.4519 148.417 73.4374 148.409 73.4268 148.398C73.4162 148.387 73.41 148.373 73.4092 148.359C73.3971 147.936 73.4391 147.513 73.5342 147.098C73.6056 146.668 73.6771 146.232 73.7797 145.81C73.8824 145.388 73.9762 144.971 74.0789 144.553C74.1459 144.274 74.1905 143.984 74.253 143.702C73.8552 143.643 73.481 143.501 73.1639 143.291C72.8467 143.08 72.5966 142.806 72.4358 142.493C71.8509 141.45 71.8062 140.234 71.8375 139.12Z" fill="#263238"/>
        <path d="M71.0785 78.5893C76.4053 84.2177 97.2926 104.19 108.902 106.054C116.72 107.315 141.835 96.5362 147.336 92.6321C149.569 91.0358 137.009 75.2349 133.941 75.8711C130.619 76.5601 112.545 86.6912 110.196 86.5745C107.848 86.4578 89.3493 77.6895 78.1287 73.808C71.3866 71.4588 68.078 75.4231 71.0785 78.5893Z" fill="#AD6359"/>
        <path d="M140.438 96.3968C145.269 94.8268 159.919 86.164 162.352 83.9126C164.785 81.6613 171.233 74.7679 169.375 73.021C167.518 71.2742 165.446 73.1679 165.446 73.1679C165.446 73.1679 167.889 69.6101 165.567 68.2736C163.714 67.2082 160.62 69.7419 160.62 69.7419C160.62 69.7419 163.053 65.7248 160.548 64.6519C158.267 63.673 155.753 67.1141 155.753 67.1141C155.753 67.1141 157.382 63.5789 154.971 62.9953C152.069 62.2876 149.243 68.4054 146.336 70.7207C145.675 71.2441 126.177 79.312 126.177 79.312L140.438 96.3968Z" fill="#AD6359"/>
        <path d="M155.646 66.9373C152.967 71.3384 151.716 73.0928 147.162 75.9089C147.073 75.9616 147.162 76.0859 147.251 76.0369C151.993 73.6199 153.663 71.6283 155.896 67.0013C156.016 66.7867 155.771 66.734 155.646 66.9373Z" fill="#263238"/>
        <path d="M160.566 69.7418C157.91 74.2596 155.878 75.9575 151.382 79.199C151.315 79.2441 151.382 79.342 151.471 79.3006C156.199 76.4281 158.807 74.5796 160.758 69.7795C160.848 69.5649 160.687 69.5385 160.566 69.7418Z" fill="#263238"/>
        <path d="M165.223 73.3301C162.276 77.5391 160.218 79.6098 155.369 82.2828C155.344 82.2948 155.326 82.3146 155.318 82.3379C155.311 82.3612 155.314 82.3861 155.329 82.4071C155.343 82.428 155.366 82.4434 155.394 82.4497C155.422 82.4561 155.451 82.4529 155.476 82.4409C160.731 80.118 163.33 77.5467 165.366 73.4054C165.504 73.1381 165.406 73.0552 165.223 73.3301Z" fill="#263238"/>
        <path d="M184.677 85.7573C171.858 88.9123 159.227 92.071 146.948 95.2259C139.594 81.296 138.509 67.3662 133.472 53.4364C146.309 50.2777 158.923 47.1228 171.251 43.9641C178.591 57.8902 179.654 71.8238 184.677 85.7573Z" fill="white"/>
        <path d="M184.677 85.7578C178.286 87.3591 171.955 88.9579 165.683 90.5542C159.411 92.1505 153.185 93.7455 147.006 95.3393L146.881 95.3731L146.818 95.2602C139.433 81.3304 138.335 67.4005 133.258 53.4707C133.236 53.4105 133.218 53.3502 133.196 53.29L133.405 53.2373C146.242 50.0974 158.856 46.9576 171.184 43.8252L171.331 43.7876L171.398 43.9156C175.059 50.8993 177.145 57.8831 178.944 64.8668C180.743 71.8506 182.203 78.7966 184.677 85.7578ZM184.677 85.7578C182.128 78.7891 180.565 71.828 178.716 64.848C176.868 57.868 174.778 50.9445 171.126 43.9947L171.336 44.085C159.026 47.2588 146.394 50.4363 133.557 53.61L133.705 53.3766C138.719 67.3064 139.777 81.2551 147.1 95.1924L146.917 95.1134C153.06 93.5522 159.28 91.9911 165.576 90.4299C171.871 88.8688 178.239 87.3114 184.677 85.7578Z" fill="#263238"/>
        <path d="M139.54 59.5017C146.783 57.7448 153.982 55.9879 161.138 54.231C161.263 54.5886 161.388 54.9463 161.508 55.3039C154.337 57.0608 147.117 58.8178 139.848 60.5747C139.746 60.2321 139.643 59.8782 139.54 59.5017Z" fill="#DBDBDB"/>
        <path d="M140.309 62.2277C147.587 60.4708 154.832 58.7139 162.044 56.957L162.379 58.03C155.158 59.7869 147.898 61.5438 140.599 63.3007C140.505 62.943 140.407 62.5854 140.309 62.2277Z" fill="#DBDBDB"/>
        <path d="M141.031 64.9382C148.336 63.1813 155.616 61.4244 162.87 59.6675C162.973 60.044 163.08 60.3828 163.178 60.7404C155.918 62.4974 148.625 64.2543 141.299 66.0112C141.219 65.6535 141.125 65.2959 141.031 64.9382Z" fill="#DBDBDB"/>
        <path d="M141.728 67.645C152.444 65.0749 163.128 62.5035 173.778 59.9309L174.086 61.0076C163.442 63.5753 152.721 66.1466 142.001 68.718C141.907 68.3603 141.818 68.0027 141.728 67.645Z" fill="#DBDBDB"/>
        <path d="M142.425 70.3558C153.141 67.7831 163.849 65.2117 174.551 62.6416C174.649 62.9993 174.747 63.3569 174.841 63.7146C164.152 66.2872 153.436 68.8586 142.693 71.4287C142.59 71.0711 142.501 70.7134 142.425 70.3558Z" fill="#DBDBDB"/>
        <path d="M143.099 73.0551L175.247 65.3447C175.341 65.7212 175.434 66.06 175.524 66.4177C164.808 68.9891 154.092 71.5567 143.376 74.128C143.282 73.7779 143.193 73.4316 143.099 73.0551Z" fill="#DBDBDB"/>
        <path d="M143.809 75.7732C154.492 73.2006 165.208 70.6292 175.957 68.0591C176.051 68.4356 176.14 68.7744 176.229 69.1321C165.513 71.7022 154.806 74.2735 144.108 76.8461C144.001 76.4885 143.903 76.1308 143.809 75.7732Z" fill="#DBDBDB"/>
        <path d="M144.555 78.4803C155.195 75.909 165.911 73.3414 176.631 70.77C176.725 71.1277 176.814 71.4853 176.904 71.843C166.188 74.4156 155.509 76.9857 144.867 79.5533C144.76 79.1956 144.657 78.838 144.555 78.4803Z" fill="#DBDBDB"/>
        <path d="M145.358 81.1909C155.94 78.6183 166.595 76.0469 177.323 73.4768C177.417 73.8345 177.506 74.1921 177.6 74.5498C166.902 77.1224 156.268 79.6938 145.697 82.2639C145.581 81.9062 145.47 81.5485 145.358 81.1909Z" fill="#DBDBDB"/>
        <path d="M146.233 83.8979C156.735 81.3303 167.336 78.7601 178.038 76.1875C178.136 76.564 178.23 76.9028 178.332 77.2605C167.67 79.8319 157.07 82.4033 146.604 84.9746C146.479 84.6132 146.354 84.2555 146.233 83.8979Z" fill="#DBDBDB"/>
        <path d="M147.194 86.6084C157.612 84.0383 168.145 81.4669 178.792 78.8943C178.895 79.2708 178.998 79.6096 179.105 79.9673C168.496 82.5399 157.996 85.1113 147.604 87.6814C147.466 87.3237 147.336 86.9849 147.194 86.6084Z" fill="#DBDBDB"/>
        <path d="M148.261 89.3194C158.566 86.7493 169.014 84.1779 179.605 81.6052C179.717 81.9629 179.828 82.3205 179.944 82.6782C169.407 85.2483 158.998 87.8197 148.716 90.3924L148.261 89.3194Z" fill="#DBDBDB"/>
        <path d="M164.826 59.8405C164.348 56.9152 163.763 53.99 162.982 51.0647C165.424 53.1617 167.759 55.2587 170.032 57.3557L169.362 57.8715C167.773 56.3957 166.152 54.9199 164.482 53.4441C164.969 55.5335 165.375 57.6192 165.71 59.7087L164.826 59.8405Z" fill="#FFE497"/>
        <path d="M164.187 58.3195L163.669 57.7209C165.259 56.7169 166.834 55.7129 168.393 54.709L168.929 55.3076C167.366 56.3166 165.786 57.3205 164.187 58.3195Z" fill="#FFE497"/>
        <path d="M162.794 49.9167C162.06 50.3754 161.408 50.9221 160.861 51.5393C159.782 52.7899 159.217 54.3038 159.254 55.85C159.261 56.5999 159.456 57.3401 159.825 58.0224C160.205 58.6806 160.757 59.2574 161.44 59.7094C162.123 60.1613 162.919 60.4766 163.768 60.6314C165.473 60.9137 167.3 60.398 168.827 59.5471C170.39 58.7594 171.575 57.5334 172.175 56.0835C172.457 55.3722 172.545 54.6166 172.432 53.8728C172.319 53.129 172.009 52.4162 171.523 51.7878C170.989 51.1664 170.298 50.6522 169.501 50.2818C168.704 49.8934 167.818 49.6533 166.902 49.5778C165.992 49.5002 165.074 49.6074 164.223 49.8903C163.379 50.1836 162.601 50.5976 161.924 51.1139C162.237 50.829 162.574 50.5635 162.933 50.3195C163.306 50.0854 163.705 49.8824 164.125 49.7134C164.987 49.36 165.939 49.1894 166.898 49.2164C167.905 49.258 168.89 49.4811 169.787 49.8708C170.683 50.2605 171.47 50.8076 172.095 51.4753C172.693 52.1653 173.078 52.9701 173.216 53.817C173.357 54.6531 173.279 55.5051 172.988 56.3131C172.337 57.9361 171.026 59.3125 169.286 60.1984C168.446 60.6658 167.524 61.0202 166.554 61.2488C165.581 61.4821 164.556 61.5195 163.562 61.358C162.592 61.1856 161.69 60.8101 160.937 60.2662C160.191 59.7317 159.594 59.0661 159.187 58.316C158.471 56.762 158.482 55.0368 159.218 53.4895C159.891 51.989 161.153 50.7281 162.794 49.9167Z" fill="#FFE497"/>
        <path d="M167.692 52.7253C167.18 52.133 166.658 51.5419 166.125 50.9521L166.826 50.5154C167.362 51.1052 167.889 51.6963 168.407 52.2886L167.692 52.7253Z" fill="#FFE497"/>
        <path d="M166.536 52.5406L166.004 51.9232L168.014 50.7034C168.197 50.9104 168.375 51.1175 168.558 51.3208L166.536 52.5406Z" fill="#FFE497"/>
        <path d="M126.177 79.3158C126.177 79.3158 130.923 75.2159 133.057 73.1792C135.191 71.1424 140.29 64.6782 143.059 64.8326C146.184 65.0057 143.925 71.8163 140.143 75.4757C140.143 75.4757 145.166 82.2298 141.733 85.8929C140.987 86.6835 135.575 89.1909 134.231 88.9575L126.177 79.3158Z" fill="#AD6359"/>
        <path d="M139.916 75.965C141.983 78.5326 143.421 82.4443 141.938 85.2792C141.931 85.2953 141.931 85.313 141.938 85.3291C141.946 85.3451 141.959 85.3585 141.977 85.3667C141.995 85.3749 142.016 85.3775 142.036 85.3738C142.056 85.3702 142.073 85.3607 142.086 85.347C144.162 82.4895 142.532 77.9491 140.541 75.7466C140.152 75.3137 139.38 75.3137 139.916 75.965Z" fill="#263238"/>
        <path d="M126.177 79.3164L140.438 96.3973C140.48 97.4819 140.127 98.5513 139.427 99.4618C138.727 100.372 137.713 101.081 136.522 101.491C132.267 103.061 114.666 108.415 107.696 106.431C100.726 104.446 80.8434 89.9972 72.2661 80.3932C63.6889 70.7891 76.365 72.6979 78.7806 73.6165C81.1962 74.5351 109.553 85.8032 110.563 85.7844C111.572 85.7655 118.153 81.5452 121.279 80.235C124.404 78.9249 126.177 79.3164 126.177 79.3164Z" fill="#FFE497"/>
        <path opacity="0.1" d="M117.867 106.298C113.849 106.92 110.129 107.123 107.705 106.43C100.731 104.442 80.8479 90.0005 72.2706 80.3889C71.7259 79.7828 71.2705 79.2181 70.8865 78.7061L117.867 106.298Z" fill="black"/>
        <path d="M134.883 99.9245C133.575 98.5729 132.486 97.0708 131.347 95.6251C130.209 94.1794 129.115 92.7713 128.012 91.3332C125.779 88.438 123.471 85.5617 121.475 82.5574C121.469 82.5436 121.468 82.5285 121.474 82.5145C121.479 82.5006 121.49 82.4886 121.505 82.4806C121.52 82.4727 121.537 82.4692 121.554 82.4709C121.572 82.4725 121.588 82.4791 121.6 82.4896C124.176 85.2266 126.422 88.1858 128.682 91.096C129.816 92.5542 130.924 94.025 132.008 95.5084C133.108 96.9144 134.114 98.3711 135.022 99.8718C135.062 99.9433 134.937 99.981 134.883 99.9245Z" fill="#263238"/>
        <g opacity="0.1">
            <path opacity="0.1" d="M130.311 103.463L128.7 103.926C128.615 103.428 128.575 102.924 128.579 102.421C128.579 101.468 128.668 100.538 128.655 99.6308C128.659 98.7232 128.554 97.8176 128.342 96.9277C128.127 96.0555 127.764 95.2137 127.266 94.4279C127.146 94.2321 127.007 94.0514 126.878 93.8631C126.748 93.6749 126.601 93.5168 126.454 93.3436C126.137 93.001 125.806 92.6471 125.462 92.3007L123.409 90.1962C122.712 89.4884 122.024 88.7769 121.346 88.0503C120.667 87.3237 120.006 86.5707 119.395 85.7914C118.76 84.9859 118.211 84.1342 117.756 83.2464C117.599 82.9219 117.465 82.59 117.354 82.2525C117.93 81.9325 118.497 81.6238 119.033 81.3376C119.21 81.7437 119.414 82.1409 119.645 82.5273C120.137 83.2883 120.682 84.0249 121.274 84.7335C122.471 86.2018 123.73 87.6813 124.994 89.176C125.623 89.9289 126.271 90.6819 126.86 91.4612C127.155 91.8565 127.449 92.2556 127.713 92.6885C127.842 92.9069 127.972 93.1215 128.088 93.3624C128.204 93.6034 128.289 93.8217 128.369 94.0551C129.03 95.9074 129.128 97.7748 129.383 99.6007C129.555 100.909 129.866 102.202 130.311 103.463Z" fill="black"/>
            <path opacity="0.1" d="M124.676 104.935C124.23 105.041 123.81 105.142 123.368 105.24C122.832 103.682 122.801 102.146 122.761 100.628V98.279C122.761 97.9026 122.761 97.5073 122.725 97.127C122.715 96.7583 122.672 96.3908 122.596 96.0277C122.58 95.9454 122.554 95.8647 122.52 95.7867L122.408 95.5307L122.274 95.2823C122.225 95.1994 122.167 95.1204 122.118 95.0375C121.891 94.713 121.622 94.4111 121.314 94.1377C120.672 93.5879 119.944 93.1154 119.149 92.7335C118.751 92.5302 118.341 92.357 117.925 92.1725L116.671 91.6341C115.773 91.2814 114.962 90.7883 114.282 90.1809C114.113 90.011 113.964 89.8282 113.835 89.635C113.768 89.5371 113.71 89.4317 113.652 89.3301L113.514 89.0289C113.353 88.6315 113.232 88.2235 113.152 87.8091C113.001 87.0076 112.944 86.1955 112.983 85.3845C112.983 85.1473 113.009 84.9102 113.032 84.673L113.925 84.176C113.925 84.5789 113.925 84.9779 113.965 85.377C114.001 86.1351 114.103 86.8901 114.268 87.6359C114.355 87.9938 114.471 88.346 114.617 88.69L114.733 88.9385C114.777 89.0101 114.809 89.0853 114.858 89.1606C114.951 89.3087 115.057 89.4509 115.175 89.5861C115.721 90.1657 116.358 90.6799 117.068 91.1146C117.796 91.5852 118.586 92.0106 119.367 92.4436C120.175 92.8578 120.944 93.3235 121.667 93.8366C122.038 94.1031 122.377 94.3994 122.681 94.7213C122.833 94.8865 122.975 95.0587 123.105 95.2371L123.288 95.5119C123.348 95.613 123.4 95.7174 123.444 95.8244C123.599 96.2211 123.709 96.6296 123.77 97.0442C123.846 97.4433 123.886 97.8423 123.926 98.2376C124.002 99.0282 124.047 99.8113 124.109 100.587C124.172 101.362 124.239 102.138 124.328 102.898C124.389 103.583 124.506 104.264 124.676 104.935Z" fill="black"/>
        </g>
        <path d="M32.3446 132.26C32.3893 132.309 93.3232 129.907 93.7206 129.591C93.9037 129.444 94.694 126.519 93.7608 122.457C90.9612 110.277 82.5715 85.3996 75.173 74.8731C73.3244 72.2378 64.9927 68.3638 58.9471 73.3409C46.6907 83.4306 37.0686 109.107 33.2778 123.21C31.4204 130.103 32.0946 131.967 32.3446 132.26Z" fill="#FFE497"/>
        <g opacity="0.1">
            <path opacity="0.1" d="M93.4882 121.294C93.3051 121.294 93.122 121.294 92.9434 121.316C91.2112 121.456 89.4906 121.683 87.7908 121.998C84.2858 122.6 80.7182 123.278 77.1239 123.952C75.3379 124.287 73.5251 124.641 71.6721 124.897C70.7434 125.021 69.8102 125.145 68.8413 125.205C68.3502 125.232 67.8679 125.262 67.3411 125.254C66.8142 125.247 66.3677 125.213 65.881 125.164C62.0188 124.814 58.5048 123.711 54.9551 122.841C51.4055 121.971 47.7442 121.376 44.4847 121.388C43.681 121.388 42.8148 121.444 41.9441 121.512C41.0734 121.58 40.2028 121.689 39.3232 121.798C37.5684 122.035 35.7958 122.333 34.0277 122.656L33.3892 122.777C33.6035 121.986 33.8357 121.158 34.0902 120.303C35.6227 119.876 37.1818 119.521 38.7606 119.238C39.6893 119.067 40.6329 118.932 41.5914 118.831C42.0736 118.782 42.5558 118.741 43.0425 118.718C43.548 118.69 44.0551 118.69 44.5606 118.718C46.5334 118.831 48.4662 119.242 50.2669 119.931C52.0261 120.548 53.6692 121.278 55.3659 121.87C57.0416 122.474 58.786 122.933 60.5721 123.24C62.3283 123.532 64.1249 123.612 65.9078 123.477C66.3543 123.451 66.8008 123.394 67.2071 123.345C67.6134 123.296 68.0242 123.206 68.4439 123.123C69.2923 122.931 70.1585 122.747 71.0202 122.513L76.2756 121.199C78.0348 120.751 79.8118 120.315 81.6023 119.904C83.3928 119.494 85.2145 119.129 87.0764 118.839C88.9419 118.54 90.835 118.382 92.7336 118.365C93.0104 119.389 93.2604 120.371 93.4882 121.294Z" fill="black"/>
            <path opacity="0.1" d="M90.8315 111.742C89.5908 111.37 88.3232 111.066 87.0363 110.831C86.318 110.706 85.5897 110.625 84.8574 110.59H84.326C84.1608 110.59 84.0001 110.59 83.8349 110.609C83.4984 110.636 83.1644 110.682 82.8347 110.745C81.4043 111.08 80.0345 111.578 78.7626 112.224C77.4231 112.872 76.0836 113.625 74.7888 114.374C73.4887 115.16 72.12 115.862 70.6944 116.475C69.9571 116.785 69.1874 117.037 68.3949 117.228C67.9892 117.319 67.5778 117.392 67.1625 117.446L66.5196 117.48C66.2921 117.493 66.0639 117.493 65.8364 117.48C65.0006 117.424 64.1735 117.297 63.3673 117.103C62.5814 116.938 61.8179 116.727 61.0633 116.52C59.5497 116.098 58.0718 115.643 56.5983 115.21C55.1249 114.777 53.647 114.355 52.1824 113.971C50.759 113.577 49.3022 113.275 47.8246 113.067C47.1343 112.98 46.4335 112.967 45.7394 113.03C45.0087 113.1 44.285 113.214 43.5739 113.372C42.0945 113.705 40.6418 114.118 39.225 114.607C37.948 115.044 36.677 115.511 35.4119 116.008C35.5503 115.575 35.6932 115.138 35.8584 114.694C36.7514 114.235 37.6578 113.8 38.5776 113.391C40.0133 112.75 41.5061 112.203 43.0426 111.757C43.8389 111.535 44.6538 111.362 45.4805 111.242C46.3457 111.114 47.2273 111.087 48.1014 111.159C51.4948 111.445 54.4819 112.454 57.4199 113.444L61.7777 114.95C62.4966 115.202 63.2199 115.439 63.9343 115.669C64.6212 115.897 65.3271 116.082 66.0463 116.222C66.2112 116.252 66.3783 116.272 66.5464 116.283L67.0911 116.301H67.6403C67.8278 116.301 68.0109 116.271 68.194 116.256C68.9429 116.173 69.6783 116.019 70.3863 115.797C71.8221 115.312 73.1738 114.666 74.4048 113.877C75.0343 113.5 75.6327 113.06 76.2444 112.642L78.0661 111.343C79.3029 110.492 80.6335 109.626 82.3302 109.167C82.7568 109.048 83.1966 108.964 83.6429 108.919C83.8706 108.892 84.0894 108.888 84.3305 108.877H84.9779C85.8181 108.927 86.6517 109.038 87.4694 109.209C88.4332 109.402 89.3793 109.654 90.3002 109.961L90.8315 111.742Z" fill="black"/>
        </g>
        <path d="M52.5487 74.5607C32.6571 81.6724 17.2127 87.8655 19.4541 94.3109C20.3471 96.8408 25.5265 103.666 32.1972 103.659C37.4391 103.659 46.7844 96.566 57.4335 84.1609C62.9477 77.7419 65.1088 70.0655 52.5487 74.5607Z" fill="#FFE497"/>
        <path d="M56.076 87.5646C55.2276 88.1556 54.3837 88.7618 53.5577 89.3792L54.0891 88.8597C55.5134 87.4366 56.9199 86.0022 58.3263 84.5678C58.3531 84.5376 58.2951 84.5 58.2638 84.5301C55.5848 86.9321 52.9058 89.3114 50.1956 91.7059C47.4853 94.1003 40.4172 100.165 38.6982 101.355C38.6625 101.381 38.6982 101.43 38.7428 101.408C40.2966 100.384 44.659 97.3042 46.052 96.1559C48.1565 94.419 50.1792 92.627 52.12 90.7797C53.5361 89.7955 54.888 88.7473 56.1697 87.6399C56.2189 87.5984 56.134 87.5232 56.076 87.5646Z" fill="#263238"/>
        <path d="M26.5667 99.759C17.8689 96.7472 12.2341 74.5009 10.0998 59.5282C9.69349 56.6783 36.4121 53.9337 36.4433 57.002C36.5505 74.5159 36.0951 103.049 26.5667 99.759Z" fill="#AD6359"/>
        <path d="M6.74068 47.8572C6.89696 52.6347 11.7504 64.5955 13.9874 66.5495C16.2244 68.5034 33.1869 61.6552 34.1201 59.0198C35.0533 56.3845 35.857 40.7154 32.1198 36.9957C28.3826 33.2761 6.57547 42.9102 6.74068 47.8572Z" fill="#AD6359"/>
        <path d="M36.5106 43.6896C35.0282 45.892 32.8001 43.1588 32.8001 43.1588C32.8001 43.1588 34.8853 47.7443 32.3179 49.5175C29.8354 51.2192 27.2769 47.8384 27.0939 47.5975C27.201 47.8422 28.987 52.1152 26.2009 53.655C23.2897 55.2702 21.4144 51.5053 21.2893 51.2606C21.2893 51.5204 21.4546 54.9163 19.0077 55.6918C14.8062 57.0246 14.1453 48.3429 11.319 46.4153C11.319 46.4153 6.9031 48.1471 6.74682 48.23C6.74682 48.23 5.92079 41.9201 9.2115 38.8481C9.68144 38.3945 10.3215 38.0903 11.025 37.9862C11.7285 37.8821 12.4532 37.9843 13.0782 38.2758C13.0782 38.2758 12.4665 35.6404 14.6231 34.3566C15.7304 33.6978 17.9674 34.6126 17.9674 34.6126C17.9674 34.6126 17.5789 32.4855 19.5793 31.4427C21.1777 30.6069 23.1513 31.6535 23.1513 31.6535C23.1513 31.6535 23.9014 29.4661 25.8615 29.0558C29.822 28.2162 39.6763 38.961 36.5106 43.6896Z" fill="#AD6359"/>
        <path d="M23.504 31.7664C23.4992 31.7594 23.4973 31.7513 23.4983 31.7434C23.4994 31.7354 23.5035 31.7279 23.51 31.722C23.5165 31.7161 23.525 31.7121 23.5344 31.7106C23.5438 31.7091 23.5534 31.7102 23.562 31.7137C27.8261 34.5787 31.4696 38.8292 32.9385 43.283C32.9877 43.4298 32.7242 43.5616 32.6349 43.4072C30.0809 39.0588 27.4019 35.3693 23.504 31.7664Z" fill="#263238"/>
        <path d="M17.9315 34.53C17.8913 34.4924 17.9672 34.4321 18.0208 34.466C22.3965 37.4402 26.3435 42.3232 27.3169 47.6429C27.3526 47.8236 27.1651 48.0194 27.107 47.8086C26.1426 44.3073 21.4588 37.7603 17.9315 34.53Z" fill="#263238"/>
        <path d="M21.2001 51.6408C20.0303 46.5847 17.0566 42.353 13.2614 38.3774C13.2122 38.3247 13.306 38.272 13.3596 38.3059C15.8466 39.8118 17.9496 42.5714 19.3739 44.8265C20.7446 46.8939 21.451 49.2273 21.4234 51.5956C21.4234 51.701 21.2225 51.75 21.2001 51.6408Z" fill="#263238"/>
        <path d="M32.8 43.1475C33.1033 44.0572 33.3066 44.9885 33.4072 45.9297C33.5449 46.842 33.3907 47.7688 32.9607 48.614C32.7437 48.9939 32.3663 49.292 31.9025 49.4498C31.4329 49.6047 30.924 49.6553 30.4246 49.5966C29.9325 49.5054 29.4688 49.3274 29.064 49.0744C28.6592 48.8213 28.3225 48.4989 28.076 48.1283L26.7812 46.3626L27.2723 48.3994C27.4972 49.3028 27.547 50.2309 27.4197 51.1477C27.2812 52.04 26.8615 52.8984 26.0534 53.3501C25.6795 53.5921 25.2187 53.7189 24.7475 53.7093C24.2763 53.6997 23.8232 53.5543 23.4637 53.2974C22.6726 52.7077 22.0732 51.9574 21.7223 51.1176L20.6552 48.8286L20.7713 51.2757C20.8077 51.9568 20.7386 52.6389 20.5659 53.305C20.4327 53.9414 20.0801 54.5306 19.5523 54.9991C19.3034 55.2009 18.9928 55.3402 18.6552 55.4014C18.3176 55.4626 17.9665 55.4432 17.6413 55.3455C16.954 55.0352 16.3857 54.5664 16.0026 53.9939C15.1615 52.7636 14.436 51.4797 13.8326 50.1538C13.4978 49.4912 13.1584 48.8286 12.7834 48.1773C12.4486 47.5059 11.9495 46.9017 11.3188 46.404C11.8721 46.9478 12.2951 47.5768 12.5646 48.2563C12.8771 48.9227 13.154 49.6041 13.4308 50.2856C13.9466 51.6763 14.6179 53.0227 15.4356 54.3064C15.8653 55.0087 16.5276 55.5907 17.3421 55.9818C17.8128 56.1523 18.3322 56.2032 18.8367 56.1283C19.3411 56.0534 19.8087 55.8559 20.1819 55.5601C20.8648 54.9974 21.3315 54.2747 21.5214 53.4857C21.7268 52.7457 21.8169 51.9864 21.7893 51.2268L20.8427 51.3849C21.2391 52.3845 21.9396 53.279 22.8743 53.9789C23.4047 54.3555 24.0741 54.5645 24.7674 54.5699C25.4478 54.5556 26.1073 54.3694 26.6606 54.0353C27.7903 53.3727 28.2546 52.247 28.3886 51.2494C28.5135 50.2421 28.4396 49.2244 28.1698 48.2375L27.3616 48.5123C27.6885 48.962 28.1281 49.3459 28.6494 49.6373C29.1708 49.9286 29.7615 50.1203 30.38 50.199C31.0022 50.2465 31.6284 50.157 32.1972 49.9392C32.7778 49.7086 33.2384 49.3069 33.4921 48.8098C33.9832 47.8497 33.8805 46.8408 33.7242 45.8995C33.5394 44.9559 33.2293 44.0327 32.8 43.1475Z" fill="#263238"/>
        <path d="M34.6483 60.029C34.6483 60.029 48.4273 38.7578 35.5413 38.4754C32.4158 38.4076 19.9987 42.6544 20.8961 44.7739C22.057 47.5147 27.5936 46.6752 31.0049 45.6813C31.0049 45.6813 26.9283 51.7351 31.0808 55.3869C32.6279 56.7164 33.8413 58.2951 34.6483 60.029Z" fill="#AD6359"/>
        <path d="M36.4347 38.4639C35.2075 38.4235 33.9799 38.5351 32.7912 38.7952C31.5939 39.0269 30.4169 39.3276 29.2683 39.695C26.9501 40.3987 24.7091 41.2717 22.5708 42.304C22.0056 42.5784 21.4886 42.918 21.0349 43.313C20.7763 43.5427 20.5811 43.8179 20.4633 44.1186C20.3967 44.2847 20.365 44.4592 20.3696 44.6344C20.3753 44.8065 20.4129 44.9767 20.4812 45.1389C20.7369 45.7219 21.2287 46.21 21.8698 46.5168C22.4664 46.7818 23.113 46.9576 23.7808 47.0364C25.0461 47.1648 26.3282 47.11 27.5716 46.8745C28.7854 46.6635 29.9793 46.3778 31.1436 46.0199L30.6391 45.4966C30.2045 46.2022 29.8502 46.9408 29.5809 47.7028C29.3047 48.4555 29.1207 49.23 29.0317 50.0144C28.9538 50.8015 29.0109 51.594 29.2014 52.3674C29.3928 53.132 29.7549 53.859 30.2685 54.5096C29.8683 53.8218 29.6072 53.0825 29.496 52.3222C29.3988 51.57 29.4228 50.8101 29.5675 50.0633C29.7031 49.3195 29.9275 48.5892 30.2372 47.8835C30.5407 47.1804 30.9204 46.5024 31.3713 45.858L31.9384 45.0711L30.8668 45.3384C29.7306 45.6459 28.5717 45.8899 27.3975 46.0688C26.256 46.2646 25.0845 46.304 23.9282 46.1855C22.8432 46.0462 21.7269 45.617 21.4233 44.8678C21.084 44.2278 22.1154 43.5087 23.0754 42.9854C24.0851 42.4466 25.1284 41.954 26.2009 41.5096C27.2769 41.0428 28.3619 40.591 29.4693 40.1882C31.7285 39.4239 34.0012 38.6258 36.4347 38.4639Z" fill="#263238"/>
        <path d="M37.4971 61.3281L9.71137 66.4483C9.71137 66.4483 7.88072 70.8907 9.49705 75.5026C12.5645 84.2521 21.7133 103.035 29.094 102.609C37.0863 102.139 39.0286 78.6613 38.917 67.1636C38.8366 63.267 37.4971 61.3281 37.4971 61.3281Z" fill="#FFE497"/>
        <g opacity="0.1">
            <path opacity="0.1" d="M38.8857 70.4648C38.8857 70.958 38.8857 71.4663 38.8455 71.9708C38.1757 72.2531 37.506 72.5205 36.7827 72.7501C36.2603 72.9233 35.7244 73.0814 35.1797 73.2169C34.9029 73.2847 34.6261 73.3525 34.3448 73.4052C34.0504 73.4639 33.7522 73.5079 33.4518 73.537C32.2875 73.6314 31.1127 73.5498 29.9825 73.296C28.8885 73.0814 27.8437 72.7878 26.7855 72.5845C25.7408 72.368 24.6726 72.2418 23.5975 72.208C22.5442 72.1822 21.492 72.2824 20.472 72.5054C20.2219 72.5581 19.9674 72.6259 19.7308 72.6899C19.4942 72.7539 19.2843 72.8367 19.0343 72.9195C18.5654 73.1002 18.0832 73.296 17.601 73.488L14.6943 74.6852C13.7209 75.0881 12.7341 75.4909 11.7384 75.8749C11.1357 76.1159 10.5195 76.338 9.89439 76.5526C9.75597 76.1761 9.62649 75.826 9.50593 75.4834C9.41217 75.2236 9.3318 74.9638 9.26929 74.7041C10.7919 74.1996 12.3323 73.6725 13.8772 73.1416C14.8907 72.8028 15.8954 72.4452 16.9491 72.144C17.476 71.9971 18.0028 71.8465 18.561 71.7336C18.8423 71.6771 19.1236 71.6207 19.454 71.583C19.7844 71.5454 20.0255 71.5265 20.3112 71.5152C22.6063 71.4023 24.7763 71.7562 26.9462 71.9708C29.0273 72.216 31.1386 72.216 33.2196 71.9708C33.6661 71.903 34.184 71.8014 34.6841 71.6884C35.1842 71.5755 35.6798 71.4437 36.1799 71.3119C37.0506 71.0559 37.9748 70.7698 38.8857 70.4648Z" fill="black"/>
            <path opacity="0.1" d="M38.7338 74.561C38.7338 74.8321 38.707 75.1032 38.6892 75.378C38.323 75.6378 37.9524 75.89 37.5684 76.131C36.8079 76.6202 36.005 77.0607 35.1663 77.4486C34.7343 77.642 34.2867 77.8093 33.8268 77.9494C33.3365 78.0925 32.8261 78.1811 32.3087 78.2129C30.2949 78.3221 28.442 77.9795 26.6113 77.6444L23.8966 77.1173C23.4501 77.0308 23.0036 76.9517 22.5571 76.8764C22.1303 76.8001 21.6976 76.7498 21.2622 76.7258C21.1641 76.7201 21.0657 76.7201 20.9675 76.7258L20.6461 76.7597L20.3246 76.8124C20.2219 76.8124 20.1147 76.8613 20.0076 76.8839C19.5658 76.9997 19.1417 77.159 18.744 77.3583C17.9592 77.7559 17.2438 78.2438 16.6186 78.8077C16.2927 79.0863 15.9935 79.3838 15.6854 79.6774L14.7924 80.5847C14.1779 81.2398 13.4201 81.7894 12.5599 82.2036C12.4696 82.246 12.3756 82.2825 12.2786 82.3128C12.1402 82.0078 12.0063 81.7067 11.8723 81.4055C11.9393 81.3829 12.0107 81.3641 12.0777 81.3377C12.872 81.024 13.6125 80.6213 14.279 80.1405C14.9934 79.6511 15.6676 79.1052 16.3463 78.563C17.0139 77.9969 17.7319 77.4746 18.4939 77.0006C18.8865 76.7598 19.3051 76.5505 19.7441 76.3757C19.9718 76.2891 20.1906 76.2176 20.4407 76.1498L20.8023 76.0632C20.9274 76.0406 21.0747 76.018 21.1997 76.0067C21.6927 75.967 22.1891 75.967 22.6821 76.0067C23.1599 76.0406 23.6287 76.0971 24.093 76.1573C25.0218 76.2816 25.9371 76.4246 26.848 76.5564C27.7588 76.6882 28.6652 76.8124 29.5627 76.914C30.4374 77.0269 31.3211 77.0835 32.206 77.0835C32.6197 77.0772 33.0308 77.0266 33.4294 76.9329C33.846 76.8325 34.2534 76.7067 34.6483 76.5564C35.4733 76.2422 36.2728 75.8825 37.0416 75.4797C37.6131 75.196 38.1772 74.8898 38.7338 74.561Z" fill="black"/>
        </g>
        <path d="M37.1534 67.6337C23.4102 70.8865 13.4889 72.3962 11.5556 72.6484C11.5449 72.6484 11.5347 72.6449 11.5272 72.6385C11.5196 72.6322 11.5154 72.6236 11.5154 72.6146C11.5154 72.6056 11.5196 72.597 11.5272 72.5906C11.5347 72.5842 11.5449 72.5807 11.5556 72.5807C21.1062 70.1109 36.2158 67.5584 37.1445 67.4944C37.1635 67.4971 37.1807 67.5052 37.1935 67.5173C37.2063 67.5294 37.2139 67.5448 37.2149 67.561C37.2159 67.5772 37.2104 67.5932 37.1993 67.6064C37.1881 67.6196 37.1719 67.6292 37.1534 67.6337Z" fill="#263238"/>
        <path d="M38.5063 81.5637C38.1803 83.7585 37.4391 87.241 36.8408 89.3944C36.8006 89.53 36.7604 89.6655 36.7247 89.8011C36.8943 90.5734 36.9795 91.3573 36.9792 92.1428C36.9792 93.0614 36.8855 93.9687 36.7738 94.8798C36.7738 94.9174 36.6979 94.9136 36.7024 94.8798C36.7739 93.9732 36.7649 93.0633 36.6756 92.1578C36.6265 91.6194 36.5729 91.0773 36.5193 90.5352C35.9344 92.5908 35.3183 94.6464 34.5592 96.6605C34.5592 96.6982 34.4788 96.6605 34.4922 96.6379C35.0637 94.4506 35.6755 92.267 36.1532 90.0646C36.631 87.8622 37.7249 82.6931 38.1803 80.5058C38.542 78.7702 38.609 80.8747 38.5063 81.5637Z" fill="#263238"/>
        <path d="M63.8406 72.4188C64.1666 73.2207 69.4308 78.1714 73.8601 77.6293C75.3068 77.4486 74.4986 70.766 74.4986 70.766L74.5745 70.2615L75.6104 63.1912L63.8987 58.1953C63.8987 58.1953 63.7022 72.0762 63.8406 72.4188Z" fill="#AD6359"/>
        <path d="M75.6014 63.195L74.5566 70.2578L74.4852 70.7661C74.4852 70.7661 74.6281 71.9783 74.6861 73.3788C68.5333 73.1191 65.3096 69.5048 63.7915 66.9523C63.8183 62.9428 63.8853 58.1953 63.8853 58.1953L75.6014 63.195Z" fill="#263238"/>
        <path d="M88.6615 51.1441C92.939 65.9699 82.8883 69.8025 79.093 70.578C75.6505 71.2783 63.8227 73.3 57.7548 58.926C51.6868 44.5519 58.5093 38.1894 66.2829 36.2317C74.0565 34.274 84.3796 36.3145 88.6615 51.1441Z" fill="#AD6359"/>
        <path d="M83.6118 51.5695C83.1945 51.5745 82.7771 51.5607 82.3616 51.5281C81.9199 51.5665 81.4755 51.4804 81.098 51.2833C80.9933 51.2017 80.9238 51.0931 80.9004 50.9745C80.8769 50.8559 80.9009 50.7341 80.9685 50.6283C81.1369 50.4353 81.3638 50.2841 81.6255 50.1907C81.8871 50.0973 82.1738 50.0651 82.4553 50.0974C83.0374 50.0842 83.6043 50.2547 84.0449 50.5756C84.1401 50.6537 84.2064 50.7534 84.2358 50.8626C84.2652 50.9718 84.2565 51.0858 84.2107 51.191C84.1649 51.2961 84.084 51.3878 83.9777 51.455C83.8714 51.5221 83.7443 51.5619 83.6118 51.5695Z" fill="#263238"/>
        <path d="M71.1008 53.8283C71.4966 53.7194 71.8855 53.5938 72.2662 53.4518C72.6972 53.3644 73.0818 53.1592 73.3601 52.8683C73.428 52.7622 73.4517 52.64 73.4274 52.5212C73.4031 52.4025 73.3323 52.294 73.2262 52.2132C72.9912 52.0786 72.7177 51.9996 72.4343 51.9844C72.1508 51.9692 71.8677 52.0183 71.6143 52.1266C71.0601 52.2777 70.5923 52.597 70.3016 53.0226C70.2463 53.1225 70.2259 53.2337 70.2429 53.343C70.2598 53.4523 70.3134 53.5553 70.3972 53.6399C70.4811 53.7245 70.5919 53.7871 70.7165 53.8205C70.8411 53.8539 70.9744 53.8566 71.1008 53.8283Z" fill="#263238"/>
        <path d="M76.3963 64.0686C76.7222 64.2832 77.0571 64.5881 77.5036 64.5806C77.9589 64.5328 78.3971 64.4045 78.7895 64.2041C78.7976 64.2014 78.8065 64.2007 78.8151 64.2022C78.8236 64.2037 78.8315 64.2072 78.8377 64.2124C78.8438 64.2176 78.8481 64.2243 78.8498 64.2315C78.8516 64.2387 78.8508 64.2462 78.8475 64.253C78.6985 64.4717 78.482 64.6523 78.221 64.7756C77.96 64.8989 77.6642 64.9603 77.3652 64.9532C77.1082 64.9222 76.868 64.8271 76.6755 64.6802C76.483 64.5333 76.3469 64.3413 76.2846 64.1288C76.2579 64.0686 76.3427 64.0196 76.3963 64.0686Z" fill="#263238"/>
        <path d="M80.8345 61.6024C80.5145 62.2817 79.9934 62.8806 79.3209 63.3418C78.9434 63.5787 78.4876 63.7103 78.0171 63.7182C76.9857 63.7408 76.7088 63.0029 76.6776 62.3253C76.6599 61.9642 76.6944 61.6026 76.7803 61.2485C78.0524 61.7278 79.4729 61.8518 80.8345 61.6024Z" fill="white"/>
        <path d="M80.2184 62.5627C80.1693 62.6192 80.1157 62.6832 80.0577 62.7397C79.7328 62.7716 79.4047 62.7716 79.0798 62.7397C79.4683 62.6794 79.8478 62.623 80.2184 62.5627Z" fill="#DBDBDB"/>
        <path d="M78.0438 62.6682C77.793 62.6701 77.5427 62.6473 77.2981 62.6004C77.0848 62.5539 76.877 62.4909 76.6775 62.4121C76.6775 62.3895 76.6775 62.3594 76.6775 62.3368C76.6775 62.3142 76.6775 62.2615 76.6775 62.2239C77.1214 62.3961 77.5777 62.5445 78.0438 62.6682Z" fill="#DBDBDB"/>
        <path d="M80.7496 59.6522C80.7496 59.6522 81.2988 61.1581 81.4417 61.8697C81.4417 61.9374 81.2542 61.9977 80.9684 62.0504C80.9684 62.0504 80.9461 62.0504 80.9327 62.0504C80.22 62.266 79.4507 62.3123 78.7089 62.1841C77.9671 62.056 77.2814 61.7584 76.7266 61.3238C76.7077 61.3118 76.6952 61.294 76.6918 61.2742C76.6885 61.2544 76.6946 61.2343 76.7088 61.2184C76.723 61.2024 76.7441 61.1918 76.7676 61.189C76.791 61.1862 76.8149 61.1913 76.8338 61.2033C78.0507 61.6806 79.4183 61.8127 80.7317 61.5798C80.7317 61.3727 79.678 59.0197 79.8164 59.0197C80.4013 59.0197 81.4461 59.0912 81.8346 59.1176C81.4997 58.1388 80.3924 55.4017 79.7896 53.6172C79.7539 53.508 79.9548 53.4403 80.0039 53.5419C81.1058 55.5098 82.0515 57.5372 82.8348 59.6108C82.8928 59.784 81.1157 59.7237 80.7496 59.6522Z" fill="#263238"/>
        <path d="M72.0787 56.6031C72.0845 56.3366 72.1756 56.0765 72.3422 55.8501C72.4406 55.7319 72.5666 55.6318 72.7125 55.5561C72.8584 55.4803 73.021 55.4305 73.1905 55.4096C73.3642 55.3923 73.5402 55.4095 73.7046 55.4598C73.869 55.5102 74.0171 55.5923 74.1371 55.6995C74.3445 55.8898 74.4973 56.1178 74.5836 56.3659C74.63 56.5145 74.6658 56.6654 74.6908 56.8177C74.7436 57.1348 74.71 57.458 74.5925 57.7626C74.5721 57.5314 74.5212 57.3029 74.4407 57.0812C74.3721 56.8819 74.2871 56.6869 74.1862 56.4976C73.9674 56.1212 73.637 55.8087 73.2575 55.8689C72.878 55.9292 72.6056 56.2153 72.5074 56.6219C72.4241 57.0599 72.3912 57.5037 72.4092 57.9471C72.1798 57.526 72.0668 57.0664 72.0787 56.6031Z" fill="#263238"/>
        <path d="M84.2413 54.6077C84.1178 54.3665 83.9187 54.1582 83.6653 54.0053C83.5218 53.9264 83.3604 53.8732 83.1914 53.8493C83.0224 53.8253 82.8493 53.831 82.683 53.866C82.5144 53.9044 82.3589 53.976 82.2293 54.0748C82.0997 54.1736 81.9996 54.2969 81.9374 54.4345C81.8296 54.6744 81.7913 54.9326 81.8257 55.1875C81.8463 55.3401 81.8806 55.4911 81.9284 55.6393C82.0171 55.951 82.1932 56.2402 82.4419 56.4826C82.3549 56.2631 82.2994 56.0356 82.2767 55.8049C82.2568 55.5969 82.2568 55.3879 82.2767 55.1799C82.3035 54.7545 82.4732 54.3705 82.8527 54.3065C83.2322 54.2425 83.6117 54.4157 83.8886 54.7771C84.1613 55.1568 84.3901 55.5577 84.5717 55.9743C84.5925 55.5031 84.4792 55.0345 84.2413 54.6077Z" fill="#263238"/>
        <path d="M56.0136 60.2549C61.3939 60.3038 63.814 54.7771 62.2646 50.5078C62.2646 50.5078 76.6241 51.3887 76.6285 41.7132C77.7207 42.9668 79.162 43.9745 80.8253 44.6475C82.4885 45.3205 84.3226 45.638 86.1658 45.5721L88.0098 49.047C89.4476 48.6178 90.7558 45.0413 86.9873 42.4699C86.9873 42.4699 86.4069 37.6773 81.9999 35.0005C80.807 34.2287 79.375 33.7641 77.8762 33.6626C76.3775 33.5611 74.8759 33.8269 73.5521 34.4282C70.9659 33.0392 67.8402 32.5531 64.8364 33.0729C59.6481 33.9011 57.7683 38.0424 57.7683 38.0424C57.7683 38.0424 50.7895 39.5484 49.8876 43.8177C49.5966 45.0352 49.6153 46.291 49.9424 47.502C50.2695 48.713 50.8976 49.8517 51.7852 50.8428C51.7852 50.8428 50.1332 52.5935 51.2852 56.155C52.0085 58.4252 54.4017 60.2549 56.0136 60.2549Z" fill="#263238"/>
        <path d="M76.2445 40.8811C76.4077 41.6575 76.4735 42.4461 76.4409 43.2341C76.4346 44.0116 76.3147 44.7854 76.0837 45.5382C75.6435 47.0278 74.5529 48.3226 73.0297 49.1636C71.5518 50.071 69.6586 50.2931 67.8547 50.534C66.9305 50.5566 66.0018 50.6357 65.0686 50.6131C64.1354 50.5905 63.2022 50.5303 62.2556 50.5152C63.1799 50.6545 64.1131 50.7637 65.0507 50.8917C65.9884 51.0197 66.9394 50.9406 67.8949 50.967C69.7702 50.8089 71.7437 50.5905 73.3913 49.6305C75.0315 48.7025 76.1758 47.2701 76.5793 45.6398C76.9448 44.0551 76.8296 42.4182 76.2445 40.8811Z" fill="#263238"/>
        <path d="M57.7684 38.042C55.9589 38.1442 54.194 38.5607 52.5845 39.2656C50.9049 39.9637 49.5718 41.1397 48.8205 42.5861C48.5054 43.3224 48.332 44.0964 48.3071 44.8789C48.2485 45.6554 48.3481 46.4347 48.6018 47.1829C49.0788 48.6971 50.2157 50.0039 51.7853 50.8423C50.4324 49.8792 49.4914 48.5686 49.1063 47.1114C48.7294 45.6842 48.8472 44.1956 49.4456 42.8233C49.7547 42.1558 50.209 41.5429 50.7851 41.0162C51.3968 40.4976 52.0821 40.0449 52.8257 39.6684C54.3606 38.9088 56.029 38.3598 57.7684 38.042Z" fill="#263238"/>
        <path d="M73.5698 34.4434C74.8846 33.9634 76.2819 33.6634 77.7089 33.5549C79.0997 33.4409 80.5019 33.6302 81.781 34.1046C83.0319 34.6235 84.107 35.4005 84.9065 36.3635C85.7317 37.3516 86.3815 38.436 86.8354 39.5824C86.6211 38.3548 86.1072 37.178 85.3262 36.1263C84.57 35.0166 83.425 34.1314 82.0484 33.5921C80.6718 33.0529 79.131 32.886 77.6374 33.1145C76.1835 33.3041 74.7957 33.7575 73.5698 34.4434Z" fill="#263238"/>
        <path d="M83.9821 46.088C82.3892 45.7185 80.8802 45.1282 79.5171 44.3411C78.851 43.9486 78.2504 43.4827 77.7311 42.9557C77.2066 42.4119 76.7572 41.8195 76.3916 41.1899C76.5157 41.9085 76.8201 42.5965 77.2846 43.2079C77.7502 43.8303 78.3572 44.369 79.0706 44.7929C79.778 45.2161 80.56 45.5426 81.3879 45.7605C82.2237 45.9952 83.1014 46.106 83.9821 46.088Z" fill="#263238"/>
        <path d="M72.6636 62.2426C71.483 62.3126 70.3028 62.1019 69.2573 61.6344C68.2118 61.1668 67.3429 60.4612 66.7494 59.5978C66.156 58.7344 65.8619 57.7479 65.9006 56.7505C65.9393 55.7531 66.3092 54.785 66.9682 53.9561C67.6273 53.1272 68.549 52.471 69.6285 52.062C70.7081 51.653 71.9021 51.5078 73.0747 51.6427C74.2473 51.7777 75.3515 52.1874 76.2615 52.8254C77.1716 53.4633 77.851 54.3038 78.2226 55.2513C78.7453 56.5938 78.616 58.0563 77.8628 59.3186C77.1097 60.581 75.7941 61.5403 74.204 61.9866C73.7047 62.1241 73.1875 62.2101 72.6636 62.2426ZM71.8376 52.3185C71.382 52.3463 70.9322 52.4209 70.4981 52.5406C69.1758 52.9091 68.0698 53.6887 67.4053 54.7206C66.7407 55.7525 66.5676 56.9592 66.9212 58.095C67.2748 59.2308 68.1284 60.2102 69.3084 60.8339C70.4883 61.4576 71.9058 61.6787 73.2723 61.4521C74.6387 61.2255 75.8514 60.5683 76.6633 59.6143C77.4753 58.6603 77.8255 57.4812 77.6426 56.3171C77.4598 55.153 76.7576 54.0915 75.6791 53.3486C74.6006 52.6057 73.2269 52.2373 71.8376 52.3185Z" fill="#FFE497"/>
        <path d="M86.3532 59.9385C83.9377 60.0816 81.5802 58.1276 80.964 55.3944C80.6472 54.0926 80.8189 52.7399 81.4551 51.5242C81.6919 50.9882 82.0889 50.5129 82.6075 50.1444C83.1261 49.7758 83.7488 49.5264 84.4153 49.4204C85.0819 49.3143 85.7696 49.3552 86.4118 49.5391C87.0541 49.723 87.6291 50.0437 88.0812 50.47C89.2 51.4043 89.9446 52.61 90.211 53.9186C90.8584 56.8062 89.318 59.4867 86.764 59.8933C86.6284 59.9158 86.4912 59.9309 86.3532 59.9385ZM84.8887 50.0898C84.7816 50.0898 84.6789 50.0898 84.5717 50.1236C84.046 50.2292 83.558 50.4395 83.1486 50.7369C82.7391 51.0343 82.4203 51.4101 82.2187 51.8329C81.6557 52.912 81.5074 54.1126 81.7945 55.2664C82.3571 57.7662 84.5092 59.5319 86.6078 59.1968C88.7063 58.8618 89.9431 56.5615 89.3805 54.0579C89.1493 52.8947 88.492 51.8217 87.5008 50.9895C87.1641 50.694 86.7577 50.4613 86.3078 50.3063C85.8579 50.1513 85.3745 50.0776 84.8887 50.0898Z" fill="#FFE497"/>
        <path d="M78.2089 55.8802L77.6553 55.5037C78.325 54.8147 79.9905 53.7681 81.5309 54.7168L81.0844 55.1988C79.7315 54.3441 78.2714 55.82 78.2089 55.8802Z" fill="#FFE497"/>
        <path d="M53.1961 61.0528L52.5129 60.8797C52.6112 60.6124 53.4863 58.2443 54.9999 57.7812C56.4198 57.352 65.966 56.5991 66.3723 56.5652L66.4393 57.1638C63.7022 57.3784 56.3394 58.0109 55.2455 58.3459C54.2454 58.6547 53.4283 60.4053 53.1961 61.0528Z" fill="#FFE497"/>
        <path d="M61.4874 59.6071C61.4874 59.6071 56.7277 55.4056 54.4104 56.904C52.093 58.4024 56.2633 64.8515 59.4067 65.4012C59.8032 65.4954 60.2182 65.5211 60.6267 65.4767C61.0353 65.4324 61.429 65.3189 61.7843 65.1431C62.1395 64.9673 62.449 64.7328 62.6942 64.4537C62.9393 64.1746 63.1151 63.8566 63.2109 63.5188L61.4874 59.6071Z" fill="#AD6359"/>
        <path d="M55.6608 58.7261C55.6519 58.7286 55.6441 58.7334 55.6386 58.7398C55.6331 58.7462 55.6301 58.7539 55.6301 58.7619C55.6301 58.7698 55.6331 58.7775 55.6386 58.7839C55.6441 58.7904 55.6519 58.7951 55.6608 58.7976C57.8933 59.2381 59.2686 60.729 60.3446 62.3215C59.6079 61.7492 58.697 61.5008 57.7772 62.2575C57.7281 62.2989 57.7772 62.3629 57.8532 62.3441C58.202 62.1989 58.5956 62.1481 58.98 62.1986C59.3644 62.2492 59.7209 62.3986 60.0008 62.6264C60.4642 63.0124 60.8773 63.4389 61.2332 63.8989C61.3582 64.042 61.6797 63.8989 61.577 63.7446L61.5502 63.7032C61.193 61.4556 58.5586 58.583 55.6608 58.7261Z" fill="#263238"/>
        <path d="M56.5269 73.4317C55.7946 72.6788 60.5052 70.4199 61.7286 71.2707C62.952 72.1216 69.145 85.3662 67.1357 99.7365C65.1265 114.107 32.139 129.591 30.9111 127.442C30.4021 126.538 31.054 124.02 31.8577 123.214C32.9873 122.084 56.8082 109.615 59.1612 100.704C61.2508 92.7791 58.3843 75.3894 56.5269 73.4317Z" fill="#455A64"/>
        <path d="M75.0968 73.1305C74.1056 71.5456 79.2091 72.8218 79.7672 73.6764C80.3253 74.5311 87.1479 88.2613 88.3266 97.2367C88.7731 100.832 90.4475 110.511 90.4475 110.511C90.4475 110.511 85.4646 97.5265 81.3568 86.6538C79.6107 82.0391 77.5199 77.5224 75.0968 73.1305Z" fill="#455A64"/>
        <path d="M171.675 129.813C171.675 129.813 176.899 113.922 181.052 108.527C185.204 103.132 193 97.2026 193 97.2026C193 97.2026 192.835 121.7 171.675 129.813Z" fill="#FFC727"/>
        <path d="M172.05 129.527C173.808 127.045 175.396 124.479 176.806 121.843C177.405 119.004 178.272 116.209 179.4 113.486C179.422 113.437 179.507 113.463 179.493 113.516C178.801 116.023 177.993 118.512 177.261 121.015C179.368 117.149 181.373 113.233 183.883 109.578C184.462 107.811 185.275 106.105 186.307 104.491C186.334 104.446 186.423 104.469 186.396 104.518C185.761 105.761 185.217 107.036 184.767 108.335C185.95 106.704 187.277 105.15 188.736 103.686C188.83 103.595 189.013 103.686 188.919 103.795C185.561 107.428 183.244 111.558 181.038 115.741C183.412 113.558 185.602 111.238 187.593 108.798C187.593 108.776 187.656 108.798 187.638 108.825C185.563 111.56 183.215 114.141 180.619 116.539C179.011 119.603 177.431 122.679 175.515 125.597C179.346 122.852 182.293 119.302 185.209 115.876C185.215 115.868 185.223 115.861 185.233 115.856C185.242 115.851 185.253 115.847 185.264 115.846C185.276 115.844 185.287 115.844 185.298 115.846C185.309 115.848 185.32 115.852 185.329 115.857C185.339 115.863 185.347 115.87 185.353 115.878C185.359 115.886 185.363 115.895 185.365 115.904C185.367 115.914 185.367 115.923 185.365 115.933C185.363 115.942 185.358 115.951 185.352 115.959C182.431 119.724 179.413 123.259 175.216 126.041C174.366 127.322 173.43 128.562 172.412 129.753C172.376 129.794 172.323 129.821 172.264 129.828C172.205 129.835 172.145 129.823 172.097 129.793C172.049 129.763 172.017 129.718 172.009 129.668C172 129.619 172.015 129.568 172.05 129.527Z" fill="#263238"/>
        <path d="M170.054 131.244C170.054 131.244 179.431 116.591 176.716 102.387C174.002 88.182 171.068 83.1221 171.068 83.1221C171.068 83.1221 156.311 105.218 170.054 131.244Z" fill="#FFC727"/>
        <path d="M166.201 108.211C166.996 112.236 168.209 116.194 169.827 120.04C169.853 114.826 169.969 109.615 170.135 104.401C169.074 101.238 168.474 97.977 168.349 94.6914C168.349 94.5973 168.514 94.6011 168.523 94.6914C168.82 97.5073 169.371 100.3 170.17 103.046C170.313 98.7461 170.477 94.4467 170.661 90.1473C170.661 90.1323 170.669 90.118 170.681 90.1074C170.694 90.0968 170.711 90.0908 170.728 90.0908C170.746 90.0908 170.763 90.0968 170.776 90.1074C170.788 90.118 170.795 90.1323 170.795 90.1473C170.795 96.8637 170.795 103.58 170.742 110.3C171.887 107.703 172.792 105.034 173.448 102.319C173.45 102.314 173.454 102.31 173.459 102.307C173.464 102.304 173.47 102.302 173.477 102.302C173.483 102.302 173.489 102.304 173.494 102.307C173.499 102.31 173.503 102.314 173.506 102.319C173.22 105.455 172.095 108.489 170.733 111.4C170.697 115.695 170.644 119.987 170.528 124.283C172.117 119.716 173.814 115.296 174.274 110.47C174.274 110.463 174.275 110.457 174.278 110.451C174.281 110.445 174.285 110.44 174.291 110.435C174.296 110.431 174.302 110.427 174.31 110.425C174.317 110.422 174.324 110.421 174.332 110.421C174.339 110.421 174.347 110.422 174.354 110.425C174.361 110.427 174.367 110.431 174.373 110.435C174.378 110.44 174.382 110.445 174.385 110.451C174.388 110.457 174.39 110.463 174.39 110.47C174.269 115.789 172.648 121.188 170.581 126.192C170.558 126.241 170.521 126.285 170.474 126.32C170.429 127.886 170.376 129.455 170.313 131.026C170.313 131.072 170.292 131.116 170.253 131.148C170.215 131.181 170.162 131.199 170.108 131.199C170.053 131.199 170.001 131.181 169.963 131.148C169.924 131.116 169.902 131.072 169.902 131.026C169.825 127.816 169.794 124.605 169.809 121.395C167.701 117.254 166.576 112.665 166.107 108.218C166.116 108.177 166.196 108.169 166.201 108.211Z" fill="#263238"/>
        <path d="M166.844 105.945C167.174 107.219 167.393 108.513 167.5 109.815C167.5 109.86 167.424 109.864 167.411 109.815C167.046 108.545 166.788 107.256 166.639 105.956C166.625 105.865 166.822 105.847 166.844 105.945Z" fill="#263238"/>
        <path d="M172.34 95.2336C172.34 95.1884 172.43 95.2035 172.43 95.2336C172.418 96.1374 172.259 97.0356 171.956 97.9028C171.934 97.9743 171.814 97.9405 171.831 97.8727C172.032 97.003 172.157 96.1183 172.34 95.2336Z" fill="#263238"/>
        <path d="M166.634 132.366C166.634 132.366 167.014 117.07 161.839 109.469C156.664 101.867 148.078 97.9934 148.078 97.9934C148.078 97.9934 151.538 124.953 166.634 132.366Z" fill="#FFC727"/>
        <path d="M157.2 119.287C159.374 121.941 161.54 124.501 164.205 126.817C163.169 123.689 161.979 120.615 160.633 117.593C157.731 115.435 154.856 113.199 153.074 110.248C153.047 110.202 153.128 110.161 153.159 110.206C155.074 112.819 157.624 114.912 160.325 116.923C158.25 112.369 155.845 107.927 153.123 103.622C153.114 103.6 153.114 103.577 153.123 103.555C153.132 103.534 153.15 103.515 153.173 103.504C153.196 103.492 153.224 103.488 153.251 103.491C153.277 103.495 153.302 103.506 153.32 103.524C154.975 105.781 156.483 108.112 157.838 110.507C157.351 108.87 156.945 107.198 156.467 105.575C156.464 105.566 156.466 105.557 156.471 105.549C156.477 105.541 156.486 105.535 156.496 105.532C156.507 105.53 156.518 105.531 156.528 105.535C156.538 105.54 156.545 105.548 156.548 105.557C157.468 107.601 158.378 109.86 158.673 112.043C160.486 115.436 162.009 118.934 163.232 122.51C163.098 120.217 162.928 117.935 162.651 115.646C162.651 115.605 162.732 115.594 162.741 115.646C163.315 118.184 163.577 120.766 163.522 123.349C164.268 125.627 164.897 127.935 165.402 130.258C165.402 130.322 165.308 130.348 165.29 130.284C165.009 129.309 164.701 128.345 164.397 127.381C164.397 127.381 164.357 127.381 164.339 127.381C161.562 125.021 158.928 122.336 157.195 119.328C157.159 119.283 157.186 119.272 157.2 119.287Z" fill="#263238"/>
        <path d="M151.203 106.84C151.779 107.367 152.306 107.925 152.864 108.467C153.405 108.926 153.904 109.419 154.355 109.943C154.355 109.965 154.355 109.992 154.315 109.976C153.663 109.568 153.083 109.083 152.592 108.538C152.047 108.026 151.554 107.475 151.118 106.893C151.087 106.852 151.163 106.803 151.203 106.84Z" fill="#263238"/>
        <path d="M182.012 130.499L181.36 135.393L179.391 150.234H162.245L160.285 135.4L159.629 130.506H182.016L182.012 130.499Z" fill="#455A64"/>
        <path d="M182.012 130.499L181.36 135.393H160.285L159.629 130.499H182.016H182.012Z" fill="#37474F"/>
        <path d="M158.102 132.494H183.534V126.94H158.102V132.494Z" fill="#455A64"/>
        <path d="M158.789 145.117H107.486V150.238H158.789V145.117Z" fill="#37474F"/>
        <path d="M119.64 145.117H117.551V150.238H119.64V145.117Z" fill="#455A64"/>
        <path d="M152.753 145.117H147.738V150.238H152.753V145.117Z" fill="#455A64"/>
        <path d="M155.096 130.149H102.695V136.914H155.096V130.149Z" fill="#37474F"/>
        <path d="M145.827 132.343H133.24V134.719H145.827V132.343Z" fill="#FFC727"/>
        <path d="M152.136 133.529C152.158 133.81 152.079 134.09 151.909 134.333C151.739 134.575 151.487 134.769 151.185 134.889C150.883 135.01 150.545 135.05 150.215 135.007C149.885 134.963 149.578 134.836 149.335 134.644C149.091 134.451 148.922 134.201 148.849 133.926C148.776 133.651 148.803 133.364 148.926 133.102C149.049 132.841 149.262 132.616 149.539 132.458C149.815 132.3 150.141 132.215 150.475 132.215C150.902 132.204 151.317 132.336 151.628 132.583C151.94 132.829 152.122 133.169 152.136 133.529Z" fill="#FFC727"/>
        <path d="M126.642 124.162H100.168V130.133H126.642V124.162Z" fill="#263238"/>
        <path d="M151.109 124.162H126.641V130.133H151.109V124.162Z" fill="#263238"/>
        <path d="M126.641 124.784H100.168V129.516H126.641V124.784Z" fill="white"/>
        <path d="M102.472 125.762C105.246 125.732 108.02 125.71 110.795 125.694L114.559 125.672L122.877 125.694C125.65 125.694 123.868 125.728 126.641 125.762C123.868 125.796 125.65 125.819 122.877 125.834L114.559 125.853L110.795 125.834C108.02 125.814 105.246 125.79 102.472 125.762Z" fill="#DBDBDB"/>
        <path d="M102.472 126.685C105.246 126.652 108.02 126.63 110.795 126.617L114.559 126.594L122.877 126.613C125.65 126.613 123.868 126.651 126.641 126.685C123.868 126.719 125.65 126.741 122.877 126.753L114.559 126.775L110.795 126.753C108.02 126.743 105.246 126.72 102.472 126.685Z" fill="#DBDBDB"/>
        <path d="M102.472 127.611C105.246 127.581 108.02 127.558 110.795 127.543L114.559 127.524L122.877 127.543C125.65 127.543 123.868 127.581 126.641 127.611C123.868 127.646 125.65 127.672 122.877 127.684H114.559H110.795C108.02 127.671 105.246 127.647 102.472 127.611Z" fill="#DBDBDB"/>
        <path d="M102.472 128.541C105.246 128.508 108.02 128.486 110.795 128.473L114.559 128.45L122.877 128.473C125.65 128.473 123.868 128.507 126.641 128.541C123.868 128.575 125.65 128.597 122.877 128.609L114.559 128.631L110.795 128.609C108.02 128.598 105.246 128.576 102.472 128.541Z" fill="#DBDBDB"/>
        <path d="M135.509 124.162H132.062V130.133H135.509V124.162Z" fill="#455A64"/>
        <path d="M149.846 124.162H147.528V130.133H149.846V124.162Z" fill="#455A64"/>
        <path d="M123.127 145.114H152.94V136.906H123.127V145.114Z" fill="#FFC727"/>
        <path d="M100.49 145.114H123.127V136.906H100.49V145.114Z" fill="#FFC727"/>
        <path d="M123.127 144.263H152.94V137.761H123.127V144.263Z" fill="white"/>
        <path d="M151.007 142.927C148.685 142.962 146.361 142.984 144.037 142.994L137.067 143.017L130.097 142.994C127.772 142.994 125.447 142.972 123.123 142.927C125.45 142.894 127.775 142.871 130.097 142.859L137.067 142.836L144.037 142.859C146.361 142.871 148.685 142.894 151.007 142.927Z" fill="#DBDBDB"/>
        <path d="M151.007 141.651C148.685 141.686 146.361 141.709 144.037 141.719L137.067 141.742L130.097 141.723C127.772 141.708 125.447 141.684 123.123 141.651C125.45 141.618 127.775 141.595 130.097 141.583L137.067 141.575L144.037 141.598C146.361 141.6 148.685 141.618 151.007 141.651Z" fill="#DBDBDB"/>
        <path d="M151.007 140.374C148.685 140.407 146.361 140.431 144.037 140.447L137.067 140.466L130.097 140.447C127.772 140.431 125.447 140.407 123.123 140.374C125.45 140.342 127.775 140.319 130.097 140.306L137.067 140.283L144.037 140.306C146.361 140.319 148.685 140.342 151.007 140.374Z" fill="#DBDBDB"/>
        <path d="M151.007 139.098C148.685 139.13 146.361 139.154 144.037 139.169L137.067 139.188L130.097 139.169C127.772 139.169 125.447 139.145 123.123 139.098C125.45 139.063 127.775 139.04 130.097 139.03L137.067 139.007L144.037 139.03C146.363 139.041 148.676 139.068 151.007 139.098Z" fill="#DBDBDB"/>
        <path d="M108.33 136.91H104.093V145.117H108.33V136.91Z" fill="#455A64"/>
        <path d="M125.422 26.2447C125.421 28.7358 124.6 31.1777 123.049 33.2982C121.499 35.4187 119.281 37.1345 116.642 38.2541C114.002 39.3738 111.046 39.8534 108.103 39.6394C105.159 39.4254 102.344 38.5262 99.9715 37.0422L92.1577 38.7251L95.4127 32.5884C94.2678 30.7852 93.6257 28.7856 93.5351 26.7417C93.4446 24.6978 93.908 22.6634 94.8901 20.7932C95.8722 18.923 97.3472 17.2663 99.2029 15.949C101.059 14.6318 103.246 13.6887 105.599 13.1914C107.952 12.6942 110.408 12.6559 112.782 13.0795C115.155 13.5031 117.382 14.3774 119.294 15.636C121.206 16.8945 122.753 18.5041 123.816 20.3425C124.88 22.1808 125.432 24.1994 125.431 26.2447H125.422Z" fill="white"/>
        <path d="M125.422 26.2434C125.418 28.7351 124.599 31.1776 123.056 33.3024C122.668 33.8249 122.245 34.3277 121.787 34.8084C121.312 35.2814 120.802 35.7291 120.26 36.1486C119.996 36.3638 119.719 36.5674 119.43 36.7585L118.537 37.3195C118.242 37.504 117.916 37.6508 117.604 37.8202L117.135 38.0649C116.974 38.1402 116.805 38.2042 116.644 38.272C116.309 38.4075 115.983 38.5506 115.648 38.6786L114.612 39.0061C114.267 39.1174 113.914 39.208 113.554 39.2772C113.197 39.3487 112.849 39.4504 112.482 39.4956C111.758 39.6159 111.023 39.6915 110.286 39.7214C109.543 39.7712 108.796 39.7712 108.053 39.7214C106.577 39.6196 105.125 39.3485 103.735 38.9158C102.347 38.4743 101.036 37.8766 99.8375 37.1388L99.9714 37.1614L92.1666 38.8706L91.7737 38.9572L91.9389 38.6447L95.176 32.5005V32.6624C94.018 30.8397 93.379 28.8148 93.3096 26.7479C93.2205 24.6769 93.6949 22.6163 94.6964 20.7238C95.6979 18.8313 97.1999 17.1573 99.0874 15.8299C100.967 14.5116 103.181 13.574 105.557 13.0892C107.918 12.6066 110.378 12.5816 112.752 13.016C115.126 13.4504 117.353 14.3328 119.264 15.597C121.176 16.8613 122.722 18.4743 123.788 20.3151C124.854 22.1558 125.411 24.1762 125.417 26.2246L125.422 26.2434ZM125.422 26.2434C125.409 24.2019 124.847 22.1895 123.778 20.3576C122.71 18.5258 121.162 16.9223 119.251 15.6681C117.336 14.4291 115.116 13.5672 112.755 13.1456C110.389 12.7439 107.947 12.7992 105.611 13.3075C103.284 13.8081 101.125 14.7508 99.2972 16.0634C97.4855 17.3844 96.0391 19.0241 95.0599 20.8673C94.0966 22.7131 93.643 24.7194 93.7335 26.7346C93.824 28.7498 94.4562 30.7214 95.5823 32.5005L95.6314 32.5796L95.5913 32.6624L92.3273 38.7953L92.0996 38.5656L99.9268 36.9129H99.9982L100.061 36.9505C102.396 38.4431 105.18 39.3559 108.098 39.5859C108.825 39.6436 109.557 39.6524 110.286 39.6123C111.015 39.5872 111.741 39.5205 112.46 39.4127C112.822 39.3713 113.17 39.2697 113.527 39.2019C113.886 39.139 114.238 39.0535 114.581 38.9459L115.612 38.6334L116.604 38.2381C116.769 38.1703 116.938 38.1101 117.099 38.0348L117.546 37.7976C117.854 37.6357 118.184 37.4927 118.479 37.312L119.372 36.7585C119.661 36.569 119.938 36.3666 120.202 36.1524C120.743 35.7357 121.253 35.2919 121.729 34.8234C122.189 34.3437 122.614 33.8408 123.002 33.3175C124.567 31.1929 125.405 28.7446 125.422 26.2434Z" fill="#263238"/>
        <path d="M106.883 34.2474L99.7349 28.1447L102.137 26.1418L106.312 29.7071L114.992 18.2395L117.836 19.768L106.883 34.2474Z" fill="#FFC727"/>
    </g>
</svg>
