<svg width="208" height="33" viewBox="0 0 208 33" fill="none" xmlns="http://www.w3.org/2000/svg">
<path d="M11.7013 23.0586L11.0372 25.832L4.35755 0.65625H5.80286L11.7013 23.0586ZM13.1661 17.6484L12.4435 20.3438L7.26771 0.65625H8.69349L13.1661 17.6484ZM14.631 12.043L13.8888 14.7773L10.1583 0.65625H11.6232L14.631 12.043ZM20.1974 33H18.7326L27.2872 0.695312L27.2677 0.65625H28.7521V0.695312L32.5607 13.8203L36.0568 0.65625H37.5216L28.9474 33H27.4826L23.6544 19.8945L20.1974 33ZM17.2677 33H15.8224L24.3771 0.65625H25.8224L17.2677 33ZM14.3576 33H12.9122L21.4865 0.65625H22.9122L14.3576 33ZM37.6974 33H36.2326L44.7872 0.65625H46.2521L37.6974 33ZM34.7677 33H33.3224L41.8771 0.65625H43.3224L34.7677 33ZM31.8576 33H30.4122L38.9865 0.65625H40.4122L31.8576 33ZM10.7247 30.2266L18.5568 0.65625H20.0216L11.4474 33H9.98255L1.42786 0.65625H2.89271L10.7247 30.2266ZM24.3966 17.1406L28.1857 30.3438L28.9279 27.5508L25.1193 14.3867L24.3966 17.1406ZM25.8419 11.6328L29.6505 24.7969L30.3927 22.043L26.5841 8.85938L25.8419 11.6328ZM27.2872 6.16406L31.1154 19.3281L31.838 16.5547L28.049 3.35156L27.2872 6.16406Z" fill="black"/>
<path d="M44.5115 9.58691C45.6622 9.58691 46.7047 9.75781 47.639 10.0996C48.5732 10.4414 49.365 10.9085 50.0145 11.501C50.6753 12.0934 51.1823 12.7884 51.5355 13.5859C51.8886 14.3721 52.0652 15.2095 52.0652 16.0981V26.4888C52.0652 27.3774 51.8886 28.2205 51.5355 29.0181C51.1823 29.8042 50.6753 30.4935 50.0145 31.0859C49.365 31.6784 48.5732 32.1455 47.639 32.4873C46.7047 32.8291 45.6622 33 44.5115 33H39.2479C38.0971 33 37.0547 32.8291 36.1204 32.4873C35.1862 32.1455 34.3886 31.6784 33.7278 31.0859C33.0784 30.4935 32.5771 29.8042 32.2239 29.0181C31.8707 28.2205 31.6941 27.3774 31.6941 26.4888V16.0981C31.6941 15.2095 31.8707 14.3721 32.2239 13.5859C32.5771 12.7884 33.0784 12.0934 33.7278 11.501C34.3886 10.9085 35.1862 10.4414 36.1204 10.0996C37.0547 9.75781 38.0971 9.58691 39.2479 9.58691H44.5115ZM47.7244 19.9092L47.4852 18.4395L46.3914 17.3628L44.6141 17.1748H40.7859L39.7435 16.9697C39.6865 16.776 39.6466 16.6051 39.6238 16.457C39.6011 16.2975 39.5612 16.1323 39.5042 15.9614V14.167L39.7435 13.1587L40.8714 12.9365H45.2122L46.8187 13.2612L47.2288 11.3984L45.2464 11.125H40.7518L39.0428 11.3643L37.9319 12.458L37.7098 13.8936V16.2349L37.9319 17.6704L39.0428 18.7471L40.7518 18.9692H44.6141L45.6566 19.1401C45.6907 19.311 45.7306 19.4705 45.7762 19.6187C45.8218 19.7668 45.8616 19.9206 45.8958 20.0801V22.3188C45.873 22.467 45.8331 22.6265 45.7762 22.7974C45.7306 22.9683 45.6907 23.1278 45.6566 23.2759L44.5457 23.4468H40.3074L38.6326 23.1733L38.2054 25.019L40.2049 25.2583H44.6483L46.3914 25.0532L47.4852 23.9766L47.7244 22.5068V19.9092ZM64.7459 9.58691C65.8966 9.58691 66.9391 9.75781 67.8733 10.0996C68.8076 10.4414 69.5994 10.9085 70.2488 11.501C70.9096 12.0934 71.4166 12.7884 71.7698 13.5859C72.123 14.3721 72.2996 15.2095 72.2996 16.0981V26.4888C72.2996 27.3774 72.123 28.2205 71.7698 29.0181C71.4166 29.8042 70.9096 30.4935 70.2488 31.0859C69.5994 31.6784 68.8076 32.1455 67.8733 32.4873C66.9391 32.8291 65.8966 33 64.7459 33H59.4822C58.3315 33 57.289 32.8291 56.3548 32.4873C55.4205 32.1455 54.623 31.6784 53.9622 31.0859C53.3128 30.4935 52.8115 29.8042 52.4583 29.0181C52.1051 28.2205 51.9285 27.3774 51.9285 26.4888V16.0981C51.9285 15.2095 52.1051 14.3721 52.4583 13.5859C52.8115 12.7884 53.3128 12.0934 53.9622 11.501C54.623 10.9085 55.4205 10.4414 56.3548 10.0996C57.289 9.75781 58.3315 9.58691 59.4822 9.58691H64.7459ZM68.2664 13.8936L68.0272 12.458L66.9505 11.3643L65.1902 11.125H60.6102L58.867 11.3643L57.7733 12.458L57.5682 13.8936V22.5068L57.7733 23.9766L58.9012 25.0532L60.6102 25.2583H65.1902L66.9505 25.0532L68.0272 23.9766L68.2664 22.5068V13.8936ZM66.2156 23.2759L65.0877 23.4468H60.7127L59.6019 23.2759L59.3455 22.2505V14.0645L59.5164 13.1245L60.7127 12.9365H65.0877L66.284 13.1245L66.4549 14.1328V22.3188L66.2156 23.2759ZM84.9803 9.58691C86.131 9.58691 87.1735 9.75781 88.1077 10.0996C89.042 10.4414 89.8338 10.9085 90.4832 11.501C91.144 12.0934 91.651 12.7884 92.0042 13.5859C92.3574 14.3721 92.534 15.2095 92.534 16.0981V26.4888C92.534 27.3774 92.3574 28.2205 92.0042 29.0181C91.651 29.8042 91.144 30.4935 90.4832 31.0859C89.8338 31.6784 89.042 32.1455 88.1077 32.4873C87.1735 32.8291 86.131 33 84.9803 33H79.7166C78.5659 33 77.5234 32.8291 76.5892 32.4873C75.6549 32.1455 74.8574 31.6784 74.1966 31.0859C73.5472 30.4935 73.0459 29.8042 72.6927 29.0181C72.3395 28.2205 72.1629 27.3774 72.1629 26.4888V16.0981C72.1629 15.2095 72.3395 14.3721 72.6927 13.5859C73.0459 12.7884 73.5472 12.0934 74.1966 11.501C74.8574 10.9085 75.6549 10.4414 76.5892 10.0996C77.5234 9.75781 78.5659 9.58691 79.7166 9.58691H84.9803ZM88.3983 11.125H86.5867V22.3188C86.5639 22.467 86.5241 22.6265 86.4671 22.7974C86.4215 22.9683 86.376 23.1278 86.3304 23.2759L85.2195 23.4468H80.8445L79.7166 23.2759L79.4774 22.2505V11.125H77.7V22.5068L77.9051 23.9766L79.0159 25.0532L80.742 25.2583H85.3221L87.0652 25.0532L88.159 23.9766L88.3983 22.5068V11.125ZM105.215 9.58691C106.365 9.58691 107.408 9.75781 108.342 10.0996C109.276 10.4414 110.068 10.9085 110.718 11.501C111.378 12.0934 111.885 12.7884 112.239 13.5859C112.592 14.3721 112.768 15.2095 112.768 16.0981V26.4888C112.768 27.3774 112.592 28.2205 112.239 29.0181C111.885 29.8042 111.378 30.4935 110.718 31.0859C110.068 31.6784 109.276 32.1455 108.342 32.4873C107.408 32.8291 106.365 33 105.215 33H99.951C98.8003 33 97.7578 32.8291 96.8235 32.4873C95.8893 32.1455 95.0918 31.6784 94.431 31.0859C93.7816 30.4935 93.2802 29.8042 92.9271 29.0181C92.5739 28.2205 92.3973 27.3774 92.3973 26.4888V16.0981C92.3973 15.2095 92.5739 14.3721 92.9271 13.5859C93.2802 12.7884 93.7816 12.0934 94.431 11.501C95.0918 10.9085 95.8893 10.4414 96.8235 10.0996C97.7578 9.75781 98.8003 9.58691 99.951 9.58691H105.215ZM106.086 21.0371V25.2583H107.898V20.8491L107.3 19.2769L105.351 18.5762L107.231 17.6704L107.761 16.1323V14.2354L107.556 12.7998L106.428 11.3643L104.719 11.125H98.3445V25.2583H100.173V19.5674H104.617L105.83 20.1143L106.086 21.0371ZM104.617 12.9365L105.83 13.4663L105.95 14.4575V16.269L105.693 17.209L104.617 17.7388H100.173V12.9365H104.617ZM125.227 11.125H121.108L119.348 11.3301L118.271 12.4238L118.015 13.8594V22.541L118.271 23.9766L119.382 25.0532L121.108 25.2583H125.227L127.226 25.019L126.799 23.1733L125.193 23.4468H121.211L120.083 23.2759L119.844 22.2505V14.0303L120.014 13.0903L121.211 12.9023H125.124L126.885 13.1929L127.226 11.3643L125.227 11.125ZM125.449 9.58691C126.6 9.58691 127.642 9.75781 128.576 10.0996C129.511 10.4414 130.303 10.9085 130.952 11.501C131.613 12.0934 132.12 12.7884 132.473 13.5859C132.826 14.3721 133.003 15.2095 133.003 16.0981V26.4888C133.003 27.3774 132.826 28.2205 132.473 29.0181C132.12 29.8042 131.613 30.4935 130.952 31.0859C130.303 31.6784 129.511 32.1455 128.576 32.4873C127.642 32.8291 126.6 33 125.449 33H120.185C119.035 33 117.992 32.8291 117.058 32.4873C116.124 32.1455 115.326 31.6784 114.665 31.0859C114.016 30.4935 113.515 29.8042 113.161 29.0181C112.808 28.2205 112.632 27.3774 112.632 26.4888V16.0981C112.632 15.2095 112.808 14.3721 113.161 13.5859C113.515 12.7884 114.016 12.0934 114.665 11.501C115.326 10.9085 116.124 10.4414 117.058 10.0996C117.992 9.75781 119.035 9.58691 120.185 9.58691H125.449ZM145.683 9.58691C146.834 9.58691 147.877 9.75781 148.811 10.0996C149.745 10.4414 150.537 10.9085 151.186 11.501C151.847 12.0934 152.354 12.7884 152.707 13.5859C153.061 14.3721 153.237 15.2095 153.237 16.0981V26.4888C153.237 27.3774 153.061 28.2205 152.707 29.0181C152.354 29.8042 151.847 30.4935 151.186 31.0859C150.537 31.6784 149.745 32.1455 148.811 32.4873C147.877 32.8291 146.834 33 145.683 33H140.42C139.269 33 138.227 32.8291 137.292 32.4873C136.358 32.1455 135.561 31.6784 134.9 31.0859C134.25 30.4935 133.749 29.8042 133.396 29.0181C133.043 28.2205 132.866 27.3774 132.866 26.4888V16.0981C132.866 15.2095 133.043 14.3721 133.396 13.5859C133.749 12.7884 134.25 12.0934 134.9 11.501C135.561 10.9085 136.358 10.4414 137.292 10.0996C138.227 9.75781 139.269 9.58691 140.42 9.58691H145.683ZM147.922 13.8594L147.666 12.4238L146.589 11.3301L144.863 11.125H141.155L139.446 11.3301L138.369 12.4238L138.113 13.8594V21.9771L138.369 23.4126L139.446 24.4893L141.155 24.7114H145.461L147.461 24.4551L147.034 22.6094L145.427 22.8828H141.274L140.18 22.7119L139.941 21.6865V18.166H147.922V13.8594ZM139.941 16.3716V14.0645L140.078 13.0903L141.274 12.9023H144.761L145.923 13.0903L146.094 14.0986V16.3716H139.941Z" fill="#FFB931"/>
</svg>
